<?xml version="1.0" encoding="UTF-8"?>
<svg id="Layer_2" data-name="Layer 2" xmlns="http://www.w3.org/2000/svg" viewBox="0 0 354.38 433.8">
  <defs>
    <style>
      .cls-1 {
        fill: #c5a994;
      }
    </style>
  </defs>
  <g id="Layer_1-2" data-name="Layer 1">
    <g>
      <path class="cls-1" d="M49.02,136.14c.88,1.17,.76,2.37,.19,3.63-1.06,2.36-2.26,4.67-3.07,7.1-1.27,3.82-1.28,7.64,.86,11.27,2.01-.39,1.88-2.21,2.23-3.5,2.58-9.31,7.71-17.04,15.04-23.12,19.03-15.79,40.77-24.46,65.73-23.74,10.7,.31,20.98,3.06,30.97,6.86,1.47,.56,2.91,1.23,2.57,3.26h.02c-6.62-3.86-14.15-4.44-21.45-5.51-24.34-3.54-45.76,3.97-65.32,18-3.36,2.41-6.31,5.26-8.98,8.45-1.27,1.53-.52,2.86-.22,4.3-.35-.36-.69-.72-1.07-1.05-.06-.05-.42,.1-.42,.14,.09,.98,1.07,.45,1.5,.87,1.05,.5,.59,1.25,.3,1.94-1.19,2.87-2.31,5.76-2.31,9.02,1.67,.08,1.67-1.48,2-2.23,4.95-11.44,13.49-19.52,23.94-25.77,19.75-11.82,40.87-13.95,62.94-8.44,6.75,1.69,13.39,3.84,19.33,7.77-6.84-1.26-13.28-4.39-19.96-4.68-1.32,1.57,.11,2.16,.1,3.06-.1,.6-.47,.83-1.1,.85-5.16,.24-10.36,.04-15.4,1.64-3.26,1.03-6.28,2.39-8.74,4.83-.73,.73-1.33,1.52-.98,3.15,7.68-1.8,15.33-4.55,23.37-2.77-14.7,4.63-17.85,6.41-20.31,11.51,2.22,.85,3.99-.61,5.92-1.14,25.94-7.19,50.23-3.35,72.97,10.86,.63,.39,1.12,1.01,1.68,1.52,0,0,.21-.07,.21-.07-.94,.06-1.95-.05-2.5,1,.69,.71,1.44,1.28,2.51,.77l-.16-.04c-.16,1.83,1.42,2.41,2.44,3.39,1.39,1.34,3.32,2.22,3.81,4.35,0,0,.03-.03,.03-.03-1.76,.96-2.9-.38-4.13-1.17-4.14-2.67-8.41-5.06-13.01-6.87-14.62-5.77-28.82-5.08-42.53,2.74-4.25,2.42-8.69,4.57-12.29,8-.58,.35-1.71,.84-1.66,1.03,.31,1.17,1.33,.71,2.14,.66,.22-.01,.44-.17,.66-.25,3.91-.45,7.47-1.96,11.02-3.54,1.89-.84,3.79-1.67,5.65-2.57,9.81-4.79,19.89-5.09,30.22-2,11.91,3.57,21.75,10.4,30.91,19.02-2.72,.91-3.71-1.1-5.08-2.01-4.75-3.17-9.58-6.13-14.88-8.29-9.17-3.75-18.12-3.45-26.95,1.15-7.77,4.05-14.78,9.37-23.88,13.34,2.77,1.28,4.46,1.05,5.99,.58,5.19-1.59,10.43-3.07,15.46-5.07,13.97-5.57,27.28-4.39,40.21,3.26-1.07,1.13-2.11,.25-3.09,.05-1-.21-1.96-.63-2.94-.95-10.22-3.32-19.88-2.17-29.04,3.49-3.96,2.45-8.01,4.74-12.01,7.13-.75,.45-.91,1.08-.39,1.83l.26-.23c-.84-.81-1.77-.78-2.83-.46-2.73,.8-5.45,1.81-8.24,2.19-16.74,2.29-30.64-2.96-41.22-16.24-1.81-2.27-3.81-3.38-6.5-3.56-2.06-.14-4.14-.06-6.21-.12-2.66-.08-5.1-.88-7.24-2.47-1.08-.8-1.82-1.93-1.47-3.33,.27-1.05,1.14-1.7,2.23-1.92,1.5-.3,3-.58,4.3-.82,1.83-2.29,.07-4.89,1.28-6.97,1.04-1.78,2.27-3.48,3.13-5.34,1.18-2.58,2.13-5.27,3.11-7.94,1.08-2.91,1.87-5.95,3.16-8.75,2.79-6.03,6.96-10.88,12.94-14.02,1.31-.69,3.01-.92,3.53-2.68-1.12-.9-2.41-.57-3.6-.37-15.4,2.52-28.46,9.21-38.39,21.54-3.13,3.89-5.26,8.31-7.22,12.83-2.41,5.56-1.86,9.46,2.54,13.36,5.37,4.77,9.42,11.01,16.41,14.07,3.29,1.44,3.13,5.34,.25,7.71-2.25,1.85-4.9,3.16-7.76,3.26-3.43,.13-6.57,1.01-9.75,2.14-4.96,1.76-9.7,.48-14.31-1.54-3.6-1.58-6.61-4.04-9.61-6.64-2.92-.32-5.48,1.52-8.4,1.11-5.81-.82-11.09-2.71-15.33-6.85-2.24-2.19-4.57-4.09-7.38-5.57-4.2-2.21-7.4-5.66-9.81-9.75-1.07-1.82-2.17-3.38-4.24-4.29C2.26,157.3-.33,149.15,.03,139.77c.29-7.35,2.53-14.33,6.67-20.46,5.85-8.67,13.03-16.1,21.86-21.83,3.51-2.28,7.27-4,11.37-4.85,4.09-.84,8.14-1.05,12.15,1.54-1.32,1.69-2.88,.99-4.15,.94-4.58-.17-8.72,1.23-12.51,3.6-9.62,6.04-15.99,14.59-19.1,25.53-.55,1.92-1.08,3.91-.15,5.97,2.44-.62,2.77-2.96,3.84-4.61,5.29-8.15,11.67-15.22,19.94-20.42,5.56-3.5,11.52-5.94,18.25-5.78,1.24,.03,2.48,.53,3.72,.81-.31,2.1-2.18,1.92-3.53,2.17-6.26,1.2-11.44,4.39-16.14,8.5-4.27,3.74-8.04,7.92-10.68,13.01-.38,.8-1.16,1.64-.03,2.37,.13,.08,.88-.81,1.34-1.24,1.68-1.56,3.35-3.12,5.04-4.68,3.59-3.31,7.43-6.28,11.86-8.38,1.02-.48,2.28-1.16,3.21,.88-5.62,5.68-11.93,11.02-15.05,18.84-.08,.59-.43,1.54-.19,1.72,.76,.56,.95-.23,1.15-.8,.87-.52,1.82-.94,2.61-1.56,13.43-10.71,28.14-18.99,44.67-23.92,1.34-.4,3.01-.58,3.8-2.14-.28-.07-.53-.2-.77-.19-8.86,.33-17.49-.48-25.46-4.86-.46-.25-1.37,.32-2.08,.51-.04-.74,.15-1.61-.17-2.2-.47-.89-1.27-1.61-1.98-2.36-4.45-4.7-7.74-9.8-5.2-16.72-8.2-3.62-14.8-8-14.71-17.22-6.42-5.59-6.72-7.65-2.03-13.83,1.24-1.63,2.69-3.2,4.34-4.4,9.48-6.87,19.43-12.83,31.23-14.81,15.26-2.57,29.22,1.19,42.27,8.98,1.53,.91,2.88,2.21,4.1,3.52,3.73,3.99,4.06,6.29,1.92,13.12-2.44-1.47-4.73-3.05-7.2-4.26-2.31-1.13-4.75-2.06-7.23-2.74-2.66-.73-5.43-1.16-8.81-.12,2.4,2.84,5.67,3.32,8.11,5.04,2.77,1.95,5.36,4.05,7.45,6.74,1.91,2.47,3.43,5.16,4.48,8.12,1.02,2.89,2.14,5.76,1.69,9.09-2.56,.14-3.68-1.85-5.19-3.02-4.51-3.47-8.84-7.19-14.45-8.82-1.32-.36-2.68-1.76-3.95,.08,.47,1.12,1.53,1.34,2.47,1.73,1.3,1.55,3.84,1.72,4.61,4.48-8.06-.58-15.68-4.64-23.87-2.75,.04,2.39,1.73,2.22,2.74,2.53,6.69,2.03,13.43,3.9,20.14,5.87,7.8,2.29,14.9,5.94,21.17,11.15,.79,.65,1.49,1.44,2.1,2.26,.26,.36,.19,.97,.32,1.81-8.12-.46-15.64-3.45-23.46-4.84-7.55-1.34-15.09-2.51-22.64-2.62-.52,2.31,.69,3.05,1.64,3.85,5.39,4.5,11.86,6.3,18.63,7.03,6.95,.74,13.95,1.12,20.92,1.74,2.57,.23,5.14,.64,7.68,1.09,.94,.17,2.15,.02,2.73,1.7-6.5-.16-12.6,1.91-17.79,2.4,8.94,1.08,19.33-.18,29.26,3.31-1.78,.83-3.55,.35-5.26,.14-20.32-2.43-39.76,.95-58.42,9.02-9.06,3.92-17.51,9-25.51,14.79-8.26,5.97-13.72,13.99-17.17,23.48-.53,1.47-1.02,2.94-.3,5.17,2.76-3.77,2.81-8.34,5.36-11.67,2.51-3.29,4.95-6.62,7.43-9.93l-.06-.18Zm84.9,18.89c2.19,.9,3.36,.32,4.56-.14,5.06-1.94,10.13-3.84,15.18-5.8,7.29-2.83,14.76-4.66,22.64-4.36,.52,.02,1.06,.07,1.54-.06,.47-.13,1.47,.48,1.36-.85-16.46-2.78-31.12,1.37-45.29,11.2Zm14.54-34.02c.67,.32,1.08,.63,1.53,.71,.67,.11,1.6,.47,1.87-.49,.25-.88-.58-1.07-1.24-1.14-.7-.08-1.47-.27-2.16,.92Zm-54.14-57.64c-.13-.17-.28-.51-.39-.49-.4,.04-.79,.2-1.19,.31,.14,.16,.29,.47,.42,.46,.39-.03,.77-.18,1.15-.28Z"/>
      <path class="cls-1" d="M168.11,193.15c6.11-.97,11.93-3.2,18.12-3.96,11.35-1.38,22.18,.31,32.68,4.6,.66,.27,1.15,.94,2.22,1.84-2.11,.77-3.69,.13-5.29-.09-11.94-1.69-23.76-1.46-35.3,2.51-4.67,1.61-9.11,3.73-13.2,6.5-.97,.66-2.12,1.34-1.57,3.28,2.44,.12,4.17-1.64,6.19-2.5,2.38-1.01,4.7-2.17,7.11-3.09,2.17-.83,4.4-1.56,6.66-2.09,2.51-.58,5.08-.95,7.65-1.29,2.3-.3,4.62-.45,8.5-.8-10.59,3.44-20.01,5.76-27.32,13.32,2.22,1.32,3.83,.36,5.37-.11,14.01-4.28,28.1-3.97,42.21-.75,2.96,.68,6.12,1.2,8.85,3.89-14.02-2.22-27.42-2.25-40.2,3.89-6.75,3.24-9.36,5.17-11.94,9.14,2.43,.85,4.54-.41,6.73-.97,11.66-2.99,23.42-4.21,35.4-2.2,11.07,1.86,20.66,6.52,28.4,14.81,3.03,3.25,5.07,7.13,6.9,11.29,11.87,.12,21.02,5.61,29.13,13.29,9.36,8.86,14.87,19.84,17.44,32.32,.91,4.43,2.31,8.9,1.38,14.55-1.39-3.45-2.41-6.04-3.47-8.6-3.22-7.75-7.76-14.6-13.72-20.55-7.76-7.74-17.35-10.79-28.03-11.69,.13,.8,.03,1.42,.3,1.7,1.42,1.5,2.77,3.14,4.43,4.31,4.59,3.23,8.7,7.17,13.83,9.62l-.23-.15c-6.35-2.05-12.38-4.82-18.27-7.91-1.31-.69-2.7-1.66-4.19-.32-.15,1.82,1.04,2.81,2.34,3.61,3.5,2.16,6.96,4.38,10.6,6.29,7.09,3.73,13.68,8.08,19.06,14.12l-.15-.27c-7.89-5.39-16.37-9.59-25.31-12.93-5.32-1.99-10.14-4.95-14.85-8.09-2.14-2.25-3.57-5.2-7.26-7.79,1.13,4.55,2.86,7.23,5.26,9.54,1.66,1.97,3.33,3.94,5.29,6.25-2.02,.87-3.78-1.69-5.56-.54-.83,1.1-.3,2.04,.55,2.57,1.96,1.24,3.99,2.4,6.09,3.41,4.67,2.24,9.36,4.47,14.12,6.5,7.62,3.26,13.53,8.53,18.47,15.06,5.05,6.67,8.76,14.06,11.99,21.74,10.46,24.88,14.28,50.82,12.06,77.65-.55,6.67-1.44,13.33-3.65,19.75,1.04-6.5,1.13-13.07,1.36-19.62,.66-18.53-.95-36.79-6.57-54.57-3.54-11.21-8.51-21.69-15.3-31.32-4.78-6.77-10.95-11.69-18.45-15.04-5.93-2.65-12.12-4.55-18.3-6.48-6.18-1.93-12.36-3.88-18.46-6.05-4.9-1.74-9.49-4.15-13.64-7.35-4.86-3.75-8.29-8.5-10.25-14.33-2.77-8.26,.01-16.08,7.62-19.76,1.31-.63,3.12-.82,3.57-3.18-6.18-3.73-12.89-5.45-19.86-5.03-1.46,1.41-1.09,2.79-1.16,4.03-.31,5.27-2.57,9.53-6.88,12.48-2.22,1.52-3.71,3.43-5.19,5.59-5.75,8.36-14.02,11.35-23.72,9.69-11.5-1.97-20.57-8.21-27.5-17.54-6-8.08-7.46-17.09-4.38-26.55,6.05-18.62,18.18-32.29,35.07-41.92,2.2-1.25,4.99-1.55,6.52-3.93,0,0-.26,.23-.26,.23Zm-12.44,23.52c-2.15,.09-1.58,1.15-.81,2.28-1.15-.14-2.32-.31-2,1.51-.33-.11-.66-.21-.99-.32,.08,.09,.17,.25,.25,.25,.2,0,.4-.09,.56-.19,.7-.42,1.39-.85,2.05-1.3,.24-.78,.49-1.56,.73-2.34,.96,0,1.5-.5,1.68-1.42q4.76-3.21,6.69-6.46-3.71,1.25-7.67,5.46c-.48,.79-1.95,1.38-.49,2.54Zm93.43,54.11c-.14-.86-.59-1.44-1.45-1.67-.34-.68-.68-1.36-1.03-2.04-.46-1.01-.93-2.02-1.39-3.03-1.92-3.75-1.03-7.4,.86-10.92-4.69-5.57-10.12-8.58-17.31-8.65,.22,.97,.17,1.62,.47,1.91,5.78,5.58,9.46,12.7,14.09,19.12,.46,1.1,.88,2.22,2.12,2.7,.37,.64,.75,1.27,1.13,1.91,.43,.61,.87,1.22,1.3,1.83,.47,.54,.94,1.08,1.41,1.61,.51,.52,1.03,1.03,1.54,1.55,1.66,1.55,2.8,4.4,5.94,2.57-.55-2.41-2.36-3.27-4.22-4.07-.6-.44-1.21-.89-1.81-1.33-.23-.84-.78-1.34-1.64-1.48Zm-15.93,4.54c-1.12,4.13,.95,6.4,3.05,8.49,1.34,1.34,2.75,3.25,5.41,1.55-1.92-3.88-4.9-6.78-8.46-10.04Zm-59.97-62.95c-.08,.14-.26,.33-.22,.43,.08,.19,.35,.48,.43,.45,.57-.25,.66-.58,.26-.87-.1-.07-.3-.01-.47-.01Zm65.23,58l.38,.25,.04-.42-.42,.17Z"/>
      <path class="cls-1" d="M252.63,222.15c.03-2.86-2.23-4.57-3.45-6.78-10.34-18.76-12.85-38.37-4.75-58.37,8.04-19.87,22.4-33.33,43.66-38.57,.5-.12,1.03-.17,1.51-.34,.19-.07,.31-.35,.69-.8-10.37-1.3-19.62,1.18-28.16,6.6-6.89,4.38-12.39,10.23-16.75,17.08-3.45,5.42-6.57,11.06-9.84,16.62-1.15-1.54,.03-2.83,.4-4.2,1.75-6.54,4.31-12.75,7.47-18.72,7.95-14.98,20.06-24.05,37.08-26.33,13.19-1.76,25.82-.09,37.9,5.5,5.23,2.42,9.98,5.59,13.82,9.89,11.04,12.35,13.8,26.41,7.82,41.88-2.94,7.61-8.43,12.98-16.34,15.55-1.47,.48-3.01,1.01-4.52,1.03-12.01,.13-23.31-1.71-31.49-11.86-.63-.78-1.44-1.4-2.34-2.27-3.45,3.25-3.27,7.58-4.49,12.11-1.95-5.16-.89-9.42,.68-13.65,.79-2.13,2.4-4.14,.66-7.06-7,7.27-7.03,17-9.61,25.6-.17-2.52-.49-5.04-.45-7.55,.04-2.32,.36-4.65,.78-6.93,.46-2.54,1.06-5.07,1.79-7.55,.66-2.23,1.42-4.46,2.42-6.55,1.11-2.33,2.61-4.47,3.78-6.78,.99-1.94,3.46-3.18,3.07-5.35-.81-1.65-1.74-1-2.21-.71-.86,.52-1.63,1.3-2.23,2.12-6.48,8.81-12.02,18.13-15.19,28.7-3.81,12.7-3.79,25.04,3.3,36.75,.83,1.38,1.46,2.77,.37,4.32,0,0,.02,.06,.02,.06-.03-1.09-.64-1.87-1.31-2.68-9.75-11.71-11.83-25.23-9.4-39.83,1.06-6.37,3.09-12.44,5.71-18.32,.86-1.92,1.73-3.75,.63-5.84,.47-.23,.63,.13,.3,.19-1.01,.19,.33,.57-.22-.31-2.59,4.59-5.18,9.18-8.53,15.11,0-5.77,3.23-9.15,3.17-13.28-2.29-.41-2.91,1.13-3.69,2.32-11.17,17.19-13.21,35.49-6.5,54.79,1.1,3.16,2.45,6.26,4.04,9.2,.97,1.81,.91,3.4,.37,5.17l.03,.02Zm6.03-73.72c-.09,.17-.29,.39-.25,.52,.08,.22,.41,.57,.48,.54,.65-.3,.75-.7,.29-1.04-.11-.08-.35-.01-.53-.01Zm26.95-7.76c-.32,.18-.63,.35-.93,.52,.16,.15,.35,.46,.46,.43,.33-.07,.63-.28,.94-.44-.15-.16-.3-.32-.47-.51Zm3.1-1.17c-.13-.14-.26-.39-.4-.4-.14,0-.3,.23-.44,.36,.13,.14,.26,.39,.4,.4,.14,0,.29-.23,.44-.36Z"/>
      <path class="cls-1" d="M313.55,224.27c-1.22-.05-1.9,.64-2.25,1.7-.98,2.97-1.42,6.02-1.52,9.16-.28,9.37,.83,18.66,1.97,27.91,2.12,17.23,5.36,34.3,8.13,51.43,2.19,13.55,3.46,27.25,5.05,40.89,.25,2.15,.04,4.36-.93,6.6-1.23-7.06-2.37-14.13-3.72-21.17-4.76-24.94-9.41-49.91-16.26-74.39-3.35-11.97-7.22-23.8-9.51-36.05-1.11-5.95-1.15-11.85,.84-17.66,1.47-4.27,3.95-7.87,7.31-10.83,4.99-4.38,10.22-5.37,15.39-1.08,.57,.47,1.23,.84,1.96,1.33,2.28-1.13,3-3.51,4.36-5.3,4.64-6.13,13.15-7.06,19-1.99,3.01,2.61,4.92,5.97,6.34,9.65,1.69,4.41,2.57,9.05,2.71,13.68,.53,17.1,2.54,34.15,1.78,51.29-.4,9.06-1.2,18.11-1.62,27.17-.67,14.52,.07,29.03,.18,43.55,.04,5.79,1.3,13.24-.18,23.33-1.03,7.02-2.87,13.27-3.11,13.22-.26-.05,1.65-7.57,2.26-15.65,.93-12.34-2.24-19.59-3.93-30.84-2.5-16.68-4.52-33.38-4.33-50.3,.11-9.86-.91-19.67-2.74-29.38-.18-.97-.52-1.92-1.1-4.03-2.92,6.97-1.58,13.18-1.59,19.18-.01,5.92,.77,11.85,1.2,17.8-2.68,.06-2.55-1.96-2.93-3.2-3.01-9.91-5.18-20.03-7.29-31.56-1.18,3.78-.97,6.4-.83,8.97,.56,9.85,2.13,19.58,3.82,29.28,2.48,14.3,5.69,28.46,7.61,42.86,1.04,7.74,1.35,15.51,1.54,23.27,.43,17.39-.84,34.7-2.85,52.2-1.07,13.53-1.43,16.46-1.55,16.45-.22-.01,.4-10.17,.69-23.86,0,0-.02-13.77,.07-26.45,.16-24.8-3.3-49.08-10.11-72.91-3.91-13.7-7.97-27.36-10.53-41.41-1.77-9.72-2.97-19.47-2.58-29.37,.05-1.21,.47-2.55-.77-3.49Z"/>
      <path class="cls-1" d="M203.22,124.03c-1.14-1.6-1.78-3.77-4.29-3.86,.07,7.85,6.34,15.07,20.64,23.8-17.62-4.1-30.85-18.88-33.26-37.18-1.77-13.42,.86-25.76,8.91-36.82,4.91-6.74,10.04-13.24,17.75-17.05,2-.99,2.92-2.88,4.12-4.54,3.26-4.47,7.25-8.12,12.22-10.59,7.58-3.77,14.34-1.72,18.54,5.59,.64,1.12,1.06,2.37,1.7,3.49,3.67,6.49,3.02,12.59-2.25,17.75-5.8,5.68-6.23,12.19-3.96,19.33,.94,2.96,2.22,5.81,3.32,8.71,1,2.67,2.12,5.3,2.91,8.04,2.11,7.34,1.49,14.38-2.82,20.86-1.57,2.37-3.26,4.66-5.42,6.81,.67-2,1.24-4.05,2.04-6,3.24-7.83,2.17-15.16-2.23-22.24-2.85-4.58-5.94-8.94-9.78-13.41-1.84,2.18-1.6,3.92-.91,5.49,1.04,2.37,2.44,4.57,3.55,6.91,2.91,6.13,5.01,12.45,4.12,19.8-2.17-.77-1.38-2.67-1.98-3.81-.69-1.34-.85-2.99-2.29-3.88-2.25,1.47,.14,4.66-2.53,6.3-2.38-5.72-4.55-11.45-8.16-16.43-.25-.34-.89-.39-1.75-.73-.89,8.3,3.17,15.27,5.9,22.62-2.75,.34-3.15-3.35-5.88-2.12,.52,5.28,3.84,9.42,6.16,14-1.55,1.35-2.26-.15-3.08-.8-1.61-1.28-3.12-2.68-4.53-3.91-1.77,.66-2.1,1.74-1.77,3.16,.35,1.51,.67,3.03,1,4.54l.33,.06c-7.56-8.24-12.73-18.08-18.56-28.94-.07,4.8,1.32,7.86,2.53,10.97,.57,1.45,1.12,2.95-.32,4.27l.04-.21Zm-5.24-6.43c-.96,.5-.66,1.28-.44,1.91,.14,.38,.8,.94,.97,.86,.62-.29,1.25-.79,.72-1.63-.31-.5-.37-1.38-1.26-1.14Zm20.9,11.56c-.53-.78-1-1.59-1.61-2.27-.1-.12-1.01,.19-1.19,.5-.49,.86,.45,2.5,1.46,2.56,.36,.02,.75-.43,1.34-.79Z"/>
      <path class="cls-1" d="M163.42,87.25c-1.22,.38-1.92-.41-2.56-1.2-5.85-7.31-9.26-15.5-9.13-25.02,.08-5.94,.01-11.89,.01-17.4-2.93,4.2-3.47,6.78-4.62,23.11-2.86-4.25-2.27-8.91-2.86-14.03-1.92,1.83-2.25,3.66-2.51,5.5-2.06,14.59,2.14,27.15,12.32,37.72,2.3,2.39,4.77,4.63,7.12,6.9-1.07,1.37-2.03,.75-2.9,.42-15.48-5.82-24.9-17.09-29.37-32.79-1.8-6.32-2.1-12.8-1.44-19.28,1.11-10.93,4.12-21.33,9.35-31.04,4.28-7.94,10.11-14.32,18.09-18.71,5.13-2.82,11.18-1.39,14.12,3.64,.39,.67,.69,1.4,.95,2.13,2.05,5.73,5.66,10.44,9.61,14.94,2.73,3.12,5.46,6.24,8.09,9.45,2.31,2.82,4.25,5.89,5.49,9.35,2.39,6.66,2.4,13.25-1.17,19.51-2.18,3.82-4.69,7.45-7.03,11.19-2.47,3.96-4.89,7.93-6.51,12.35-1.15,3.14-1.81,6.32-1.87,9.6,0,.38-.02,1.65,.14,3.37,.26,2.72,1.04,7.26,3.7,12.93l.25,.14c-2.3-3.38-5.66-9.36-6.77-17.46-1.15-8.37,.89-16.68,3.2-22.34,1.12-2.74,2.55-5.42,4.3-8.01,1.15-1.71,2.11-3.57,2.95-5.45,1.1-2.47,1.09-5.11,.24-7.61-.89-2.63-1.7-5.47-5.12-6.72-2.84,9.18-8.75,17.24-7.33,27.48-2.29-.7-2.53-2.28-2.77-3.82-.73-4.69-.26-9.31,.87-13.88,.88-3.55,1.4-7.13,1.07-10.78-.11-1.21,0-2.55-1.1-3.46-.44,.24-1.19,.42-1.23,.7-.83,5.89-1.72,11.77-2.29,17.69-.32,3.34-.34,6.76-.04,10.1,.34,3.82,1.19,7.58,1.42,11.49-3.86-5.94-5.33-12.77-7.14-19.51-1.55,7.31-1.42,14.4,.51,21.5,.67,2.45,2.35,4.7,1.79,7.46l.2-.14Z"/>
      <path class="cls-1" d="M163.56,117.91c1.12-.03,2.12-1.38,3.55-.16-1.31,.07-2.42,.12-3.53,.17,0,0-.03-.01-.03-.01Z"/>
      <path class="cls-1" d="M163.22,87.38c.35,.22,.95,.39,.99,.65,.09,.55-.36,.74-.84,.38-.5-.38-.45-.81,.04-1.17,0,0-.2,.14-.2,.14Z"/>
      <path class="cls-1" d="M340.04,288.17c-.11,.15-.23,.3-.34,.45,.04-.33,.09-.67,.13-1l.21,.55Z"/>
      <path class="cls-1" d="M277.56,285.32l-.52,.02c.46,.44,.54,.38,.26-.18,.03,0,.26,.15,.26,.15Z"/>
      <path class="cls-1" d="M211.38,154.24c.02,.55,.03,1.1,.06,1.66,0,0,.16,.04,.16,.04,0-.59,0-1.18-.01-1.77l-.21,.07Z"/>
      <path class="cls-1" d="M219.19,137.87c.83-.63,.73,.62,.4-.33-.13-.39-.55-.13-.09,.39,.02,0-.31-.06-.31-.06Z"/>
      <path class="cls-1" d="M49.09,136.32c.46,0,.92,0,1.37,.04,.03,0,.11,.41,.05,.46-.76,.5-1.09-.1-1.47-.64-.02-.03,.05,.14,.05,.14Z"/>
      <path class="cls-1" d="M203.18,124.23c.1-.23,.14-.56,.3-.65,.32-.18,.72-.22,1.08-.31,.03,.19,.06,.37,.09,.56-.47,.04-.93,.07-1.42,.15-.02,.05-.06,.25-.06,.25Z"/>
      <path class="cls-1" d="M270.17,217.58c-.14-1.28-.8-2-2.14-1.98,0,0-.02-.06-.02-.07,.75,.69,1.49,1.38,2.24,2.07,0,0-.08-.03-.08-.03Z"/>
      <path class="cls-1" d="M286.85,300.94c-.91-.5,.36-.89-.37-.18-.18,.17,.16,.43,.2-.1,.02,.01,.17,.28,.17,.28Z"/>
      <path class="cls-1" d="M59.24,109.4c-2.16,1.64-4.31,3.32-7.35,3.6,1.61-3.68,2.17-3.91,7.55-3.4l-.21-.2Z"/>
      <path class="cls-1" d="M59.44,109.6c-.44-.78-.28-1.34,.63-1.54,.2-.04,.44,.13,.66,.2-.51,.37-1.01,.75-1.51,1.13,.01,.01,.22,.22,.22,.22Z"/>
    </g>
  </g>
</svg>