<?xml version="1.0" encoding="UTF-8"?>
<svg id="Layer_2" data-name="Layer 2" xmlns="http://www.w3.org/2000/svg" viewBox="0 0 480.75 536.79">
  <defs>
    <style>
      .cls-1 {
        fill: #c5a994;
      }
    </style>
  </defs>
  <g id="Layer_1-2" data-name="Layer 1">
    <g>
      <path class="cls-1" d="M269.89,170.74c-1.14-.29-1.79-3.21-1.44-5.38,.2-1.22,.63-1.69,1.46-4.27,0,0,.36-1.13,.87-3.08,.87-3.39,7.02-32.54,13.01-51.09,3.11-9.63,7-18.93,12.4-27.53,1.07-1.7,1.76-3.82,4-4.49,0,0-.25-.37-.25-.37l.15,.45c-1.72-.89-2.91-.11-4.02,1.19-5.62,6.52-10.43,13.54-13.78,21.51-.79,1.88-1.53,3.79-2.55,6.32-.99-3.42,.21-6.07,1.12-8.42,4.97-12.93,11.58-24.91,21.71-34.61,6.32-6.05,13.42-10.42,22.49-11.17,4.31-.36,8.44-2.34,12.57-1.26,2.36-2.28,2.65-4.98,3.73-7.29,4.71-10.1,11.27-18.61,20.92-24.42,2.43-1.46,5.03-2.71,7.68-3.71,7.76-2.92,11.69-2.52,21.88,1.96,.7-.49,1.65-.94,2.33-1.65,11.83-12.55,26.34-15.52,42.71-12.12,5.14,1.07,9.54,4.22,14.53,5.32,4.75,1.05,9.79,.91,14.51,2.43,4.49,1.44,8.7,3.44,11.82,7.15,2.88,3.42,3.98,7.19,2.08,11.53-1.22,2.79-3.09,3.36-5.34,1.42-.77-.67-1.33-1.63-2.18-2.17-2.43-1.58-5.83-1.39-7.84,.73-1.79,1.9-3.78,3.49-5.77,5.13-1.33,1.1-2.26,2.84-2.97,4.47-1.03,2.36-1.86,4.84-2.47,7.34-2.73,11.03-8.95,19.72-17.73,26.69-4.78,3.8-10.04,6.39-16.39,6-.97-.06-1.96,.29-2.94,.46,4.84,29.61-12.78,48.35-35.62,53.43-.26,.43-.8,.9-.73,1.28,1.13,6.84-1.95,11.91-6.41,16.68-11.88,12.7-26.71,19.29-43.65,21.65-10.51,1.46-21.11,2.31-31.48,4.74-18.75,4.4-33.84,13.99-43.96,30.73-.67,1.11-1.29,2.28-2.15,3.22-.43,.47-1.35,.48-2.01,.69-1.02-1.67-.29-3.14,.02-4.64,4.3-21.38,2.14-42.31-4.6-62.86-1.28-3.91-3.22-7.63-5.13-11.29-1.97-3.77-4.88-6.69-9.12-7.97-.48-.5-1.09-.94-1.68-.4-.6,.55-.11,1.19,.23,1.74,10.53,21.14,14.51,43.61,13.33,67.05-.6,11.96-2.69,23.68-7.66,34.69-1.35,3-2.51,6.2-5.15,8.34-1.49-.88-1.02-1.81-.68-2.74,11.85-32.11,6.74-62.06-11.53-90.31-2.39-3.7-5.2-7.11-8.6-9.96-1.14-.96-2.35-.83-3.37,.32,.23-.07,.46-.14,.68-.21,.62-.19,1.45-.29,.99-1.24-.18-.38-.82-.93-1.05-.85-.85,.31-.53,1.03-.35,1.68,.05,.17-.16,.42-.25,.63,6.12,4.8,9.28,11.6,12.15,18.5,3.51,8.43,4.99,17.39,6.26,26.38,.28,2,.35,4.03,.52,6.08-1.73-.76-1.91-2.37-2.42-3.83-1.95-5.63-4.03-11.2-6.74-16.52-5.01-9.82-12.15-17.28-22.7-21.22-3.37-1.26-6.7-2.85-9.72-4.79-10.58-6.79-14.74-19.69-10.2-31.34,.83-2.14,2.03-4.24,3.49-6,4.83-5.81,10.51-9.36,18.23-5.5,11.08-6.28,21.75-4.58,31.75,1.75,17.1,10.83,27.58,26.27,30.39,46.53,2,14.39,3.53,28.81,1.95,43.37-.04,.41,.27,.85,.42,1.28,1.94,.04,2.54-1.63,3.46-2.76,10.81-13.34,24.55-22.04,41.21-26.15,3.77-.93,7.53-1.89,11.26-2.96,2.95-.85,6-1.52,9.47-3.93-7.74-.43-13.99,2.79-20.41,3.27-1.24-1.2,.54-2.42-.14-3.33-2.57-1.31-4.53,1.63-7.08,.28,2.86-3.3,7.38-3.65,10.52-6.2-.49-.87-.93-1.67-1.53-2.74,6.88-5.17,14.55-7.93,22.83-9.12,4.35-.63,8.75-.98,13.13-1.42,2.79-.28,5.53-.66,8.6-2.69-8.82-3.15-16.42,0-24.73,1.69,3.18-4.96,8.5-5.28,12.36-7.87,1.57-.3,3.34-.03,4.57-1.73-2.04-1.02-3.86-.28-5.69,.35-12.68,2.43-23.89,8.22-34.49,15.35-1.44-1.4,.04-1.87,.62-2.41,7.33-6.77,15.93-11.47,25.05-15.3,7.89-3.32,16.06-5.8,24.4-7.7,2.7-.62,5.39-1.29,7.9-1.89,.07-1.6-.71-1.77-1.42-1.78-9.06-.16-18.13-.51-27.16,.46-2.81,.3-5.59,1-8.37,1.59-4.99,1.06-8.96,3.67-12.31,7.56-9.32,10.79-18.07,22.03-26.69,33.38-6.25,8.23-5.72,7.29-7.49,9.92-4.27,6.33-6.07,10.37-7.57,9.98Zm111.31-123.65c-.64,.12-.85-.13-.56-.71,.07-.14,.43-.3,.55-.24,.57,.28,.55,.63-.02,.94-.98-.18-2.23-1.26-2.52,.77-.92-.92-1.9-.59-2.71,.05-3.87,3.01-7.76,5.99-11.5,9.15-1.94,1.64-2.3,2.76-3.64,7.07,6.7-3.89,13.38-10.08,17.72-16.41,.9-.21,1.79-.42,2.69-.62Zm-79.65,22.37c-.13-1.07-1.1-2.32,.95-2.77,1.59-.35,1.18,1.25,1.93,1.65-.78-.28-1.31-.86-.86-1.6,.37-.6,1.18-.96,1.91-.42,.36,.27,.81,.84,.74,1.16-.19,.79-.82,1.09-1.63,.62-.75,1.1-1.78,1.67-3.09,1.64,.94-.45-.56-.81,.4-.42,.15,.06,.36,.33,.35,.34-.37,.43-.61,.36-.7-.19Zm-4.8,48.99c.48-.52,.85-.44,1.21,.19,.06,.11,.48,.15,.6,.06,.17-.14,.34-.45,.3-.65-.12-.57-.49-.53-.89,.13-.36,.58-.74,.69-1.21,.29-.18,1.38-.36,2.76-.54,4.14-3.01,1.07-3.36,4.34-5.24,6.35-1.09,1.17-1.39,3.17-4.05,3.56,4.58-11.17,10.76-20.95,16.64-30.8-1.23-1.33-3.45-2.02-1.57-4.26,2.65-3.17,5.25-6.39,7.77-9.67,.42-.54,1.74-1.33,.33-2.29-1.85,.64-2.95,2.15-4.06,3.51-2.28,2.81-4.52,5.67-6.53,8.67-10.88,16.3-12.62,23.11-12.62,23.11-11.45,24.05-13.18,33.87-15.39,39.65-.1,.26-.41,1.07-.56,2.19-.12,.89-.09,1.63-.05,2.09,.33,.06,.96,.16,1.62-.1,1.14-.44,1.72-1.66,2.34-2.74,6.81-11.89,13.57-23.81,20.35-35.72,.65-1.15,1.14-2.31,.85-3.67,2.35-.98,.98-2.6,.68-4.03ZM405.78,26.81c-.42-.46-.85-.92-1.27-1.38,3.28-3.97,7.95-5.59,12.51-7.38,.96-.38,1.97-.65,2.9-1.11,.74-.36,2.16-.07,1.85-1.75-3.99-2.27-8.1-1.1-12.03-.08-4.21,1.09-8.33,2.65-11.63,6.8,2.96,4.49,1.5,9.56,.93,15.42,5.62-3.66,10.87-6.13,14.9-10.8-3.12-1.15-5.57,.73-8.15,.28Zm-84.05,79.37c1.79,.92,3.43,.47,5.16-.32,7.82-3.54,16.09-5.48,24.54-6.83,3.05-.49,6.12-1.07,9.08-1.95,2.21-.66,5.03-.55,5.7-3.91,.22-1.1,1.97-1.45,3.23-1.84,1.96-.61,3.91-1.33,5.77-2.2,.92-.43,1.53-1.35,1.08-2.95-9.02-.05-16.3,7.3-26.18,6.82,2.89-4.12,7.26-4.76,10.59-6.93,3.37-2.2,7.05-3.97,10-7.51-3.63-.5-6.12,.97-8.64,2.1-4.26,1.9-8.08,4.57-11.85,7.3-3.35,2.42-6.65,4.91-10.05,7.25-1.01,.7-2.76,1.79-3.34,1.42-2.84-1.82-4.18,.36-5.89,1.72-3.21,2.55-5.49,6.18-9.3,7.99,.64-.16,.76,.31,.33,.32-1.01,.03,.17,.49-.22-.47Zm87.39-43.38c3.92-1.62,8.42-1.75,12.58-5.37-5.34-1.23-9.48,.03-13.68,.72-6.51,1.07-8.83,.96-12.95-.52,12.26-3.85,24.35-6.94,33.09-16.89-.73-.32-.98-.54-1.2-.5-1.25,.21-2.53,.35-3.72,.76-16.22,5.62-31.53,13.13-46.1,22.18-.94,.59-2.24,1.03-1.82,2.77,1.82-.4,3.58-.79,5.33-1.16,8.75-1.88,17.27-2.43,25.79,1.66,5.01,2.41,10.64,2.18,15.9,0,2.77-1.14,5.53-2.5,7.11-6.36-3.85,1.05-7.01,2.06-10.24,2.76-3.28,.71-6.62,1.04-10.11-.03Zm-45.82-27.86c-3.94,1.2-5.88,4.27-7.78,7.3-1.37,2.18-2.43,4.55-3.72,6.79-.15,.26-.83,.22-1.26,.31-1.06-.69,.29-2.48-1.52-3.01-2.84,3.23-4.75,6.25-2,10.92,1.94,3.31,2.05,7.42,1.04,11.34-.21,.83-.7,2.04,1.35,2.21,6.61-11.01,8.94-23.88,13.89-35.85Zm-49.54,112.86c-.23,.07-.62,.08-.66,.21-.16,.49,.19,.68,.87,.46,.18-.06,.31-.26,.46-.39-.22-.09-.45-.18-.67-.28Zm-4.38,1.94c-.17-.19-.37-.56-.5-.53-.46,.08-.9,.3-1.35,.47,.17,.19,.37,.57,.49,.55,.47-.09,.91-.31,1.37-.49Z"/>
      <path class="cls-1" d="M160.07,429.36c-.2-1.96,1.69-3.88,.12-5.9-2.57,.28-3.9,2.32-5.53,3.87-7.31,6.98-13.74,14.72-19.89,22.72-1.38,1.79-2.3,4.08-5.04,5.06-.45-3.97,2.52-6.16,4.1-8.9,1.55-2.67,3.56-5.07,5.25-7.67,1.77-2.72,4.48-4.88,5.41-7.99-1.21-1.58-2.02-.69-2.72-.08-1.92,1.68-3.37,3.91-5.76,5.06l-1.34-.85c6.01-8.9,10.97-18.38,15.57-28.07,1.06-2.22,1.56-4.89,3.94-6.32-.07-.44-.2-.88-.2-1.31,0-.67-.23-.99-.54-.69-.23,.23-.39,.8-.26,1.06,.19,.39,.66,.64,1.02,.94-.95-.25-1.98-.98-2.84,.02-1.18,1.37-2.29,2.8-3.34,4.28-5.56,7.82-10.86,15.81-15.68,24.11-.98,1.69-1.45,3.87-3.69,4.76-.66-2.33,.82-4.03,1.75-5.73,3.6-6.59,7.4-13.08,11.1-19.62,.76-1.34,1.54-2.69,2.03-4.14,.43-1.26-.83-1.67-1.65-2.21-1.21-.05-1.87,.83-2.32,1.65-11.47,20.67-21.77,41.84-27.13,65.07-3.22,13.97-5.11,28.05-3.26,42.42,.16,1.27,.02,2.57,.02,5.4-1.74-3.93-2.41-6.67-2.82-9.47-2.11-14.49-1.73-28.93,.62-43.38,3.65-22.44,11.49-43.53,20.23-64.36,3.51-8.37,7.3-16.61,11.85-24.48,5.22-9.03,11.26-17.44,19.05-24.44,7.02-6.29,14.65-11.49,24.18-13.36,11.02-2.17,20.53,.36,28.4,8.52,.72,.75,1.35,1.58,1.83,2.14,2.53,.02,3.5-1.72,4.79-2.9,4.83-4.4,10.19-7.94,16.04-10.85,14.86-7.39,30.71-.1,34.92,13.62,.29,.95,.87,1.82,1.24,2.58,2.25,.72,3.69-.61,5.28-1.29,9.73-4.13,19.63-4.34,29.64-1.28,6.05,1.85,11.43,4.83,15.73,9.6,4.01,4.44,8.12,8.71,14.1,10.61,2.25,.72,3.84,2.58,5.05,4.66,1.89,3.22,2.01,6.45-.24,9.47-1.23,1.64-2.58,3.46-4.31,4.4-3.53,1.92-6.01,4.87-8.75,7.59-4.25,4.21-8.88,8.03-13.96,11.13-11.32,6.9-23.68,8.71-36.67,6.53-2.26-.38-4.4-1.51-6.8-.96-1.49,1.85-.69,4-.79,6-.31,6.66-2.2,12.79-6.29,18.07-5.89,7.6-13.56,10.8-23.23,9.31-5.44-.83-10.32-3.24-15.24-4.89-1.95,1.11-1.44,2.85-1.72,4.25-3.28,16.43-16.36,29.66-35.73,29.75-6.21,.03-12.43-.31-18.64-.54-6.24-.23-12.43-.1-18.46,1.82-15.87,5.04-24.99,15.93-27.93,32.19-.34,1.9-.51,3.83-.94,7.09-1.73-4.21-2.04-7.25-1.97-10.36,.63-28.92,20.2-45.41,41.4-49.16,4.58-.81,9.24-1.15,13.86-1.76,1.2-.16,2.65,.12,3.39-1.91-8.65-3.72-16.91,.05-25.73,1.32,2.36-1.39,4.29-2.53,6.28-3.7-.51-1.14-.9-2.01-1.38-3.05,3.16-5.16,7.64-8.86,13.29-11.3,5.64-2.43,11.67-1.55,17.37-2.08,.64-1.68-.28-2-1.28-2.37-1.73-.64-4.35,.81-5.14-2.28-.08-.33-1.89-.38-2.87-.3-1.95,.17-3.78,1.95-6.06,.29,5.02-3.74,11.11-4.21,16.62-6.02,.14-.84,.25-1.53,.39-2.36,7.66-2.38,15.71-2.73,23.77-3.66-.27-2.13-2.1-2.05-3.32-2.28-8.01-1.53-15.98-1.4-23.8,1.16-2.46,.81-4.88,1.72-7.32,2.59-.53-.68-1.07-1.35-1.6-2.03,10.36-7.03,22.12-8.01,35.96-7.26-8.55-3.23-15.41-2.85-22.38-1.82-7.98,1.18-14.53,5.09-20.58,10.08-1.59,1.31-3.92,2.19-4.18,4.69,1.74,1.03,2.77-.2,3.97-.37,.32,.4,.65,.79,.97,1.19-2.4,1.91-4.84,3.78-7.19,5.74-.95,.79-2.02,1.61-1.98,3.08-.01-.01-.04-.19-.04-.19Zm69.78-66.56c-.3-.29-.6-.59-.9-.88,2.11-3.92,7.49-4.16,9.86-8.33-1.18-.27-1.92-.61-2.63-.56-1.26,.09-2.61,.19-3.74,.71-3.97,1.81-7.9,3.72-11.77,5.73-2.1,1.09-3.64,2.64-4,5.28-.42,3.16-2.57,5.51-4.37,8.03-1.47,2.07-3.96,3.34-4.74,5.99,1.21,.91,2.38,.53,3.6,.16,3.38-1.01,6.46-3.17,10.24-2.63,0,.45,.12,1.24-.03,1.3-4.58,1.83-9.3,3.15-14.26,2.39-1.69-.26-2.94,.02-4.36,.77-6.4,3.37-12.75,6.84-19.28,9.94-15.7,7.44-27.46,19.12-36.75,33.54-.51,.79-1.3,1.68-.22,2.87,.98,.37,1.75-.28,2.42-.98,1.79-1.86,3.55-3.75,5.3-5.66,20.74-22.62,47.47-34.38,76.52-41.39,10.22-2.47,20.75-3.86,31.05-6.18,2.92-.66,6.12-.81,8.84-3.15-3.21,0-6-.16-8.7,1.19-1.32,.66-3,.88-4.51,.83-3.45-.11-6.63,.95-9.87,1.8-2.74,.71-5.46,1.51-8.18,2.28-.48-.65-.96-1.3-1.43-1.95,2.7-1.48,5.39-2.96,8.01-4.39-.26-1.4-.98-2.35-2.07-2.04-1.19,.34-2.22,1.25-3.29,1.96-5.19,3.47-10.76,6.11-16.74,7.93-1.09,.33-1.99,.13-2.64-.86,.47-2.18,2.58-2.33,4.08-3.02,5.95-2.76,8.26-9.58,14.05-12.48,.25-.12,.18-.87,.26-1.33-.2-.16-.4-.44-.61-.45-3.53-.06-5.87,2.93-9.13,3.6Zm17.85,25.54c9.31-3.63,19.11-2.42,28.64-3.74-3.62-.47-7.23-.68-10.83-.68-9.88,0-19.61,1.54-29.29,3.29-12.76,2.3-25.29,5.56-37.31,10.52-1.55,.64-3.54,.76-4.15,3.39,15.86-4.07,31.44-3.78,46.9,1.64,.67-1.35,1.07-2.27,1.55-3.13,3.41-6.06,6.89-7.31,13.5-4.9,2.43,.89,4.84,1.87,7.32,2.61,7.37,2.19,14.79,2.6,22.15,0,.96-.34,2.53-.39,2.56-2.05-1.37-1.32-3-.8-4.5-.93-3.87-.33-7.74-.59-11.6-.95-.37-.03-.69-.58-1.06-.91,.92-.56,1.73-1.06,2.58-1.58-.46-.52-.72-1.1-1.09-1.18-8.38-1.95-16.93-.3-25.38-1.39Zm-88.22,58.64c3.55-.38,6.82-.86,10.11-1.04,3.16-.17,6.34-.04,10.15-.04-6.74-4.75-14.07-5.13-19.7-1.33-.42,.29-.33,1.34-.56,2.41Zm.6-.57c-.23-.4-.42-1.14-.73-1.19-1.03-.19-1.97,.24-2.43,1.2-.11,.24,.39,1.09,.71,1.16,1.01,.19,1.89-.22,2.45-1.16Z"/>
      <path class="cls-1" d="M66.41,443.96c.48,2.26,.96,4.52,1.63,7.67-3.04-6.03-5.71-11.3-8.73-17.29-.96,2.53-2.21,4.36-2.2,6.18,.02,1.94,1.12,3.92,1.94,5.8,3.56,8.09,8.26,15.56,12.95,23.02,4.42,7.03,8.5,14.23,11.62,21.96,4.56,11.34,7.73,23.08,10.29,35,.75,3.48,2.42,6.9-.14,10.28,2.19,.69,3.14-.46,2.6-1.17-4.48-5.89-5.85-13.12-8.51-19.75-6.31-15.76-14.12-30.57-25.15-43.57-2.51-2.96-4.8-6.12-7.1-9.26-9.28-12.68-13.65-27.21-15.9-42.53-.83-5.64-1.5-11.31-2.55-16.91-1.77-9.41-.32-18.04,5.46-25.81,.59-.79,1.41-1.54,1.12-2.83-.85-1.82-2.95-1.72-4.49-2.51-2.53-1.29-5.26-2.21-7.76-3.56-7.08-3.81-11.1-9.83-12.59-17.71-1.43-7.57-.51-14.94,1.56-21.84-.11-1.57-.95-2.19-1.77-2.82-5.79-4.41-8.07-10.59-8.81-17.53-.14-1.29-.24-2.59-.24-3.88,0-11.02-2.14-21.62-6.02-31.91-.91-2.42-1.58-4.93-2.44-7.38C.38,263.39,0,261.11,0,258.76c0-6.34,3.78-11.22,9.97-11.89,11.61-1.25,22.78,.43,32.89,6.69,4.47,2.77,8.1,6.45,10.56,11.18,.7,1.35,1.43,2.69,1.92,3.62,2.21,.77,3.56-.23,5.03-.6,10.8-2.69,19.41,.7,25.42,10.09,2.24,3.5,4.03,7.25,5.12,11.29,.6,2.24,1.19,4.48,1.77,6.64,1.58,.29,2.6-.55,3.69-1.14,6.29-3.42,12.49-2.65,18.6,.43,6.78,3.42,11.38,8.89,14.26,15.83,3.34,8.04,4.54,16.51,4.22,25.13-.36,9.62-2.14,19.03-5.04,28.24-3.91,12.38-8.92,24.33-13.74,36.35-6.18,15.44-11.36,31.14-13.79,47.68-2.57,17.53-3.24,35.09-1.43,52.73,.24,2.32,.27,4.66,.55,6.98,.23,1.99-.9,4.02,.31,6.58,1.26-2.86-1.29-3.97-1.67-5.78-2.22-10.41-4.05-20.85-4.82-31.47-1.98-27.15,1.21-53.82,7.17-80.26,2.73-12.13,6.22-24.1,7.62-36.51,.14-1.27,.12-2.57,.17-3.85,.52-1.19,.76-2.37-.05-3.55-.38,.26-.84,.44-1.1,.78-.29,.38-.39,.9-.57,1.37-2.47,4.69-2.79,9.93-3.76,14.99-.88,4.54-1.65,9.09-4.34,13.18,1.3-10.78,2.61-21.56,3.95-32.74q-2.46,3.75-3.34,9.69c-.47,3.2-.88,6.41-1.41,10.37-2.98-3.27-2.86-6.81-3.66-9.93-.75-2.9-.85-5.97-1.92-8.98-.15,2.76-.31,5.52-.55,9.93-2.78-7.92-3.42-14.66-4.69-21.34-1.12,1.44-1.53,3.19-1.78,7.24-.46-.18-.91-.36-1.37-.54-1.25-3.93-2.7-7.81-3.69-11.81-.76-3.07-1.94-5.8-3.72-8.41-3.4-4.98-5.34-10.57-6.28-16.52-.48-3.06-1.05-6.11-1.65-9.15-.46-2.3-1.25-4.49-2.9-6.24-.97-1.03-2.09-1.46-3.52-.12,.06,3.02,1.93,5.66,2.66,8.62,.81,3.32,2.79,6.45,1.87,11.01-6.32-13.2-14.35-24.26-22.14-35.46-.4-.82-.75-1.7-2.1-1.94-.38,1.16-.23,2.24,.39,3.31,1.13,5.4,3.61,10.15,6.68,14.69,4.63,6.85,9.3,13.68,13.5,20.79,6.44,10.88,12.49,22,18.71,33.01,1.42,3.82,2.87,7.64,4.24,11.47,3.62,10.12,3.98,20.45,1.96,30.93,1.51-20.13-12.58-50.42-28.49-64.81-1.4,.63-.68,2.3-1.55,3.23-.26,.28-.29,1-.13,1.41,.37,.95,.99,1.8,1.39,2.74,.42,.98,1.88,1.71,.91,3.09-1.67,.17-2.3-1.15-3.19-2-3.94-3.74-7.8-7.56-11.76-11.26-1.1-1.03-2.41-1.89-3.73-2.62-.9-.5-1.24,.5-1.64,1.07,1.34-.36,1.68-1.38,.86-2.21-3.09-3.09-6.34-6.04-9.56-9.07-.88,.73-1.43,1.25-2.05,1.68-.16,.11-.5-.03-1.08-.08-2.06-1.25-.86-4.94-4.07-6.13-.58,5.14,.14,9.64,3.61,13.59,2.04-.22,3.83-.62,5.6-.54,2.55,.11,5.26,.15,6.9,2.71,1.98,1.05,2.82,3.01,3.65,4.88,.84,1.88,1.53,3.86,2.07,5.85,1.88,6.84,5.88,11.99,11.98,15.59,2.67,1.58,5.23,3.36,7.78,5.13,2.56,1.78,4.95,3.77,6.86,6.26,2.4,3.12,4.3,6.45,3.83,11.49-1.96-4.02-3.82-7.14-7.07-9.2-5.06-3.22-15.82-5.96-23.26-5.61,2.27,2.39,5.1,3.02,7.72,3.95,3.89,1.38,7.71,2.9,11.22,5.11,0,0-.18-.23-.18-.23-6.52-1.56-13.02-3.15-19.56-4.65-1.35-.31-2.85-1.36-4.1,.14-.08,1.93,1.42,2.66,2.53,3.7,.93,.87,1.97,1.69,2.65,2.74,2.36,3.66,2.36,3.86,5.22,2.94,8.32-2.68,15.14-.19,21.24,5.61,5.29,5.03,9.62,10.73,13.18,17.07,1.27,4.19,2.57,8.37,3.81,12.57,.95,3.21,1.57,6.47,.93,11.22-3.73-6.9-5.02-13.57-8.88-18.95-.43,.15-.61-1.38-1.17-.13,.46-.02,.93-.05,1.39-.07-1.24,2.39,.01,4.51,.71,6.7,2.82,8.88,5.6,17.76,7.2,26.97,.94,5.4,1.04,10.81,.7,16.25-.11,1.8-.17,3.64-1.6,5.04-.17,.17-.22,.46-.32,.69,.12,.03,.23,.05,.46,.1,.03-7.76-.6-15.38-3.17-22.73-2.34,.54-.66,3.24-2.96,3.7-1.86-7.88-3.83-15.83-8.39-22.68-1.83,.45-1.43,1.64-1.38,2.58,.29,6.28,2.31,12.19,4.13,18.11,2.89,9.42,5.41,18.91,6.29,28.76,.43,4.88,.59,9.78,.9,15.21q-2.56-2.83-3.18-5.05c-2.85-10.29-6.89-20.04-13.13-28.78-.24-.42-.42-.88-.73-1.24-.3-.35-.77-.86-1.09-.81-.77,.13-1.02,.82-.82,1.55,.19,.69,.49,1.35,.74,2.02Zm-9.31-15.62c.93,.35,.92,.81,.13,1.3-.14,.09-.54,.06-.6-.04-.43-.75-.31-1.23,.69-1.16,.1,.74-.32,1.12-.85,.67-.61-.51-.71-1.47,.18-1.79,.59-.21,.85,.4,.45,1.02Zm30.22-93.96c.66-1.49,.65-2.93-.16-4.3-.19-.33-.88-.64-1.21-.53-.35,.11-.76,.7-.78,1.11-.09,1.57,.39,2.92,2.15,3.73Z"/>
      <path class="cls-1" d="M192.67,311.43c1.76-.21,2.51-1.71,3.55-2.81,21.05-22.27,46.96-34.42,77.36-37.03,12.64-1.09,25.31-1.84,37.97-2.71,5.7-.39,11.33-1.24,16.88-2.5,1.4-.32,3.21-.35,3.55-2.6-3.5-1.83-6.99,.32-10.49,.32-3.61,0-7.24,.13-10.81,1.1,8.75-4.15,18.65-4.16,27.93-8.24-17.21,1.92-33.38,6.58-49.99,9.62,.81-1.83,2.38-2.04,3.83-2.54,11.76-4.01,23.5-8.08,35.26-12.1,1.51-.52,3.02-.92,3.05-2.93,.65-.4,1.25-.96,.67-1.68-.55-.68-1.3-.25-1.94,.12-4.46,1.21-8.31,4.24-13.12,4.44l.09-.12c-.31-.74-.79-1.27-1.67-1.07-.56,.13-.58,.56-.11,1.11l.29,.33c-.37-.6-.68-1.45-1.6-.98-2.67,1.37-5.31,2.81-7.96,4.23-3.28,1.76-6.47,3.79-10.19,4.24-.54-1.08-.41-1.76,.06-2.39,.41-.23,.85-.41,1.22-.7,.49-.39,1.25-.8,.55-1.55-.24-.25-.87-.33-1.23-.21-.64,.22-1.21,.65-1.81,1-6.28,2.11-12.56,4.21-19.09,6.4-.08-.9-.14-1.58-.21-2.27,.97-.7,1.98-1.35,2.91-2.11,1.3-1.07,1.55-2.38,.59-3.83,.35,.1,.7,.19,1.05,.28-.55,.33-.87,.2-.98-.39-.85,2.37-3.64,2.52-4.97,4.34-4.6,2.33-9.14,4.77-13.82,6.93-2.74,1.26-5.37,2.96-8.51,3.17-.66-.88,.43-1.35,.46-2.06,8.4-4.06,16.54-8.58,23.97-14.26,.92-.7,2.14-1.33,1.85-3.95-9.45,5.52-18.44,10.89-27,16.98-3.56,2.11-7.11,4.24-10.69,6.32-1.08,.63-2.21,1.39-3.56,.51-.29-2.18,1.54-3.1,2.69-4.29,5.95-6.13,12.03-12.15,18.02-18.25,1.99-2.03,3.89-4.16,5.75-6.31,.61-.71,1.32-1.59,.49-2.62-1.1-.96-2.04-.18-2.77,.38-4.53,3.45-9.13,6.82-13.46,10.51-14.4,12.28-28.14,25.25-41.14,39.02-1.91,2.02-3.46,4.66-6.7,4.91l-.08,.32c5.46-8.18,10.89-16.37,16.37-24.53,8.24-12.27,16.79-24.3,26.77-35.25,7.35-8.08,15.34-15.41,24.55-21.36,6.21-4.01,12.97-6.4,20.28-7.3,14.01-1.73,26.2,4.37,33.27,16.63,.51,.88,1.04,1.75,1.38,2.32,1.79,.94,2.79-.14,3.88-.69,5.83-2.94,11.5-2.39,17.09,.65,3.41,1.85,6.75,3.84,10.25,5.51,3.67,1.75,7.47,1.88,11.27,.15,2.41-1.09,4.5-2.6,6.2-4.57,1.69-1.95,3.25-4.03,4.82-6.09,4.16-5.45,8.42-6.94,14.08-4.88,5.98,2.17,9.95,7.7,9.28,13.75-.71,6.41-1.12,12.91-3.43,19.07-3,8-5.72,16.11-8.81,24.08-1.49,3.85-3.31,7.61-5.38,11.18-5.81,10.01-14.13,17.09-25.23,20.71-1.47,.48-2.92,1.02-4.2,1.47-1.53,1.43-.87,3.06-.84,4.55,.07,2.99-1.05,5.55-2.57,8.01-11.31,18.29-34.33,26.66-55.35,13.76-6.18-3.79-12.14-7.94-18.41-11.58-12.26-7.13-25.54-9.79-39.62-8.04-7.46,.93-14.81,2.49-21.87,5.15-6.78,2.55-13.46,5.36-20.23,7.93-2.14,.81-4.08,2.39-6.59,1.99l-.46-.53c.87-.92,1.62-2.01,2.62-2.75,17.91-13.24,37.83-21.28,60.12-22.98,12.06-.92,23.69,1.47,35.16,5.03,2.89,.9,5.61,2.69,9.91,2.36-8.09-5.18-16.18-7.57-24.5-9.17-19.84-3.82-39.18-1.83-57.98,5.47-4.82,1.87-9.55,3.96-14.31,5.98-1.26,.54-2.46,.72-3.65-.1l-.02,.03Zm88.51-63.72c-.6-.84-.73,.72-.57-.31,.1-.62,.37-.75,.91-.45,.91,.5-.36-.44-.2,.56-.64,.21-.76-.23-.35-.23,1.02-.01-.19-.53,.2,.43Zm77.55,24.82c-1.47-.76-2.99-.69-4.52-.24-15.52,4.54-31.46,5.64-47.53,6.29-19.09,.78-38.2,1.49-56.98,5.86-13.48,3.14-26.19,7.86-37.98,15.11-1.73,1.06-3.19,2.7-5.41,2.79,.11,.49,.2,.98,.35,1.46,.02,.06,.44,.1,.46,.05,.47-.93-.52-1.03-.89-1.48,2.7,1.84,4.92,.01,7.23-.96,18.13-7.6,36.94-9.45,56.31-6.79,3.23,.44,6.46,1.32,10.56,.69-5.68-4.91-12.75-3.69-17.51-5.95-1.39-1.47-.15-1.91-.43-2.65-1.05-.73-3.03,.39-3.64-1.6,.62-.26,1.06-.58,1.51-.61,14.1-.78,27.89,.87,41.26,5.56,1.95,.69,4.02,1.15,5.83,2.1,2.71,1.42,4.16-1.56,6.42-1.52,1.55,.03,3.11,.05,4.65-.03,1.13-.06,2.43,.47,3.45-.87-6.59-3.07-14.23-1.32-22.29-5.28,10.99-.19,20.26-.3,29.54,.76,6.69,.77,13.38,1.37,20.13,.73,2.44-.23,4.79-.49,6.59-2.38-.92-.26-2.09,.07-2.64-1.11,.1-1.89,2.81-1.64,2.94-3.72-2.51,.7-4.94,1.58-7.43,2.03-2.47,.45-4.95,1.77-7.53,.4l.12,.15c.61-2.15,2.74-2.08,4.26-2.69,4.5-1.78,8.91-3.72,12.96-6.37,.12-.18,.21-.4,.36-.54,.55-.54,.46-.77-.14-.44-.18,.1-.02,.81-.02,1.24Zm-59.47,23.52q-3.83-2.51-7.62-2.82,4.64,3.42,7.62,2.82Zm38.01-32.61c-1.26-1.46-2.5-1.15-3.76-.01,1.25,1.72,2.49,.8,3.76,.01Z"/>
      <path class="cls-1" d="M195.05,170.66c-.15,5.28,.04,10.61-2.39,17.1-.83-7.78-2.81-13.57-8.27-19.01,1.34,6.8,4.86,11.94,4.47,19.06-3.68-3.97-5.16-8.26-7.78-11.72,.37,.55,.3,.67-.2,.38,.17-.09,.34-.19,.51-.28-.44,1.81-.29,3.56,.26,5.35,7.03,22.91,7.86,46.34,5.97,70.04-1.74,21.91-6.95,42.92-15.86,63-4.21,9.49-9.19,18.57-15.08,27.13-.56,.81-.91,1.93-2.25,1.9-.93-1.68,.38-2.84,1.02-4.13,7.07-14.45,13.45-29.17,17.83-44.69,4.01-14.21,6.74-28.61,7.88-43.39,.9-11.69,1.04-23.28-.12-34.92-1.09-10.89-3.48-21.47-7.74-31.59-3.25-7.72-7.63-14.71-13.37-20.82-.53-.56-1.08-1.12-1.7-1.59-.37-.28-.88-.37-1.34-.55-1.07,1.7,.31,2.97,.92,4.26,1.32,2.81,2.96,5.46,4.31,8.26,.51,1.06-.15,1.95-1.26,2.38-3.53-4.01-7.05-8.03-10.59-12.04-.75-.85-1.26-2.28-3.18-1.16,.44,3.15,.9,6.41,1.35,9.67,4.11,1.56,7.92,3.01,11.73,4.45,6.02,3.71,9.47,9.29,11.37,15.91,1.55,5.43,3.11,10.87,4.28,16.4,.83,3.95,1.65,8.09-.9,11.88-1.38-12.14-5.17-19.27-13.14-24.66-.15,.21-.48,.48-.43,.62,3.04,8.23,7.53,15.74,11.85,23.32,.43,.75,1.16,.83,1.94,.53-.9,1.82-.3,3.53,.41,5.23,4.68,11.11,5,22.54,3.07,34.3-.87,5.34-.86,10.82-2.17,16.12-.49,1.99-.86,4-3.22,5.63-1.1-7.33,1.76-15.07-3.93-22.4-.3,5.74,1.53,10.38,.71,15.31-2.77-1.05-2.86-3.6-3.84-5.52-.92-1.81-.99-4.06-2.9-5.53-1.3,.94-.51,2.14-.3,3.16,.48,2.28,1.01,4.56,1.69,6.79,4.49,14.83,1.2,28.68-5.22,42.14-.18,.37-.77,.55-1.2,.83-1.15-1.03-.56-2.31-.39-3.45,.31-2.05,.93-4.05,1.18-6.1,.25-2.05,.75-4.34,.08-6.13-.52-1.41-2.66-2.21-4.5-3.61-.08,6.97,.15,13.81-.34,20.61-.5,6.97-1.84,13.86-3.94,20.58-2.08,6.66-4.36,13.21-8.05,19.45-1.31-1.01-.37-1.83-.25-2.53,.16-1.01,.52-2,.83-2.99,4.01-13.04,5.6-26.29,4.06-39.92-.68-5.99-2.18-11.71-4.31-17.29-2.03-5.33-4.29-10.57-6.25-15.92-1.96-5.36-3.58-10.82-3.79-16.6-.41-10.81,3.48-19.21,13.36-24.34,.87-.45,1.99-.65,2.21-2.05,0-1.34-1.33-1.24-2.18-1.56-8.87-3.45-14.23-10.23-17.26-18.88-2.34-6.69-2.74-13.67-1.55-20.73,1.18-6.97,4.34-12.68,10.01-16.96,1.03-.77,2.03-1.58,3.45-2.7-1.06-7.52-2.04-15.16-4.76-22.47-1.2-3.23-3.43-5.72-5.6-8.32-3.69-4.45-2.9-8.54,2.11-11.66,5.02-3.12,10.56-4.2,16.4-3.39,10.56,1.47,19.96,5.37,27.44,13.25,.53,.56,1.16,1.02,1.94,1.69,1.4-.12,2.93-.21,4.46-.39,6.94-.81,12.8,1.53,17.64,6.35,9.06,9.02,12.59,20,10.93,32.63-.4,3.04-1.19,6.03-1.74,8.71,.87,1.93,2.47,2.36,3.73,3.22,5.56,3.77,8.33,9.09,8.62,15.74,.22,5.21-.24,10.34-1.5,15.43-2.94,11.86-7.23,23.26-11.53,34.66-5.96,15.79-12.92,31.12-21.71,45.57-3.92,6.43-8.18,12.62-12.91,18.48-.89,1.1-1.59,2.68-3.48,2.46-.97-1.71,.23-3,.85-4.35,3.36-7.3,6.89-14.52,10.13-21.87,7.73-17.57,14.26-35.6,20.21-53.84,1.59-4.86,3.25-9.8,2.85-14.96-1.97-.81-2.64,.53-3.29,1.5-3.63,5.43-6.21,11.35-8.19,17.56-.85,2.68-1.79,5.33-2.56,7.58-1.08,.62-1.38,.4-1.36-.37,.26-10.9,.9-21.75,3.83-32.34,1.11-4.02,2.6-7.87,4.27-11.67,.86-1.95,.79-1.98-.03-5.87-1.96-.6-1.95,1.99-3.45,2.15-.29-.39-.79-.76-.82-1.16-.42-5.68,1.73-10.63,4.42-15.42,4.2-7.48,3.45-17.86-1.81-24.66-.12-.16-.49-.12-.74-.18,.45-.86,.03-1.36-.72-1.69-.06-.03-.43,.34-.43,.52,0,.8,.16,1.5,1.25,1.07Zm-47.54,47.52c-.05,1.03-.82,2.67,1.46,1.72-1,.73-1.18,1.74-.44,2.6,1.5,1.74,3.17,3.35,4.77,5.01,1.06,1.11,2.86,2.11,3.05,3.35,.66,4.41,3.51,5.16,7.17,5.33,4.46,.2,7.72,2.36,9.83,6.39,.78,1.49,1.53,3.25,4.08,3.9-2.77-10.95-7.76-20.12-15.94-27.79-1.87,2.8-1.31,5.07,.06,7.31-.6,.64-1.21,1.28-1.81,1.91-4.05-2.05-7.55-4.88-11.05-7.73-.4-.66-.79-1.33-1.19-1.99-.91,.5,.69,.81-.29,.45-.52-.19-.57-.44-.16-.79,.79-.67-.57,.15,.45,.32Zm11.11,79.75c1.12-2.88,1.02-4.75-.4-6.67-1.16,2.12-.71,4.02,.4,6.67Z"/>
      <path class="cls-1" d="M284.23,59.47c.96,2.12,2,4.21,2.85,6.37,1.21,3.06,.9,5.97-1.28,8.71-.42-8.74-1.09-9.77-7.24-10.55,.52,3.12,1.24,6.1,1.47,9.12,.22,2.83,.08,5.71-.2,8.54-.3,3.06-.94,6.09-1.43,9.14-2.08-.32-1.95-1.8-2.05-3.01-.31-3.67-1.22-7.15-3.15-10.32-.67-1.11-1.36-2.22-2.75-2.6-1.12,1.06-.62,2.33-.35,3.49,1.62,6.88,2.35,11.93,3.79,15.87,1.4,3.82,2.69,9.45,2.04,17.19-3.07-9.76-5.13-20.1-14.66-26.2-1.63,1.26-1.09,2.59-.6,3.66,2.23,4.97,4.51,9.91,6.89,14.8,4.42,9.08,6.37,18.59,5.32,28.68-.4,3.84-1.19,7.53-3.48,11.15-1.83-1.48-.88-3.01-.84-4.31,.04-1.55,.45-3.1,.44-4.64,0-1.81-.25-3.62-.46-5.42-.18-1.54-.39-3.1-.75-4.61-.35-1.51-.85-2.99-1.38-4.46-.53-1.46-1.13-2.9-1.79-4.31s-1.39-2.79-2.18-4.12c-.79-1.34-1.64-2.65-2.56-3.9-1.08-1.46-2.23-2.86-3.42-4.24-1.01-1.18-2.11-2.29-3.18-3.42-1.07-1.13-2.12-2.28-3.24-3.36-1.09-1.05-2.03-2.41-3.84-2.15-.96,1.26-.33,2.47,.18,3.63,1.78,4.05,4.03,7.83,6.65,11.4,1.84,2.51,3.73,4.98,5.56,7.5,4.32,5.96,6.23,12.47,4.32,19.85-1.28-.9-.83-2.31-1.04-3.47-.95-5.21-2.97-9.89-6.4-13.96-5.35-6.34-10.68-12.7-15.98-19.08-1.98-2.39-4-4.78-5.76-7.33-5.76-8.32-4.68-19.93,2.15-25.57,1.67-1.38,2.58-3.18,3.54-5.02,3.06-5.9,7.72-9.74,14.46-10.47,2.96-.32,5.37-1.82,7.98-2.9,5.93-2.45,11.75-1.55,17.39,.79,5.29,2.2,10.4,4.78,12.91,11.16-2.58-1.03-3.62-3.63-6.07-3.89-.42-.28-.81-.65-1.28-.8-.42-.14-1.02-.2-1.36,0-.77,.48-.64,1.25-.22,1.92,.26,.42,.66,.76,1,1.14Zm-38.04,34c-.18-.2-.33-.36-.48-.53-.17,.31-.39,.61-.48,.94-.03,.12,.27,.32,.42,.48,.18-.3,.36-.6,.53-.89Z"/>
      <path class="cls-1" d="M286.59,195.44c4.43-4.67,10.4-5.24,16.24-5.88,4.61-.5,9.25-.13,13.86,.56,5.55,.82,11.14,1.22,16.73,.51-16.55-4.2-33.09-6.32-49.51,.59-.31-.38-.62-.75-.93-1.13,5.81-4.28,12.55-6.09,19.52-6.98,5.38-.69,10.8-.92,16.27-.65,9.31,.46,18.65,.63,27.97,.51,7.48-.1,15.04-.28,21.95-3.94,1.34-.71,2.95-1,4.47-1.27,5.54-.98,10.14,2.51,9.92,8.02-.28,7.08-1.92,13.84-6.84,19.4-3.84,4.34-8.27,7.91-13.62,10.11-13.34,5.5-26.71,5.55-40.03-.16-.47-.2-.89-.53-1.29-.86-.17-.14-.22-.42-.35-.69,.21-1.54,1.5-1.06,2.32-.99,3.35,.28,6.69,.79,10.04,1.07,5.9,.49,11.81,.94,19.02-2.15-3.4,0-5.25-.06-7.11,0-16.4,.57-31.9-3.27-46.53-10.35-2.79-1.35-5.55,0-8-1.45,.74-2.14,3.9-1.69,4.26-4.32-2.68-1.2-4.95,.59-7.38,1.06-.33-.35-.66-.7-1-1.03Zm70.22,14.67c.07,.16,.14,.33,.22,.49-.17,.06-.36,.2-.49,.16-.11-.04-.21-.32-.17-.45,.04-.1,.29-.14,.44-.2Z"/>
      <path class="cls-1" d="M283.92,191.22c-1.24,2.28-4.66,2.24-5.41,5.05h.08c-.92-1.13-.97-2.28,.19-3.21,1.34-1.07,2.8-1.99,4.2-2.97,.31,.38,.62,.75,.93,1.13Z"/>
      <path class="cls-1" d="M174.15,417.77l-4.87,2.96c-.33-.39-.65-.79-.97-1.19,.95-1.8,2.56-2.76,4.41-3.41,.48,.54,.96,1.09,1.44,1.63Z"/>
      <path class="cls-1" d="M177.12,416.25c-.99,.51-1.98,1.01-2.97,1.52-.48-.54-.96-1.09-1.44-1.63,.94-.64,1.87-1.27,2.81-1.91,.53,.68,1.07,1.35,1.6,2.03Z"/>
      <path class="cls-1" d="M285.31,197.24c-.48-1.24,.34-1.56,1.28-1.8,.34,.33,.68,.67,1,1.03-.7,.63-1.47,.97-2.42,.65,0,0,.14,.12,.14,.12Z"/>
      <path class="cls-1" d="M316.39,251.86c-.35-.27-.71-.78-1.05-.77-.62,0-.74,.49-.36,1.03,0,0-.28-.33-.28-.33,.59-.01,1.19-.03,1.78-.04l-.09,.12Z"/>
      <path class="cls-1" d="M234.78,272.13c.23,.23,.42,.41,.6,.59-.19,.18-.38,.5-.56,.5-.19,0-.5-.32-.51-.51,0-.19,.3-.39,.47-.58Z"/>
      <path class="cls-1" d="M198.89,295.17c.55,.88-.67,.71,.31,.45,.41-.11,.18-.56-.38-.14,0,.02,.07-.3,.07-.3Z"/>
      <path class="cls-1" d="M405.78,26.81c-.65,.03-1.56,.35-1.9,.04-.7-.64,.13-1.05,.62-1.43,.42,.46,.85,.92,1.27,1.38Z"/>
      <path class="cls-1" d="M239.35,375.84c-1.35,.54-2.69,1.25-4.06,.04,.26-1.5,1.59-1.55,2.63-1.99,.48,.65,.96,1.3,1.43,1.95Z"/>
      <path class="cls-1" d="M229.84,362.8c-.51,.78-1.2,1.18-2.16,.99l-.32-.39c.09-.96,.7-1.36,1.57-1.48,.3,.29,.6,.59,.9,.88Z"/>
      <path class="cls-1" d="M64.97,365.6c-.12-.07-.24-.13-.37-.2,.2,.39,.25,.37,.16-.05,.02,.01,.2,.25,.2,.25Z"/>
      <path class="cls-1" d="M341.18,281.19c-.36,1.87-1.55,1.32-2.83,.94,.79-1.34,1.8-1.31,2.95-.79,0,0-.12-.15-.12-.15Z"/>
      <path class="cls-1" d="M163.91,229.85c-1.87,.4-2.94-.93-4.17-1.93,.6-.64,1.21-1.28,1.81-1.91,1.17,1.1,3.18,1.74,2.22,4.02l.13-.17Z"/>
    </g>
  </g>
</svg>