<?xml version="1.0" encoding="UTF-8"?>
<svg id="Layer_2" data-name="Layer 2" xmlns="http://www.w3.org/2000/svg" viewBox="0 0 317.87 482.46">
  <defs>
    <style>
      .cls-1 {
        fill: #c5a994;
      }
    </style>
  </defs>
  <g id="Layer_1-2" data-name="Layer 1">
    <g>
      <path class="cls-1" d="M57.31,251.73c-2.69-6.42-6.03-12.56-7.34-19.55-6.14-32.76,13.73-57.14,40.46-64.11,.62-.16,1.35,.12,2.99,.31-3.11,1.49-5.41,2.55-7.68,3.69-10.02,5.03-17.99,12.27-23.06,22.33-5.58,11.06-5.94,22.39-.65,33.73,1.78,3.81,4.28,7.1,7.73,9.58,.84,.61,1.72,1.2,2.99,.45,.59-.67,.5-1.69,.46-2.71-.84-21.48,16.36-31.83,30.18-33.39,14.39-1.62,25.93,3.33,34.23,15.39,2.21,3.21,4.17,6.55,5.59,10.2,3.91,10,3.41,19.76-1.37,29.34-2.94,5.9-7.17,10.77-12.04,15.12-4.67,4.17-9.84,7.65-15.52,10.26-11.55,5.32-23.47,10.04-35.9,12.34-40.53,7.52-72.72-17.97-77.68-55.96-1.4-10.71-.58-21.18,1.56-31.67,2.14-10.48,5.75-20.44,10.32-30.06,9.99-21.06,27.03-33.6,48.93-40.06,1.67-.49,3.22-1.88,5.05-1.19-24.4,11.04-42.98,28.24-53.59,53.35-7.61,18.02-9.22,36.58-3.77,55.51,3.09,10.73,8.73,19.89,17.48,26.98,1.16,.94,2.29,2.12,4,1.82,1.16-.89,.58-1.8,.03-2.63-.71-1.08-1.52-2.1-2.27-3.15-12.71-17.66-15.29-36.99-9.39-57.67,3.1-10.86,8.39-20.65,15.34-29.48,15.9-20.23,35.88-34.61,61.34-39.7,29.15-5.83,54.44,1.9,74.55,24.34,12.23,13.64,19.49,29.9,23.53,47.61,5.68,24.85,4.54,49.4-3.8,73.58-5.52,16.02-13.04,31.04-21.98,45.39-9.48,15.21-20.24,29.49-31.26,43.59-9.9,12.66-19.8,25.33-29.66,38.03-28.93,37.23-40.19,69.58-41.09,69.14-.78-.38,8.31-24.43,24.79-52.21,6.66-11.21,15.2-24.21,33.5-48.67,10.41-13.91,20.8-27.83,30.24-42.43,10.17-15.7,19.15-32.02,25.59-49.66,5.2-14.24,8.49-28.91,8.81-44.04,.56-26.7-7.24-50.65-25.4-70.65-11.52-12.7-25.71-20.77-42.82-23.31-9.65-1.43-19.15-.62-28.44,2.2-25.39,7.69-44.35,23.14-55.66,47.33-4.81,10.28-6.85,21.19-4.4,32.57,.16,.73,.54,1.42,.81,2.12,2.36-.56,1.5-2.47,1.58-3.76,.35-5.48,1.16-10.8,3.7-15.77,.86-1.67,1.69-3.2,3.7-3.62,0,0,.07,0,.07,0-4.18,6.22-4.38,13.03-2.49,19.93,2.52,9.19,8.28,15.88,16.72,20.26,.66,.41,1.35,.85,1.9-.06,.06-.1-.6-.63-.92-.97Zm-22.32-11.95c-.16-.42-.33-.85-.49-1.27-.18,.16-.53,.35-.51,.47,.09,.44,.3,.86,.47,1.28,.18-.16,.35-.32,.53-.49Zm-2.34,34.34c-.09,.16-.29,.36-.25,.48,.07,.21,.36,.54,.44,.51,.62-.25,.72-.62,.3-.95-.11-.08-.32-.03-.49-.04Z"/>
      <path class="cls-1" d="M249.71,204.37c-2.04-1.26-3.82-.61-5.72,.54-8.84,5.37-16.97,11.57-23.75,19.46-1.32,1.54-2.25,3.47-4.19,4.42-.39-.36-.78-.71-1.17-1.07,2.28-7.93,6.86-14.82,10.17-22.02-1.1-1.69-2.53-.82-3.7-1.09q.75-2.79,2.37-2.6c.11,1.43-1.97,3.18,.62,4.28,1.56-1.38,3.41-2.63,2.11-5.29-1.2,.52-2.11,.92-3.02,1.32-1.14-.73-.8-1.64-.29-2.56,2.4-4.29,5.69-7.87,9.01-11.42,3.67-3.92,7.42-7.77,11.13-11.66,1.23-1.29,1.4-2.64,.08-3.97,1.01,1.94,1.4,1.94,3.17-.03,.89-.72,1.19-2.24,2.76-1.95-1.03-.18-.26,1.1-.62,.13-.06-.17-.03-.54,.02-.55,.62-.14,.78,.09,.45,.61,.14,.81,1.31,1.52,0,2.47-1.29,.93-1.64-.39-2.41-.73-1.13,.06-2.27,.12-3.4,.18-1.18,2.51-3.67,3.58-5.75,4.99-17.57,11.85-27.1,28.73-30.94,49.2-.71,3.81-1.31,7.65-1.78,11.5-.32,2.59-.88,5.08-2.28,8.4-.92-5.25-.64-9.72-.55-14.14,.24-10.88,.89-21.71,4.05-32.24,1.89-6.3,4.74-11.97,9.17-16.88,5.89-6.54,11.68-13.16,17.41-19.84,1.83-2.13,4.09-3.99,4.98-6.82,.7-.18,1.41-.37,2.11-.55,.08-1.28,.51-2.34,1.79-2.85-1.03,.21,.21,1.07-.52,.34-.12-.12-.24-.47-.2-.49,.49-.36,.72-.22,.64,.4,.47,1.59-.31,2.33-1.77,2.61-.8-.89-1.69-1.34-2.83-.6-6.63,4.32-11.51,10.51-17.06,15.99-.69-.63-1.38-1.26-2.07-1.88,.74-1.29,1.41-2.61,2.22-3.85,.93-1.42,.82-2.76-.05-4.13,.29,.34,.57,.7,.89,1.02,.05,.05,.26-.05,.39-.08-.43-.31-.85-.62-1.28-.93-.24,1.35-.85,2.36-2.36,2.57,.25-3.7,.22-3.72,4.82-9.57,2.39-3.03,4.91-5.96,7.33-8.89-1.16-1.52-1.98-.41-2.65,.07-5.38,3.83-9.27,8.97-12.64,14.56-4.29,7.12-7.52,14.76-10.91,22.32-1.12,2.5-1.84,5.26-3.55,7.15-1.65,.13-1.64-.9-1.65-1.54-.23-14.44,2.31-28.36,8.15-41.6,2.53-5.74,6.2-10.77,10.32-15.45,6.33-7.19,13.3-13.82,19.04-21.54,.75-1.01,1.77-1.98,2.88-2.55,2.33-1.21,3.41-2.98,3.51-5.56,.04-1,.38-2.04,.82-2.95,1.38-2.88,4.57-3.68,7.17-1.8,1.04,.75,1.91,1.74,2.88,2.6,3.84,3.45,7.42,7.16,11.36,10.53,5.98,5.12,8.96,11.98,8.89,19.94-.03,3.32-.45,6.63-.69,9.83,1.66,1.51,3.05,.13,4.43-.16,11.03-2.27,17.75,2.85,18.16,13.94,.05,1.28,0,2.56,0,3.37,1.47,2.16,3.45,2.1,5.09,2.72,7.48,2.86,10.57,7.47,9.95,15.57-.9,11.8-5.66,21.98-13.58,30.69-7.27,8.01-16.04,13.87-26.11,17.76-3.62,1.4-7.3,2.7-11.04,3.69-14.97,3.95-26.25,13.07-35.47,25.09-4.43,5.77-8.1,12.03-11.57,18.4-5.08,9.33-10.07,18.7-15.25,27.97-1.06,1.89-1.55,4.39-4.02,5.26-.6-.81-.2-1.53,.09-2.23,4.77-11.47,9.45-22.99,14.38-34.39,2.67-6.17,5.58-12.26,8.73-18.2,4.14-7.82,9.34-14.91,15.79-21.06,1.41-1.35,3.44-2.37,3.55-5.12-3.02-.74-4.56,1.74-6.5,3.06-2.14,1.45-4.13,3.12-6.19,4.69-.42-.41-.83-.83-1.25-1.24,1.81-4.41,5.26-7.55,8.67-10.57,5.55-4.92,11.39-9.52,17.14-14.2,.54-.44,1.39-.51,2.09-.75-.66-.01,.27-1.68-1.05-1.01,.35,.34,.7,.68,1.06,1.02Zm-16.02-61.48c0,.69-.31,.89-.87,.51-.14-.09-.23-.46-.16-.62,.25-.55,.65-.6,1.09-.15-.97,.36,.46,.9-.44,.39-.14-.08-.32-.38-.31-.4,.41-.4,.65-.3,.68,.27Zm-3.02,55.6c2.03-2.12,4.07-4.24,6.1-6.37,1.8-1.23,3.76-2.3,5.3-5.12-3.02,1.02-4.88,2.07-6.08,4.1-2.93,1.09-4.93,3.29-6.73,5.72-.46,.61-1.04,1.16-1.34,1.84-.14,.3,.15,1.03,.46,1.22,.27,.17,.9-.05,1.25-.28,.42-.27,.71-.74,1.05-1.12Zm8.23,23.19c-.17-.31-.35-.63-.53-.95-.17,.16-.49,.37-.46,.49,.08,.35,.3,.66,.47,.99,.16-.17,.33-.33,.53-.53Zm5.86-35.9l-.34-.26-.08,.36,.42-.1Z"/>
      <path class="cls-1" d="M183.83,353.34c15.38-16.3,27.44-35.03,39.39-53.83,.77-1.21,2.16-2.34,1.34-4.29-2.23,.49-2.99,2.52-4.11,4.05-6.14,8.35-12.12,16.83-18.3,25.14-6.35,8.54-13.3,16.58-21.24,23.7-6.17,5.54-12.7,10.59-20.11,14.42-1.33-1.57,.29-1.93,.83-2.38,11.68-9.72,21.07-21.41,29.08-34.22,5.36-8.57,10.43-17.31,15.51-26.05,5.6-9.64,11.17-19.29,17.56-28.43,9.29-13.29,20.07-25.09,34.06-33.61,7.12-4.33,14.52-7.92,22.74-9.73,6.78-1.49,13.33-1.36,19.78,1.41,2.13,.91,4.43,1.4,6.63,2.15,6.65,2.26,11.39,9.29,10.82,16.29-.43,5.34-3.01,9.31-8.09,11.37-1.68,.68-3.45,1.12-5.17,1.69-7.26,2.4-12.65,7.06-15.94,13.92-1.79,3.72-3.19,7.64-4.54,11.55-2.46,7.1-4.67,14.28-7.16,21.37-3.84,10.96-9.54,20.69-18.9,27.94-.38,.3-.59,.83-1.03,1.5,.25,.79,.45,1.8,.88,2.7,2.66,5.61,1.31,10.57-2.33,15.2-5.82,7.4-13.53,11.94-22.32,14.83-7.67,2.52-15.61,3.95-23.59,4.62-39.59,3.29-71.19,21.9-97.68,50.48-2.99,3.23-5.78,6.64-8.67,9.96-.48-.48-.95-.95-1.43-1.43,1.63-3.87,4.38-7.01,6.82-10.33,19.68-26.81,45.56-45.77,75.57-59.36,5.63-2.55,11.7-4.16,17.61-6.06,5.92-1.9,11.87-3.72,17.46-6.49,4.64-2.3,9.17-4.82,11.98-9.18,.47-2.83-3.12-2.83-3.08-5.35,.2-1.4,1.54-1.67,2.73-2.04,2.47-.77,5.05-1.24,7.42-2.24,10.18-4.28,16.64-12.03,20.19-22.34,.22-.63-.13-1.45-.25-2.55-4.89,2.15-7.38,6.64-11.16,9.59-3.58,2.79-6.95,5.85-11.44,7.4,1.24-3.85,3.84-6.61,6.01-9.65,2.12-2.95,4.36-5.81,6.35-8.84,2.14-3.24,4.18-6.56,6.03-9.98,1.69-3.12,3.49-6.26,3.99-9.89-1.83-1.06-2.61,.17-3.31,1.04-3.08,3.84-6.1,7.73-9.08,11.65-5.81,7.63-11.47,15.38-17.42,22.9-4.34,5.48-8.95,10.76-14.45,15.16-.45-.47-.91-.94-1.36-1.4,3.8-5.84,7.63-11.66,11.38-17.54,1.11-1.74,2.04-3.6,2.98-5.43,.48-.94,.61-1.94-.23-2.83-2.31,.37-3.24,2.38-4.5,3.95-4.52,5.66-8.94,11.4-13.49,17.03-4.23,5.24-8.84,10.14-13.83,14.67-3.26,2.96-6.61,5.81-10.71,7.58l-.21,.2Zm47.56-66.71c-.88,.06-1.77,.13-2.65,.19-.07,1.69-.72,3.46,.75,4.92q-2.9-.89-3.27,1.69c1.09-.57,2.17-1.13,3.24-1.68-.27-1.64,.24-3.39-.73-4.92,.89,.13,1.86,.78,2.53-.42,.78-.53,1.55-1.05,2.33-1.58-.78-2.92-.63-3.26,1.46-3.37-.68-.78-.89,.7-.53-.27,.06-.16,.32-.42,.37-.39,.56,.29,.55,.54-.03,.71,1.27,.52,2.1,1.34,1.42,2.78-.55,1.16-1.55,.91-2.55,.51-.78,.61-1.56,1.22-2.34,1.83Zm27.2-2.27l.28-.5-.49-.03,.21,.53Zm-31.57,24.11c.19,.34,.36,.66,.54,.98,.16-.16,.48-.36,.45-.49-.08-.34-.3-.66-.46-.98-.17,.16-.34,.31-.53,.49Zm32.03-1.56c-.19-.17-.35-.32-.51-.47-.16,.31-.37,.62-.44,.95-.03,.12,.28,.31,.43,.47,.17-.31,.34-.62,.52-.95Z"/>
      <path class="cls-1" d="M106.06,440.3c10.25-15.8,23.97-27.77,40.51-36.6,2.51-1.34,5.04-2.67,7.63-3.86,16.55-7.61,33.69-13.48,51.72-16.3,13.65-2.13,27.38-2.16,40.97,.83,9.48,2.09,18.35,5.65,25.65,12.29,4.23,3.85,8.34,7.88,8.85,14.13,.16,1.93,1.63,3.17,2.58,4.7,4,6.41,3.64,11.18-1.38,16.99-12.89,14.92-32.16,19.59-48.55,13.88-5.38-1.87-10.84-3.52-16.27-5.23-.95-.3-1.96-.75-2.96-.06-.89,1.03-.09,1.86,.32,2.73,.67,1.4,1.49,2.75,2.03,4.19,3.34,8.91,.63,15.91-7.91,20.01-9.71,4.66-19.78,5.8-30.22,2.59-5.48-1.69-10.61-4.12-15.64-6.83-7.59-4.09-15.61-6.83-24.19-8.06-18.61-2.67-35.43,1.89-50.92,12.15-2.12,1.4-4.17,2.9-6.37,4.44-.85-1.93,.66-2.54,1.41-3.28,12.23-12.02,26.58-20.57,42.91-25.75,8.38-2.66,16.92-1.86,25.43-.86,5.15,.61,10.27,1.38,15.43,1.91,6.02,.62,11.89-.24,17.54-2.43,1.46-.56,2.81-1.28,4.17-3-11.32-3.31-22.54-3.97-33.87-3.29-.3-2.03,1.22-2.29,2.29-2.64,5.94-1.91,12.09-2.96,18.28-3.53,12.18-1.11,23.99-4.06,35.83-6.92,.96-.23,1.86-.8,2.75-1.28,.14-.08,.11-.48,.24-1.18-19.09-2.44-37.57-.56-55.51,6.82-.72-2.1,.98-2.21,1.81-2.73,10.03-6.29,21.12-9.73,32.67-11.84,4.58-.83,9.21-1.4,13.86-2.09-1.39-1.88-3.41-1.01-5.13-1.12-2.32-.16-4.66-.06-6.99,.07-2.07,.11-4.14,.3-6.18,.66-13.58,2.39-26.68,6.44-39.31,11.95-6.13,2.68-12.12,5.67-18.38,8.62-.4-1.83,.92-2.24,1.8-2.82,9.79-6.45,20.37-11.29,31.26-15.52,2.86-1.11,5.98-1.7,9-4.28-15.88,3.27-30.69,7.46-44.31,15.21-6.58,3.75-12.47,8.36-17.72,13.82-1.39,1.45-2.54,3.41-5.03,3.17l-.11,.31Z"/>
      <path class="cls-1" d="M233.43,59.67c-1.67,.54-2.44,1.95-3.32,3.21-6.03,8.67-9.64,18.3-11.23,28.71-.38,2.5-.53,5.06-2.08,7.89-3.33-8.93-2.12-17.34-.98-25.72-2.02-.06-2.46,1.21-2.96,2.32-3.87,8.61-6.22,17.57-6.37,27.06-.04,2.79-.23,5.58-1.16,8.42-.53-4.59-1.13-9.17-1.58-13.76-.49-4.95,.61-9.82,.86-14.73,.23-4.54,2.49-8.81,1.95-13.78-4.71,4.64-8.03,13.37-11.33,29.47-2.09,10.18-3.08,20.44-1.43,31.71-2.17-3.57-2.75-6.56-3.09-9.66-2.69-24.38,1.14-47.53,12.9-69.21,.61-1.12,1.06-2.34,1.53-3.53,.06-.16-.19-.45-.36-.83-1.78-.49-2.51,.96-3.35,2.06-7.17,9.4-12.14,19.87-15.03,31.33-3.33,13.24-3.73,26.67-2.4,40.18,1.09,11.1,2.78,22.12,5.1,33.03,.32,1.49,.81,3.03,.16,4.58-1.48,.71-1.68-.6-2.05-1.37-7.27-15.07-11.8-30.91-13.81-47.54-1.86-15.42-.91-30.59,3.42-45.45,7.56-25.94,22.84-45.68,47.49-57.54C232.83,2.42,241.79-.05,251.3,0c16.4,.08,28.89,7.38,37.52,21.13,11.4,18.17,3.91,43.47-11.82,54.07-9.02,6.07-18.37,6.41-27.85,1.01-5.27-3.01-9.49-7.16-12.79-12.26-.94-1.45-1.25-3.35-2.92-4.28Zm-21.95-21.84c-.34,1.61-1.83,2.93-1.16,4.78q-3.85-.14-5.15,4.14c2.78-.07,2.74-3.64,5.16-4.16,.41-1.52-.39-3.27,.9-4.56,.46-.27,.61-.13,.44,.4,0,0-.34-.03-.45-.12-.79-.67,.12,.55,.26-.47Zm-4.16,30.04c.16-.15,.43-.29,.44-.44,0-.15-.25-.32-.4-.48-.16,.22-.32,.45-.48,.67,.15,.08,.29,.17,.44,.25Z"/>
      <path class="cls-1" d="M118.67,113.96c2.86,6.88,8.06,11.33,14.88,13.9,5.57,2.1,11.27,3.83,16.84,5.93,7.77,2.93,13.9,7.92,17.97,15.26,.34,.62,.35,1.42,.81,3.41-7.95-9.89-18.08-13.38-28.78-15.75-6.82-1.51-13.66-2.96-20.46-4.53-14.35-3.31-24.57-11.73-30.69-25.1-2.05-4.47-3.97-9-5.85-13.54-2.67-6.46-5.38-12.89-8.84-19-4.58-8.07-3.18-14.79,3.92-20.63,1.4-1.15,2.87-2.21,4.26-3.38,2.49-2.09,5.37-3.04,8.57-3.17,24.75-.97,45.03,7.95,60.37,27.55,4.7,6,7.49,13,9.33,20.36,1.86,7.44,3.13,21.13,2.88,30.92-3.4-5.13-3.27-10.94-6.4-15.85-2.71,2.87,0,6.99-3.2,9.56-.73-6.36-1.22-12.5-4.13-17.97-1.64,.23-1.1,1.65-1.86,2.31-.33,.18-.49-.12-.75-.76-2.87-6.97-6.12-13.71-12.12-18.65-.38-.53-.73-1.5-1.49-.78-.33,.31,.04,1.35,.09,2.05,.87,3.5,1.58,7.04,2.64,10.48,1.13,3.7,2.65,7.27,3.85,10.94,1.08,3.31,3.51,6.19,3.7,10.39-4.01-.71-6.47-2.9-8.86-5.12-3.43-3.18-6.09-6.99-8.74-10.82-1.88-2.72-3.82-5.4-5.73-8.09-2.12,.75-1.49,2.25-1.37,3.27,.74,6.34,3.56,11.8,7.54,16.69,1.61,1.98,3.33,3.86,4.97,5.75-1.05,1.57-1.9,.53-2.67,.14-3.48-1.81-6.1-4.72-9.04-7.22-.13-.2-.22-.46-.4-.6-.53-.4-1.24-1.18-1.61-1.05-.8,.27-.56,1.2-.33,1.87,.15,.44,.48,.82,.73,1.23Z"/>
      <path class="cls-1" d="M82.18,428.43c-1.04-2.04,.54-3.42,1.34-4.92,5.89-10.96,11.95-21.82,17.7-32.85,2.99-5.73,5.72-11.64,8.08-17.66,2.56-6.54,4.18-13.37,3.56-20.51-.09-1-.47-1.98-.79-2.94-.05-.17-.45-.23-.89-.43-2.42,1.72-3.12,4.42-3.52,7.17-1.75,12.13-7.38,22.57-14.01,32.58-.77,1.17-1.33,2.72-3.49,2.88,2.54-8.45,6.47-16.43,6.68-25.15-1.29-1.42-2.54-.95-3.74-.51-18.01,6.49-33.57-11.23-33.53-24.75,.03-9.74,3.28-17.69,10.5-24.08,2.52-2.23,5.17-4.3,7.76-6.45,3.9-3.24,8.45-5.13,13.39-5.79,7.5-1,14.99-.83,22.35,1.25,11.78,3.33,19.25,10.95,21.97,22.85,2.24,9.79,.95,19.31-3.93,28.35,0-2.48-.1-4.97,.02-7.45,.27-5.47-.07-10.9-1.34-16.22-1.76-7.32-5.88-12.6-13.29-14.88-.73-.22-1.54-.3-2.3-.25-.42,.03-.82,.45-1.46,.83,.55,.86,1.02,1.76,1.64,2.54,10.34,13.02,12.36,27.53,7.96,43.29-2.32,8.31-5.95,16.01-10.31,23.4-5.28,8.95-11.5,17.25-17.84,25.46-3.17,4.1-6.36,8.19-9.56,12.26-.75,.96-1.39,2.16-2.95,1.99Z"/>
      <path class="cls-1" d="M103.27,435.08c-2.68,3.77-5.36,7.53-8.22,11.53,.71-4.68,1.16-5.52,6.78-12.96,.48,.48,.95,.95,1.43,1.43Z"/>
      <path class="cls-1" d="M213.81,337.12c-1.04,1.36-2.01,2.82-3.95,3.04q.44-2.36,2.59-4.45c.45,.47,.91,.94,1.36,1.4Z"/>
      <path class="cls-1" d="M212.8,180.41c-1.07-2.52,1.03-3.94,2-5.76,.47,.45,.94,.9,1.41,1.35-.79,1.74-1.5,3.55-3.55,4.23l.14,.18Z"/>
      <path class="cls-1" d="M219.79,171.82c-.95,1.6-1.93,3.18-3.58,4.18-.47-.45-.94-.9-1.41-1.35,.97-1.57,1.95-3.15,2.92-4.72,.69,.63,1.38,1.26,2.07,1.88Z"/>
      <path class="cls-1" d="M189.94,309.84c.17,.11,.48,.2,.49,.34,.03,.19-.16,.4-.25,.61-.17-.11-.48-.2-.49-.32-.02-.2,.15-.41,.25-.62Z"/>
      <path class="cls-1" d="M43.98,208c-1.79,1.03-1.86,2.78-1.89,4.56,0,0-.07,0-.07,0,1.1-1.23,2.29-2.43,1.78-4.33l.18-.24Z"/>
      <path class="cls-1" d="M223.04,231.13c-.66,.52-1.25,1.85-2.14,.97-.77-.76-.1-1.73,.89-2.21,.42,.41,.83,.83,1.25,1.24Z"/>
      <path class="cls-1" d="M216.06,228.79c-.28,.59-.45,1.65-1.35,.99-.67-.49-.24-1.39,.18-2.06,.39,.36,.78,.71,1.17,1.07Z"/>
      <path class="cls-1" d="M43.8,208.23l-.16-.56c-.46,.47-.36,.59,.32,.34,.02-.02-.16,.22-.16,.22Z"/>
      <path class="cls-1" d="M212.66,180.23c-.18,.36-.37,.73-.55,1.09-.13-.28-.43-.6-.36-.82,.15-.48,.59-.48,1.06-.09,0,0-.14-.18-.14-.18Z"/>
      <path class="cls-1" d="M205.72,341.17c.12,.13,.23,.25,.35,.38,.37-.45,.27-.59-.3-.41l-.04,.03Z"/>
      <path class="cls-1" d="M205.76,341.14c-.48,.47-.2,1.53-1.22,1.62,0,.03,.01,.22,.01,.22,.79-.34,1.43-.78,1.17-1.81,0,0,.04-.03,.04-.03Z"/>
      <path class="cls-1" d="M202.64,345.45c.65-.8,1.3-1.6,1.93-2.43-.02-.04-.03-.23-.03-.26-.6,.77-1.21,1.56-1.81,2.36l-.09,.33Z"/>
      <path class="cls-1" d="M106.17,439.98c.08,.17,.15,.35,.23,.52,.32-.47,.21-.55-.33-.22,0,.02,.1-.3,.1-.3Z"/>
      <path class="cls-1" d="M202.73,345.12c.51,.9-.75,.56,.25,.4,.33-.05,.16-.47-.33-.08,0,.02,.08-.31,.08-.31Z"/>
      <path class="cls-1" d="M184.05,353.14c-.27,.45-.13,.64,.42,.52,.02,0,.03-.36-.04-.5-.49-.92,.48,.29-.57,.17-.02,.02,.19-.18,.19-.18Z"/>
      <path class="cls-1" d="M191.75,306.67c.13,.17,.37,.34,.36,.49-.02,.15-.29,.28-.45,.41-.13-.17-.37-.34-.36-.49,.01-.15,.29-.27,.45-.41Z"/>
    </g>
  </g>
</svg>