<?xml version="1.0" encoding="UTF-8"?>
<svg id="Layer_2" data-name="Layer 2" xmlns="http://www.w3.org/2000/svg" viewBox="0 0 400.53 519.12">
  <defs>
    <style>
      .cls-1 {
        fill: #c5a994;
      }
    </style>
  </defs>
  <g id="Layer_1-2" data-name="Layer 1">
    <g>
      <path class="cls-1" d="M188.02,370.94c-.71-.26-1.54-.36-2.11-.8-10.63-8.19-21.28-16.37-31.83-24.67-16.42-12.9-30.24-28.11-40.2-46.58-3.3-6.11-6.69-12.23-7.78-19.24,1.75,.61,1.38,3.11,3.23,3.61-.09,1.32,.02,2.56,1.43,3.22,.05,1.27,.25,2.47,1.52,3.15,.07,1.91,1.23,3.37,2.12,4.9,4.53,7.81,9.77,15.12,15.62,21.99,13.11,15.41,28.59,28.09,45.43,39.17l6.33,4.63c2.04,1.55,4.08,3.09,6.12,4.64,1.17,1,2.32,2.04,3.52,3.01,11.04,8.97,21.39,18.59,28.94,30.85,1.07,1.73,2.59,3.2,3.96,4.73,6.56,7.36,12.09,15.37,16.04,24.45,.56,1.28,.69,3.01,2.39,3.41,1.75-3.06-1.96-5.98-.37-9.64,2.52,2.83,3.21,5.88,4.43,8.68,1,2.3,1.22,5.01,3.28,6.77-.63-.86,.49,1.05,.68,.03s.84-.04,.07,.65c-.44,.4-1.12,.55-1.71,.75-.07,.02-.44-.41-.39-.53,.28-.74,.89-.91,1.62-.77-.92-1.01-.89-2.27-.99-3.53-.41-5.63-2.54-10.71-5.1-15.64-.45-.86-1.05-1.74-2.18-.69l.13-.03c1.92-1.61-1.62-3.6,.34-5.46,2.42,1,3.4,3.15,4.58,5.02,1.24,1.95,2.36,3.99,3.34,6.09,.87,1.86,1.59,3.8,2.18,5.77,.67,2.21,1.19,4.47,1.66,6.74,.46,2.27,.67,4.59,1.19,6.84,.46,1.97-.63,4.28,1.27,6.24,1.94-4.16,1.81-8.2,1.19-12.32-1.81-11.94-7.95-21.59-15.89-30.3-.59-.64-1.26-.66-1.98-.2,0,0,.13,.15,.13,.15,1.03-1.52-.28-2.35-1.07-3.18-5.16-5.4-10.87-10.2-16.81-14.7-6.96-5.28-14.04-10.4-21.01-15.66-1.35-1.02-3.33-1.61-3.41-3.81,.47-.52,.81-1.2,1.75-.72,.89,.46,1.87,.75,2.81,1.12,.61,.85,1.34,1.45,2.26,.5,.09-.1-.7-1.05-1.08-1.61-.55-1.51-3.14-2.16-1.69-4.92,5.01,1.98,9.64,4.75,14.47,7.05,7.73,3.67,15.58,7,24.02,8.74,2.57,.53,5.13,.83,7.71,.41,1.33-.21,3.02-.08,3.46-1.95-4.61-2.48-11.09-5.22-19.17-6.48-3.14-.49-6.06-.68-8.68-.7,4.85-2.05,10.11-1.16,15.5-.09,3.99,.79,8.02,2.15,14.19,1.23-13.01-6.28-25.26-8.22-35.82-9.44,10.66-2.02,22.83,.49,35.18,3.14-1-1.25-2-1.95-3.24-2.5-6.68-2.95-13.64-4.92-20.83-6.01-7.42-1.12-14.88-1.91-22.33-2.88-1.23-.16-2.63-.1-3.26-1.59,.75-1.4,2.07-1.05,3.27-1.02,12.44,.25,24.82,1.07,36.99,3.94,1.74,.41,3.7,1.04,5.31,.62,5.11-1.33,10.13-.41,15.52,.3-2.14-2.88-5.05-3.37-7.73-4.12-8.04-2.23-16.31-2.76-24.61-2.92-6.21-.12-12.44-.03-18.64-.3-15.08-.66-29.8-3.28-43.91-8.84-4.59-1.81-9.05-3.91-13.14-6.66-17.41-11.71-32.32-25.87-42.9-44.22-.61-1-1.22-2-1.83-3.01-.52-1.04-1.05-2.08-1.57-3.12-.64-2.34-1.28-4.69-3.17-6.46-1.03,1.21-.43,2.5-.49,3.71-2.07-1.93-2.64-4.9-2.15-7.02,.83-3.59-.22-6.61-.91-9.87-1.78-8.38-3.43-16.87-3.06-25.41,.53-12.45,2.67-24.69,7.03-36.49,6.95-18.81,17.69-35.17,31.6-49.43,21.47-22.02,46.83-37.63,76.94-44.63,37.52-8.73,72.01-1.65,103.04,21.32,19.28,14.27,33.9,32.6,45.33,53.57,.6,1.1,1.09,2.25,1.46,3.49-5.52-8.26-11-16.51-17.26-24.22-13.05-16.07-28.21-29.66-46.5-39.54-20.81-11.24-42.93-16.44-66.62-14.5-6.75,.55-13.39,1.74-19.82,3.71-25.12,7.72-47.78,19.92-67.05,37.97-16.82,15.76-29.03,34.43-34.65,57.01-6.1,24.52-4.2,48.32,6.76,71.24,3.26,6.82,7.28,13.01,13.01,18.17,9.97,8.98,20.79,16.29,34.01,19.49,19.92,4.82,37.58,.45,52.39-13.76,12.13-11.64,18.71-25.97,18.66-42.99-.02-5.99-1.03-11.84-4.46-16.99-.06-.22-.06-.5-.19-.68-.24-.33-.56-.59-.84-.89-.08,.22-.26,.45-.23,.65,.15,.86,.61,1.22,1.45,.72-.19,1-.57,2-.54,2.99,.17,5.44,.42,10.87,.68,16.31,1.02,21.64-15.24,49.18-48.11,51.1-18.08,1.06-34.14-4.68-48.04-16.35,.57-.73,1.15-1.46,1.72-2.2,6.96,4.02,14.04,7.76,21.88,9.86,9.42,2.53,18.85,3.31,28.38,.67,1.44-.4,2.99-.63,3.83-2.29-.78-1.51-2.14-.64-3.22-.69-1.03-.04-2.07,.13-3.1,.21-12.15,.95-23.79-1.12-34.75-6.37-20.13-9.65-33.33-25.15-38.16-47.15-2.6-11.84-1.65-23.71,1.48-35.4,1.88-7.03,4.42-13.84,7.78-20.27,15.97-30.54,39.16-53.96,69.89-69.59,17.74-9.03,36.81-11.92,56.58-10.41,30.79,2.36,56.63,15.69,78.8,36.5,27.42,25.73,44.87,57.36,53.6,93.81,5.84,24.38,7.46,49.1,5.24,74.13-.76,8.62-3.66,24.59-9.92,56.5-.96,4.92-3.33,16.68-5.99,16.6-.3,0-.54-.17-.7-.3-1.3,1.92-2.1,3.82-1.04,6.12-2.14,2.71-2.28,6.11-3.08,9.26-4.37,17.37-9.69,34.41-16.99,50.79-2.09,4.7-4.49,9.26-7.19,14.77-.43-3.45,1.11-5.34,1.89-7.33,6.94-17.6,13.88-35.2,18.68-53.54,5.99-22.87,10.18-46.05,10.65-69.77,.27-13.8-.75-27.45-4.89-40.74-1.78-5.73-4.12-11.19-7.15-16.34-6.66-11.31-15.89-19.74-28.29-24.38-5.09-1.9-10.28-3.53-15.44-5.25-5.16-1.72-10.29-3.51-15.13-6.06-7.27-3.83-13.18-9.14-17.45-16.19-4.98-8.21-9.7-16.56-12.16-25.95-.54-2.07-1.48-3.75-3.14-5.2-1.73-1.51-3.13-3.41-5.01-5.5-3.08-.77-6.06,1.06-9.17,2.17-.97,.35-1.87,.96-2.86,1.17-.66,.14-1.53-.04-2.13-.38-1.12-.64-.96-1.87-.52-2.75,2-4.01,4.78-7.46,8.56-9.87,4.35-2.77,8.75-5.53,13.38-7.76,10.01-4.81,20.48-5,31.1-2.26,7.6,1.96,14.56,5.36,21.15,9.57,22.99,14.71,41.8,40.28,47.9,63.03-1.88-.88-2.04-2.86-2.83-4.44-3.37-6.74-7.15-13.21-11.96-19.06-10.03-12.19-22.7-20.16-38.62-24.4,1.36,2.82,3.71,3.25,5.59,4.13,7.6,3.56,14.37,8.22,19.89,14.59-.4,.36-.8,.72-1.19,1.07-2-1.13-3.98-2.3-6-3.39-.89-.48-1.87-.85-2.76,.18,.2,2.33,2.27,3.18,3.75,4.44,4.7,4,9.58,7.8,14.18,11.91,6.35,5.67,12.22,11.82,16.33,19.38,1.56,2.87,3.59,5.72,2.61,9.35l.16-.14c-1.17-.28-1.48-1.29-1.92-2.2-4.32-8.99-10.62-16.43-18.07-22.96-9.57-8.39-20.39-14.9-31.47-21.04-1.09-.6-2.33-1.19-3.5-.06,.98-1.21-.21-1.69-.78-2.38-.5,0-.56-.17-.17-.49,.01-.01,.2,.2,.3,.33-.37,1.04-.15,1.86,.85,2.39,.79,.89,1.61,1.77,2.36,2.69,.42,.51,1.12,1.23,.24,1.73-.48,.27-1.32-.1-2.02-.18-.37-.7-.72-1.41-1.07-2.13-.17,.59-.53,.72-1.01,.3-.11-.09-.11-.5,0-.61,.43-.43,.79-.31,1,.29-.08,1-.3,2.09,1.31,1.97,0,.46-.21,1.2,0,1.35,5.5,4.02,11.32,7.51,17.42,10.54l-.02-.05c-1.74,.72-3.34,.87-5.18-.06-4.15-2.1-8.41-4.01-12.69-5.85-1.85-.8-3.53-2.16-5.79-2.05-1.15,1.15,.08,1.87,.64,2.36,5.68,4.9,11.45,9.66,18.99,11.53,1.74,.43,3.38,1.31,5.08,1.92,19.48,6.98,31.57,21.17,38.36,40.15,5.13,14.34,7,29.16,4.53,44.36-.21,1.27-.24,2.56-.46,3.85-.16-10.17-.21-20.35-2.27-30.38-1.78-8.69-4.59-16.99-9.26-24.58-.79-1.29-1.45-2.79-3.33-2.82l.28,.27c.32-1.71-.7-2.88-1.66-4.04-2.11-2.55-4.38-4.93-7.21-6.79-1.16,.18-2.37,.37-3.57,.57,1.06-1.37,1.84-2.69-.89-3.28-.19,1.27,1.5,2.01,.92,3.29,1.15,.35,2.57,.47,1.92,2.79-3.7,.35-6.04-3.69-9.64-3.5-.23,1.8,1.04,2.35,1.99,3.06,17.25,12.92,25.45,30.85,28.65,51.6,2.84,18.39,1.72,36.71-.88,55.01-.51,3.59-1.08,7.18-1.59,10.77-.14,1.02-.15,2.06,1.17,3.02,2.1-.55,2.75-2.53,3.12-4.39,6.22-31.08,10.48-62.37,7.59-94.16-3.16-34.87-12.96-67.64-32.41-97.09-14.73-22.32-33.66-39.97-58.07-51.35-16.67-7.77-34.14-12.1-52.6-11.92-18,.18-34.91,4.61-50.24,14.12-21.77,13.52-39.05,31.51-51.68,53.85-5.53,9.78-9.29,20.21-10.72,31.44-3.37,26.51,12.28,52.21,42.68,57.01,3.45,.54,7.02,.9,10.47-.34-.5-2.68-2.57-2.94-3.95-3.92-14.55-10.41-17.73-28.47-7.55-43.2,1.77-2.56,3.61-5.06,5.44-7.57,3.89-5.34,8.83-9.47,14.67-12.49,13.4-6.94,27.77-4.92,38.8,5.43,9.02,8.47,14.44,19.04,16.45,31.08,5.8,34.75-18.63,65.62-45.18,72.72-10.79,2.88-21.44,3.19-32.21,.29-2.16-.58-4.3-1.2-6.71-1.87,.61,1.46,1.47,1.95,2.44,2.4,9.96,4.71,20.38,7.69,31.42,7.84,9.32,.13,18.65-.14,27.97-.34,8.55-.18,17.11-.45,25.63,.37,3.82,.37,7.6,1.09,11.97,1.74-3.84-3.69-5.72-4.46-14.92-5.06-5.41-.35-10.86-.06-17.05-.06,7.71-3.93,15.39-2.47,24.36-3.29-7.46-2.23-13.53-2.46-19.64-1.82-10.83,1.14-16.29,1.17-21.58,2.68-6.3,1.8-10.3,4.09-10.35,3.98-.07-.15,6.87-4.61,16.52-7.24,6.74-1.83,13.62-3.03,20.58-3.95,11.1-1.46,21.64,.15,31.99,4.14,3.02,1.17,5.79,3.55,9.42,2.57-.62,.36-.64,.76-.03,1.08,.17,.09,.64-.02,.65-.1,.11-.59-.19-.88-.82-.85-1.06-3.37-4.14-4.5-6.84-5.84-4.45-2.21-9.24-3.43-14.22-3.56-4.92-.13-9.84,.02-14.76,0-2.57-.01-5.15,.71-7.72-.1,.08-1.92,1.67-1.57,2.73-1.77,10.46-2,20.93-3.76,31.59-1.43,16.22,3.53,26.67,13.16,30.68,29.38,1.56,6.31,2.42,12.78,.9,19.26-.58,2.49,.1,4.5,1.31,6.61,4.39,7.68,6.65,16.3,10.49,24.23,.55,1.14,.82,2.48,.91,3.75,.04,.65-.46,1.56-1,1.94-.53,.37-1.65,.55-2.14,.24-1.95-1.26-3.73-2.76-5.61-4.13-2.05-1.49-3.79-3.64-6.85-3.35-.35,.62-.85,1.25-1.07,1.96-2.27,7.38-7.67,10.81-14.92,11.76-11.3,1.48-22.62,3.29-33.96,.23-.7-.19-1.49-.02-2.46-.02,.26,.97,.25,1.85,.69,2.36,1.34,1.58,2.84,3.01,4.29,4.5,14.05,14.37,19.88,31.87,19.42,51.66-.24,10.21-2.39,20.05-6.79,29.34-2.91,6.14-6.66,11.68-11.48,16.51-9.1,9.1-20.11,13.51-32.87,13.49-3.86,0-7.76-.5-11.58-1.13-5.05-.84-9.09-3.48-12.24-7.6-2.13-2.8-3.32-5.8-3.26-9.33,.12-7.06,1.2-13.91,3.77-20.53,1.31-3.37,2.54-6.8,3.49-10.3,2.23-8.25,1.24-16.48-.8-24.6-4.5-17.93-13.22-33.69-24.91-47.88-7.27-8.83-15.61-16.62-24.06-24.29-9.21-8.36-18.54-16.59-27.29-25.46-18.11-18.36-30.29-40-35.77-65.23-4.99-22.98-4.21-45.95,2.43-68.46,14.96-50.74,46.08-88.06,93.95-110.93,17.76-8.48,36.69-12.67,56.37-13.01,24.9-.43,48.18,5.87,70.02,17.73,6.16,3.34,12.05,7.11,17.75,11.18,.94,.67,1.98,1.83,3.33,.56,0,0-.22-.25-.22-.25-.08,.23-.31,.52-.23,.67,1.26,2.61,3.14,4.43,6.18,4.66,.15,.01,.32-.34,.48-.52l-.2-.15c-.47,1.72-.15,2.05,1.74,1.76l-.25-.16c-.12,.45-.48,1.12-.31,1.31,1.21,1.34,2.48,2.63,3.81,3.85,27.24,24.99,44.05,55.97,52.37,91.75,4.43,19.05,6.15,38.36,4.54,57.91-.4,4.83-.59,9.67-.86,14.36,.72,.44,1.38,.23,1.3-.35-1.31-10.06-.62-20.2-1.39-30.28-2.59-33.88-11.34-65.87-29.92-94.62-19.17-29.66-45.24-51.09-78.47-63.29-32.79-12.04-65.5-11.72-97.7,2.28-38.31,16.65-67.42,43.36-85.36,81.25-17.7,37.38-17.47,75.13,.54,112.52,5.8,12.05,14.02,22.36,23.74,31.5,5.11,4.8,10.54,9.2,16.2,13.33,11.32,8.25,23.28,15.52,35.06,23.06,1.63,1.04,3.16,1.8,4.96,.51-.37,1.01-.25,1.87,.5,2.72,.63,.71,1.1,1.56,1.64,2.33-.08-.83,.29-1.5,1.09-1.26,1.18,.36,.47,1.24,.05,1.65-.6,.57-1.25,.55-1.21-.58-1.22-1.4-1.54-3.18-2.09-4.86Zm159.83-119.39c-.02,.47-.82,1.29,.51,1.17-.23-.33-.46-.67-.69-1-1.08-.97-2.35-1.21-3.74-.99-.22-.37-.42-.75-.69-1.09-.06-.07-.51,.07-.51,.08,.12,.85,.88,.61,1.41,.8,.92,1.54,2.29,1.43,3.71,1.03Zm-15.77-40.23c-.54-.41-1.04-.94-1.65-1.19-.3-.12-.81,.27-1.22,.42,.22,.38,.38,.83,.67,1.13,.33,.34,.78,.55,1.18,.82,1.49,1.17,2.64,3.48,5.21,1.81-.98-1.93-2.39-2.75-4.2-2.99Zm40.22,177.42q3.07-5.63,.9-7.69c-1.48,1.85-1.97,3.82-.9,7.69Zm-128.22,46.27c-.16,.14-.45,.29-.45,.43,.02,.43,.16,.86,.25,1.29,.15-.15,.44-.3,.44-.44-.02-.43-.15-.85-.24-1.28Zm1.39,8.16c-.55-.26-1.26-.33-1.16-1.31,.06-.62,.22-.82,.84-.92,.82-.13,1.38,.21,1.53,.88,.17,.78-.42,1.21-1.2,1.34Zm89.77-190.61l-.09,.46,.61-.14-.52-.31Zm3.33,1.76l.46,.31,.07-.47-.53,.16Zm3.95,1.64c-.15-.17-.29-.47-.46-.49-.17-.01-.35,.26-.53,.4,.15,.17,.29,.47,.46,.49,.16,.01,.35-.26,.53-.4Zm-135.6,115.27c-.28-.58-.6-.6-.87-.01-.03,.07,.26,.4,.41,.4,.15,0,.3-.25,.46-.39Z"/>
      <path class="cls-1" d="M342.74,125.96l-3.22-.11s.25,.16,.25,.16c.18-1.34-.52-1.81-1.74-1.76,0,0,.2,.15,.2,.15-1.29-2.74-3.24-4.6-6.42-4.81,0,0,.22,.25,.22,.25,.07-2.3-1.96-2.87-3.33-3.87-16.28-11.79-34.01-20.77-52.97-27.41-13.73-4.81-27.95-7.7-42.1-10.88-14.91-3.35-29.79-6.81-44.2-12.04-9.04-3.28-17.83-7.1-26.02-12.13-3.84-2.36-7.88-3.72-12.24-4.62-9.96-2.05-19.98-2.97-30.13-2.3-7.3,.48-14.33,2.17-21.08,4.98-1.14,.47-2.43,.98-2.35,3.17,4.61-.36,9.24-.56,13.83-1.11,9.31-1.1,18.63-.78,27.96-.61,2.18,.04,4.22,.23,5.95,1.39,.88,.59,1.77,1.41,1.66,1.58-.13,.2-1.5-.62-3.3-1.17-1.92-.58-3.46-.58-5.15-.56-3.2,.03-11.03,.66-21.36,1.99,2.39,1.89,4.52,1.54,6.55,1.67,10.08,.63,20.2,.8,30.18,2.58,4.79,.86,9.69,1.18,14.18,3.49,2.26,1.17,4.25,2.73,4.23,2.77-.03,.05-2.88-2.22-6.57-3.48-4.36-1.48-8.14-.65-10.04-.73-10.61-.44-21.24-.61-31.86-.69-5.44-.04-10.88,.27-16.32,.52-1.47,.07-3.17-.29-4.46,1.58,1.81,1.82,5.4,1.84,5.58,5.52,18.4,.26,36.52,.52,55.49,.79-7.58,2.58-14.71,2.91-21.69,3.92-6.81,.99-13.78,.95-20.48,2.61,.16,1.8,1.2,1.98,2.12,1.97,3.62-.03,7.26-.03,10.87-.28,14.99-1.05,29.97-2.22,44.97-3.28,3.62-.25,7.25-.26,10.88-.33,3.86-.07,7.75-.25,10.53,1.87-3.42,.05-8.71,.24-15.19,.95-3.72,.41-6.45,.86-7.58,1.01-10.05,1.34-20.1,2.69-30.16,4.01-11.82,1.55-23.69,2.63-35.61,3.16-1.7,.07-3.67-.51-5.14,1.87,11.3,2.02,22.41,2.68,33.63,1.22-15.68,4.82-31.72,3-47.68,2.68,.09,1.96,1.49,2.22,2.62,2.61,12.14,4.25,24.46,4.01,36.79,1.14,12.86-3,25.64-6.32,38.48-9.42,12.86-3.11,25.79-5.79,39.15-5.3,4.14,.15,8.23,.48,12.3,2.15-1.86,1.76-4.05,1.48-5.97,1.75-16.22,2.35-31.87,6.93-47.35,12.14-14.48,4.88-28.72,10.44-43.48,14.49-1.14,.31-2.63,.47-2.75,2.4,.87,.13,1.75,.35,1.82,.77,.11,.68-1.9,1.54-3.15,2.03-11.08,4.41-29.05,10.93-42.77,19.96-1.07,.7-2.24,1.34-2.33,2.97,.86,1.42,2.12,.68,3.19,.36,3.44-1.05,6.48-3.33,10.28-3.29l.4,.45c-.97,2.08-3.15,2.53-4.88,3.54-8.74,5.11-16.91,11.03-24.72,17.46-1.1,.91-2.69,1.53-2.73,3.38,2.1,.91,3.44-.71,4.84-1.61,8.06-5.18,16.04-10.47,24.03-15.76,8.21-5.43,16.47-10.78,25.28-15.2,4.37-2.19,8.86-4.12,13.81-5.27-1.56,.94-3.1,1.88-4.67,2.8-10.52,6.18-20.28,13.44-29.74,21.12-5.63,4.57-11.26,9.15-16.86,13.75-8.83,7.25-18.34,13.49-28.13,19.35-1.94,1.16-4.35,1.8-5.46,4.13,1.88,.91,3.54,.07,5.24-.48,10.17-3.29,19.56-8.17,28.5-13.97,8.93-5.79,17.1-12.57,25.11-19.56,2.28-1.99,4.25-4.52,7.52-5.09l.16-.02c-1.38,.26-2.15,1.34-2.97,2.31-11.78,13.78-24.57,26.43-39.9,36.29-.89,.57-1.58,1.3-1.76,2.38,.7,1.07,1.67,.84,2.63,.51,5.39-1.89,10.28-4.73,14.98-7.94,1.64-1.12,3.29-2.22,5.96-4.02-.62,2.97-2.01,4-3.07,5.16-1.21,1.33-2.52,2.59-3.85,3.81-1.52,1.39-3.08,2.75-4.68,4.05-1.4,1.14-2.84,2.23-4.33,3.24-1.47,1-2.8,2.34-4.75,2.31-.05,.46-.16,.9-.18,1.35,0,.18,.18,.36,.27,.54,.27-.27,.81-.67,.76-.78-.21-.42-.61-.75-.94-1.12,1.96,1.31,3.9,1.04,5.86-.02,2.24-1.21,4.48-2.41,6.5-3.49,1.96,1-.15,2.61,2.06,4.15,.16,.1,.94-.73,1.6-1.36,2.81-2.72,5.07-5.89,7-9.28,2.31-4.05,4.54-8.15,6.74-12.26,15.05-28.15,37.26-48.79,65.78-62.81,.41-.2,.9-.22,2.62-.61-3.01,2.02-5.02,3.42-7.07,4.73-14.05,9.04-26.54,19.84-37.24,32.71-9,10.83-16.45,22.62-22.06,35.56-1.75,4.04-3.57,8.05-5.42,12.05-1.75,3.78-3.84,7.36-6.47,10.59-8.21,10.08-18.7,13.47-31.22,10.21-3.74-.97-7.32-2.56-10.91-4.03-3.61-1.48-7.24-2.81-11.11-3.41-3.3-.51-6.2,.13-8.27,2.98-1.24,1.71-2.63,3.28-4.63,4.03-4.58,1.71-6.74,5.36-8.07,9.06-.19,2.72,2.33,3.33,2.53,5.51-.36,.41-.74,1.29-1.31,1.42-3.96,.93-6.88-.26-9.15-3.9-2.23-3.57-3.35-7.58-3.73-11.75-.86-9.44-.52-18.69,4.96-26.95,1.38-2.08,1.67-4.22,1.32-6.65-1.57-11.15,2.68-20.31,9.96-28.33,7.23-7.96,15.88-14.08,25.39-19,10.91-5.64,22.51-9.18,34.58-11.26,1.76-.3,3.58-.24,5.32-.35,.8,1.87-.78,1.57-1.42,1.95-.89,.52-1.87,.89-2.82,1.29-14,5.8-26.79,13.55-38.04,23.77-.96,.87-2.08,1.56-3.16,2.35,1.86,2,2.77,.5,3.55-.03,8.16-5.53,16.62-10.56,25.26-15.27,13.68-7.46,27.8-13.88,43-17.66,1.4-.35,3.11-.4,3.99-1.96,.12-.22,.17-.49,.25-.71-1.06-1.02-2.36-.88-3.65-.74-14.62,1.56-28.27-1.83-41.42-7.96-10.13-4.71-19.56-10.63-29.11-16.38-1.54-.93-3.03-2.22-4.71-2.61-4.17-.98-7.51-3.27-10.93-5.67-2.49-1.73-5.46-2.77-8.02-4.02-1.22-2.4-.36-4.33,.58-6.17,3.21-6.25,8.39-10.56,14.56-13.51,3.77-1.8,7.2-3.94,10.53-6.44,9.33-7,20.13-10.74,31.47-12.51,18.47-2.88,37.06-4.17,55.76-2.32,3.24,.32,6.52,.96,10.1,.35-.71-2.55-2.87-3.35-4.13-4.87-2-2.41-3.88-4.86-4.81-7.91-.73-2.4-.23-4.06,1.75-5.43,11.23-7.75,23.35-13.33,37-15.2,1.79-.25,3.64-.38,5.34-.94,11.47-3.79,23.01-2.91,34.55-.54,8.4,1.72,16.51,4.41,24.44,7.63,46.54,18.93,86.2,47.15,117.25,86.99,2.16,2.77,4.51,5.45,6.49,9.36-2.05-2.11-4.11-4.26-6.18-6.44-1.29-1.36-2.56-2.71-3.82-4.07-.61-.77-1.51-1.88-2.62-3.2,0,0-4.52-5.22-10.04-10.8-28.54-28.81-62.15-49.53-100.41-62.75-6.3-2.18-12.67-4.31-19.64-4.16,2.39,.93,4.78,1.87,7.09,2.77,.24,1.82-1.01,1.55-1.92,1.76,1.04,.81,2.79-.89,3.51,.97l-.15-.16c1.58,2.13,4.27,1.81,6.34,2.45,14.91,4.65,28.88,11.29,42.32,19.13,14.33,8.36,28.31,17.28,41.32,27.61,2.01,1.59,3.96,3.24,6.13,5.02-2.27,1.26-3.13-.49-4.16-1.24-15.33-11.15-31.6-20.75-48.27-29.7-6.85-3.68-13.85-7.02-21.16-9.7-.96-.35-1.86-.96-2.99-.24,1.54,2.29,4.17,2.84,6.4,3.96,31.72,15.86,60.78,35.57,86.51,60.06,11.85,11.28,22.86,23.31,32.59,36.49,13.22,17.91,22.97,37.44,27.94,59.24,.11,.48,.34,.94,.33,1.48-1.42-3.72-2.87-7.43-4.25-11.17-9.52-25.76-24.84-47.69-44.33-66.81-38.44-37.73-83.12-64.93-135.04-79.82-4.72-1.36-9.5-2.55-14.3-3.62-2.23-.5-4.56-.54-7.36-.84,1.44,2.61,3.62,2.64,5.42,3.11,10.79,2.77,21.49,5.83,31.97,9.6,18.59,6.68,36.34,15.08,52.98,25.77,2.13,1.37,4.17,2.87,6.19,4.26-.62,1.68-2.74,.43-3.15,2.62-.31,2.44,3.53,2.4,3.85,4.84l.17-.19c-1.95,.33-3.47-.85-5.09-1.56-4.73-2.06-9.4-4.25-14.13-6.3-19.9-8.62-40.4-15.58-61-22.26-.16,.2-.29,.44-.48,.54-.13,.07-.36-.07-.55-.11,.26-.54,.64-.63,1.15-.24,.87,2.57,3.37,2.9,5.39,3.83,12.41,5.73,25.23,10.43,38.01,15.24,13.74,5.17,27.64,9.96,40.83,16.49,1.17,.58,2.34,1.07,3.69,.79,0,0-.23-.19-.23-.19,.5,1.79,1.79,2.03,3.36,1.74l.27-.19c.23,2.57,2.63,2.86,4.24,3.79,12.83,7.4,24.79,16.01,35.81,25.92,1.89,1.7,4.21,3.08,5.14,5.68,0,0-.47,.53-.47,.53ZM77.56,196.83c.43-.68,2.17-.95,1.12-2.03-1.04-1.07-1.54,.33-2.06,1.05-.66,.22-1.46,.57-.86,1.33,.52,.66,1.24,.05,1.8-.35Zm-7.82-51.15c1.59-2.22,4.36-2.61,6.39-4.14,.74-.55,1.71-1.04,.67-2.74-2.89,.79-5.31,2.44-7.22,4.81-.33,.41,.1,1.45,.15,2.13-.34-.34-.62-.82-1.02-.98-.32-.12-.96,.05-1.15,.32-.32,.44,.03,.7,.74,.62,.48-.06,.96-.02,1.44-.02ZM217.86,47.47c-.44,.02-.95,.2-1.31,.04-.65-.3-.96-.26-.67,.04,.71,.75-.37-.02,.67-.05,.45-.01,.9,.03,1.35,.05-.04,.85,.35,1.52,1.09,1.85,2.59,1.18,5.17,2.36,7.81,3.42,16.79,6.79,33.37,14.06,49.39,22.54,1.36,.72,2.82,1.23,4.26,1.79,.89,.35,1.34-.41,1.89-.89-.32-2.12-2.07-2.84-3.66-3.64-6.01-3.02-12.01-6.06-18.07-8.96-13.79-6.6-28.21-11.52-42.74-16.2ZM122.64,113.44q-4.79-.15-8.98,1.54c3.47,.6,5.8,.6,8.98-1.54Zm-21.98-45.43c1.96,1.52,3.65,1.92,5.64,.04-1.96-1.68-3.66-1.47-5.64-.04ZM237.74,31.94c-.04-.16-.02-.41-.12-.47-.16-.11-.44-.19-.6-.12-.56,.25-.51,.55,.14,.74,.17,.05,.39-.1,.58-.15ZM62.51,187.25c-.17-.16-.34-.45-.52-.45-.17,0-.35,.29-.52,.45,.25,.17,.51,.35,.76,.52,.09-.17,.18-.33,.28-.52Z"/>
      <path class="cls-1" d="M138.24,294.84c-2.16-1.05-3.75-2.75-5.22-4.59,.58-.43,1.16-.86,1.73-1.28,1.74,1.22,3.47,2.45,5.21,3.67-.57,.73-1.15,1.46-1.72,2.2Z"/>
      <path class="cls-1" d="M345.35,216.89c.36,.58,1.12,1.55,1.02,1.66-.95,.96-1.65,.31-2.21-.59,.4-.36,.8-.72,1.19-1.07Z"/>
      <path class="cls-1" d="M128.27,283.05c-.37,.54-.81,.66-1.09,.2-.14-.23,0-.92,.09-.94,.53-.1,.81,.26,.8,.88l.2-.13Z"/>
      <path class="cls-1" d="M128.07,283.18c.69,.17,1.19,.51,1.03,1.31-.02,.1-.5,.24-.65,.15-.72-.42-.71-.99-.18-1.59,0,0-.19,.13-.19,.13Z"/>
      <path class="cls-1" d="M131.82,289.06c-.34-.34-.69-.67-1-1.03-.49-.56-.75-1.22,.05-1.67,.3-.17,.9-.05,1.24,.15,.39,.22,.64,.68,.95,1.04-.41,.5-.82,1.01-1.24,1.51Z"/>
      <path class="cls-1" d="M133.02,290.25c-.4-.4-.8-.8-1.2-1.19,.41-.5,.82-1,1.24-1.51,.83,.16,1.4,.62,1.7,1.42-.58,.43-1.16,.86-1.73,1.28Z"/>
    </g>
  </g>
</svg>