<?xml version="1.0" encoding="UTF-8"?>
<svg id="Layer_2" data-name="Layer 2" xmlns="http://www.w3.org/2000/svg" viewBox="0 0 225.3 416.05">
  <defs>
    <style>
      .cls-1 {
        fill: #c5a994;
      }
    </style>
  </defs>
  <g id="Layer_1-2" data-name="Layer 1">
    <path class="cls-1" d="M107.54,102.69c3.56,4.1,7.14,8.18,10.67,12.31,1.65,1.93,3.71,3.6,4.64,6.78-7.84-.88-13.2-6.02-19.9-9.63-.85,4.76,1.09,8.39,2.63,12.01,2.07,4.89,5.34,8.82,10.34,11.45,4.58-2.2,9.33-4.2,13.79-6.7,5.63-3.15,11.33-3.22,17.23-1.34,5.08,1.62,9.13,4.78,12.6,8.74,4.14,4.72,7.15,10.13,9.7,15.84,4.99,11.18,7.74,23.03,10.45,34.9,6.37,27.82,6.49,55.98,4.53,84.25-.1,1.51-1.33,5.75-1.22,11.58,.1,5.1,1.03,9.25,.8,9.29-.2,.04-1.69-3.28-1.75-6.59-.11-6.47-.12-12.95-.17-19.43-.16-21.09-2.69-41.84-8.73-62.1-3.12-10.47-7.28-20.48-13.53-29.53-.43-.62-.64-1.4-.95-2.09,.2,.66-.28,.74-.25,.33,.07-1.01-.48,.12,.51-.18-.94,2.48,.34,4.58,1.25,6.68,3.07,7.16,5.54,14.52,7.55,22.05,.73,2.75,1.2,5.6,2.21,8.25,.94,2.48-.46,4.97,.05,7.27-2.11-8.43-4.82-15.2-7.1-20.08-2.81-6.03-6.37-12.82-12.81-20.35-1.82-2.13-3.54-4.41-5.97-5.76-2.01,.61-1.55,2.1-1.56,3.25-.05,3.52,1.44,6.58,3.38,9.37,2.07,2.97,4.31,5.84,6.63,8.62,3.69,4.41,6.63,9.21,8.93,14.51,6.79,15.59,10.94,31.85,12.53,48.75,2.61,27.7,2.39,55.41,.18,83.14-1.15,14.48-2.98,28.86-5.45,43.17-.02,.14-.42,.22-.65,.33,0-2.07-.2-4.15,.03-6.19,3.16-27.39,3.49-54.87,2.31-82.35-.72-16.86-2.9-33.59-7.56-49.89-1.28-4.47-2.85-8.9-4.77-13.13-4.56-10.05-11.82-17.56-22-22.08-3.55-1.58-7.11-3.15-10.64-4.77-13.29-6.11-19.71-17.09-21.57-31.08-.89-6.73-.46-13.46,1.63-20.01,.45-1.43,1.45-2.83,.43-4.98-4-.59-8.31-1.39-12.65-1.85-11.31-1.2-20.83-5.91-28.63-14.15-3.39-3.58-6.75-7.17-10.04-10.85-6.77-7.57-14.14-14.43-22.68-20.01-3.46-2.26-6.71-4.86-10.31-7.49-3.73,1.32-6.3,4.28-8.68,7.24-2.42,3.02-4.34,6.43-6.45,9.69-.68,1.05-.98,2.45-2.84,2.6-1.39-.06-1.87-1.37-2.16-2.56-2.98-12.14-1.72-23.82,4.96-34.44,6.37-10.13,13.57-19.65,24.2-25.89,1.32-.77,2.43-1.93,3.54-3,13.44-13.01,29.64-20.7,47.75-24.48,4.7-.98,8.54-2.78,12.27-5.92C105.42,6.79,118.32,1.12,133.07,.1c7.68-.53,14.94,.95,21.86,4.28,6.36,3.06,12.04,7.09,17.18,11.92,8.78,8.25,15.8,17.87,21.68,28.31,16.36,29.06,26.59,60.1,29.99,93.36,2.57,25.16,1.73,50.22-1.28,75.29-3.4,28.37-9.38,56.23-15.86,84.01-8.36,35.84-16.91,71.62-26.72,107.1-1.09,3.95-2.37,7.84-3.84,11.68,2.3-10.28,4.58-20.57,6.9-30.85,7.05-31.36,14.09-62.71,21.16-94.06,5.48-24.29,10.22-48.73,12.91-73.49,3.32-30.56,3.63-61.09-2.58-91.4-4.2-20.51-11.33-39.87-22.93-57.42-2.28-3.44-4.39-7.04-7.62-9.76-1.53-2.15-3.05-4.31-4.61-6.43-.65-.43-1.26-.89-1.87-1.36-.54,.07-.62-.11-.24-.51,0,0,.24,.2,.36,.33,0,2.13,.02,2.14,1.94,1.31-1.07,1.23-1.47,2.56-.46,4.01,.99,1.42,2.02,2.8,3.03,4.2,3.51,6.93,7.05,13.85,10.52,20.79,.55,1.11,1.56,2.14,.94,3.8-3.23-4.72-6.3-9.41-9.57-13.96-5.76-8.03-12.15-15.52-19.9-21.75-5.3-4.26-11.03-7.74-17.66-9.54-.93-.25-1.92-.56-2.82,.19,.86,1.4,2.33,1.97,3.67,2.73,14.78,8.32,26.43,19.93,35.67,34.04,10.95,16.71,17.6,35.16,21.89,54.56,4.45,20.15,5.39,40.57,5.06,61.12-.33,20.28-2.45,40.4-5.6,60.39-5.93,37.65-13.03,75.1-21.16,112.34-2.03,9.31-4.37,18.55-7.41,27.65,1.06-5.77,2.12-11.53,3.18-17.3,5.44-29.58,11.13-59.11,16.24-88.74,5.21-30.17,8.98-60.54,9.85-91.2,.69-24.06-1.95-47.65-9.32-70.62-3.5-10.9-8.02-21.36-14.02-31.13-.94-1.53-2.11-2.94-3.28-4.32-.27-.32-.95-.29-1.43-.42-1.12,.62-1.06,1.62-.71,2.57,.9,2.43,1.94,4.81,2.84,7.23,.89,2.39,2.34,4.62,2.32,7.41-2.05,.11-2.16-1.67-2.73-2.75-3.75-7.12-7.74-14.09-12.4-20.66-3.76-5.3-8.09-10.1-12.33-15.01-6.69-7.76-15.34-11.25-25.07-12.67-5.64-.83-11.34-.95-16.98-.19-.23,1.54,.74,2.04,1.71,2.31,28.31,7.99,47.28,26.89,60.78,52.13,7.15,13.36,11.6,27.71,14.99,42.41,5.34,23.16,6.64,46.66,6.32,70.35-.04,3.21-1.21,14.09-1.99,29.49-.35,6.98-.55,12.65-.67,16.14,.02-6.1,.02-14.99-.04-25.73-.11-19.87-.01-29.81-.43-36.57-1.32-21.55-4.51-42.81-10.87-63.5-5.41-17.6-13.88-33.51-26.86-46.78-8.46-8.65-18.27-15.28-29.64-19.5-.72-.27-1.48-.49-2.24-.63-.48-.09-1,.03-2.45,.1,3.57,2.56,6.62,4.64,9.56,6.86,3.1,2.34,6.18,4.73,9.12,7.27,2.95,2.54,5.83,5.17,8.53,7.96,2.88,2.98,5.65,6.09,8.23,9.33,2.42,3.04,4.68,6.23,6.73,9.52,2.05,3.29,3.85,6.76,5.59,10.23,1.73,3.46,3.38,6.97,3.88,10.66-2.94-4.96-5.71-10.26-9.07-15.17-12.28-17.92-28.5-30.65-49.61-36.66-1.97-.56-3.91-1.44-6.01-.67-.53,1.55,.57,2.4,1.38,3.33,6.01,6.87,12.91,12.74,20.29,18.07,2.1,1.52,4.22,3.01,6.36,4.48,4.52,3.09,6.61,4.02,6.51,4.23-.2,.42-8.3-3.07-28.94-11.7-1.02-.43-3.24-1.36-4.25-1.78-.55-.96-1.59-1.6-2.32-.83-.89,.94,.5,1.5,1.04,2.15Zm67.26-14.4c.2,.43,.29,.99,.62,1.27,.45,.38,1.15,.84,1.61,.72,.64-.16,1.04-.87,.6-1.65-.35-.61-.73-1.2-1.1-1.8-.26-.44-.48-.91-.8-1.3-.46-.56-1.02-1.23-1.79-.53-.27,.25-.38,.94-.25,1.32,.25,.7,.72,1.32,1.1,1.97Zm-72.98,53.05c-.3,.36-.68,.68-.86,1.09-.05,.12,.46,.48,.72,.74,.07-.18,.19-.36,.19-.54,0-.43-.06-.86-.09-1.28-3.23-.7-5.23-3.17-7.3-5.37-3.52-3.74-6.93-7.59-10.15-11.58-6.8-8.42-14.08-16.31-23.31-22.09l-.15,.29,.32-.19c-1.21,1.39-.88,2.86-.23,4.34,3.5,7.85,7.8,15.21,13.44,21.74,5.97,6.91,13.64,10.99,22.28,13.46,1.81,.52,3.58,.58,5.14-.6Z"/>
  </g>
</svg>