<?xml version="1.0" encoding="UTF-8"?>
<svg id="Layer_2" data-name="Layer 2" xmlns="http://www.w3.org/2000/svg" viewBox="0 0 431.92 576.83">
  <defs>
    <style>
      .cls-1 {
        fill: #c5a994;
      }
    </style>
  </defs>
  <g id="Layer_1-2" data-name="Layer 1">
    <g>
      <path class="cls-1" d="M240.06,324.71c-2.13,1.46-4.2,3.02-6.4,4.36-11.77,7.17-24.38,9.83-37.96,6.69-5.67-1.31-8.24-3.03-12.17-7.49-.2-1.47,.69-2.43,1.53-3.41,4.68-5.41,7.51-11.75,9.32-18.59,1.19-4.5,2.25-9.04,3.35-13.57,2.49-10.21,6.29-19.74,14.07-27.22,.53-.51,.82-1.28,1.18-1.86-5.73-13.18-5.27-16.44,.26-28.08,.28-1.97-1.17-3.32-1.95-4.89-4.34-8.75-1.97-19.92,4.4-25.85,1.89-1.76,3.83-3.49,5.81-5.16,10.04-8.43,15.27-19.28,16.75-32.24,1.56-13.73-.72-26.83-5.73-39.56-4.1-10.43-9.82-19.96-16.22-29.12-.91-1.3-2.99-2.44-1.51-4.6,0,0-.08,.12-.08,.12,.25,.08,.57,.09,.72,.26,14.82,16.12,25.94,34.19,29.75,56.17,1.12,6.43,.93,12.92,1.17,19.39,.14,3.9,.48,7.73,1.44,12.1,2.03-2.71,2.16-5.49,2.37-8.18,.79-9.89,0-19.67-2.1-29.36-2.38-10.97-6.31-21.34-11.57-31.23-1.07-2.01-2.08-4.04-3.12-6.07,1.6-1.18,2.17,.07,2.58,.66,11.15,16.29,18.52,34.05,20.97,53.77,1.35,10.93,.86,21.71-1.4,32.46-.74,3.52-1.6,7.16,1.88,10.49,1.71-1.65,1.91-3.86,2.31-5.95,2.49-12.84,2.64-25.81,1.37-38.74-1.62-16.64-6.07-32.57-13.76-47.5-4.3-8.34-9.61-15.97-16.04-22.82-10.23-10.9-28.55-17.82-37.75-21.96-3.08-1.38-6.32-2.76-6.19-3.14,.25-.73,13.2,2.03,24.78,7.23,3.26,1.46,17.99,7.73,30.92,22.9,12,14.08,19.56,30.43,24.46,48.12,3.61,13.04,5.49,26.36,6.35,39.85,.14,2.17-.3,4.54,.9,6.08,1.86,.6,2.02-.5,2.08-1.06,2.4-23.94,.27-47.16-11.86-68.53-1.97-3.46-1.54-7.34-3.32-10.73,5.13,5.22,8.84,11.41,11.87,17.84,5.75,12.22,9.97,24.98,11.7,38.51,1.7,13.26,1.28,26.36-1.41,39.43-1.41,6.83-3.34,13.57-3.76,20.59-.19,.15-.43,.27-.58,.46-.09,.12-.05,.34-.06,.52,.15-.39,.3-.78,.45-1.16,2.96-1.33,3.28-4.43,4.42-6.89,1.82-3.98,3.28-8.12,4.93-12.18,1.08-2.66,1.66-5.4,1.97-8.26,3.81-35.31-5.47-67.05-25.95-95.75-1.35-1.89-2.76-3.74-4.14-5.61-.59-.8-.18-1.34,.43-1.84l-.13,.16c2.55,.97,4.01,3.19,5.69,5.11,20.06,22.93,31.9,49.47,34.94,79.86,.44,4.36,.92,8.72,1.37,12.97,1.92-6.44,1.87-16.59,.27-30.38-1.19-10.33-4.66-20-8.83-30.97,4.9,5.19,6.02,10.89,10.13,16.57-3.43-16.51-9.56-29.94-20.11-41.25-1.65-1.77-4.48-3-3.73-6.27l-.02-.04c.36,.67,.55,1.54,1.09,1.97,17.32,13.59,26.42,32.16,31.72,52.92,1.53,6,2.28,12.2,3.4,18.31,.18,.97-.12,2.12,1.25,3.02,1.03-5.7,.75-11.29,.32-16.82-1.73-22.19-9.78-41.66-25.39-57.73-1.91-1.97-3.53-4.56-6.73-4.83h-.03c1.78-.67,3.33-.71,4.99,.65,5.63,4.64,10.61,9.85,14.76,15.85,8.1,11.68,12.9,24.71,15.55,38.58,.78,4.06,1.16,8.19,1.75,12.29,.14,.95,0,2.03,1.05,2.61,1.02,.1,1.4-.64,1.45-1.37,.73-10.36,.86-20.7-1.3-30.93-1.02-4.82-2.56-9.5-4.82-13.89-.92-1.79-1.08-3.39-.12-5.12,0,0-.07,0-.07,0,.18,.74,.15,1.63,.56,2.18,5.34,7.21,8.44,15.39,10.61,23.99,.25,.99,.29,2.07,1.27,2.72,1.36-.77,1.21-2.1,1.18-3.35-.03-1.29-.14-2.57-.22-4.06,2.28,2.13,2.42,4.77,2.72,7.36,.83,7.22,1.12,14.44,.43,21.71-.36,3.81-1.03,7.64-.68,11.46,1.77,.31,1.87-.88,2.06-1.7,2.96-12.25,3.68-24.58,.67-36.92-3.1-12.72-9.91-23.24-19.48-32.05-9.56-8.81-20.08-16.32-31.27-22.9-15.02-8.82-31.01-15.43-47.62-20.58-2.17-.67-4.34-1.39-6.35-2.56,17.06,2.59,33.28,7.98,49.06,14.83,15.81,6.86,30.12,16.02,42.82,27.7,.55,.55,1.1,1.1,1.66,1.65,.62,.62,1.4,1.78,2.15,1.12,1.22-1.07,.08-2.04-.79-2.84-.46-.58-.92-1.16-1.38-1.73-7.22-9.37-16.48-16.41-26.34-22.68-15.47-9.83-32.44-16.05-50.21-20.14-13.27-3.06-29.8-5.17-29.8-5.17-7.48-1.13-12.22-1.73-12.2-1.96,.04-.4,14.3-.1,29.37,2.15,20.89,3.12,41.12,8.12,59.87,18.17,7.33,3.93,14.2,8.54,20.66,13.77,1.77,1.43,3.22,3.39,5.63,3.72,1.34-.56,1.44-1.74,.77-2.49-1.88-2.12-3.86-4.2-6.02-6.02-17.94-15.1-38.52-25.13-60.97-31.47-15.54-4.39-31.37-6.75-47.55-6.43-4.39,.09-8.78,.01-13.21-.39,5-1.63,10.22-2.13,15.35-2.34,33.44-1.39,65.51,4.1,95.54,19.56,1.43,.74,2.76,2.69,4.82,1.23,0,0-.01,0-.01,0,.56,2.7,3.12,3.23,4.98,4.43,8.93,5.8,17.19,12.39,24.51,20.15,15.33,16.26,24.73,35.53,29.17,57.32,3.69,18.09,4.36,36.45,4.55,54.83,.16,15.27,.12,30.53,1.71,45.75,1.24,11.88,3.2,23.6,7.65,34.74,1.99,4.98,3.66,10.21,7.82,14.01,.89,.54-.58,.64,.44,.47,.14-.02,.38-.21,.37-.23-.22-.49-.55-.5-.95-.04,1.23-2.07,.32-4.03-.41-5.94-1.66-4.36-3.42-8.68-5.12-13.02-1.74-4.44-2.66-8.1-4.33-14.9-.71-2.87-1.24-5.33-1.61-7.18,1.78,2.84,2.74,6.23,4.05,9.48,1.35,3.36,2.92,6.64,4.57,9.86,1.53,3,3.31,5.87,4.96,8.8,1.78,3.16,3.55,6.33,5.31,9.5,1.71,3.07,2.48,6.64,4.93,10.23,1.7-4.45,.78-7.97-.44-11.27-1.61-4.36-3.27-8.81-5.66-12.76-11.64-19.23-15.3-40.53-16.77-62.45-.38-5.69-.66-11.39-.95-17.08-.13-2.55-.24-5.1,.04-5.98-.32,3.18,1.82,7.57,2.51,12.15,2.18,14.36,5.32,28.53,10.41,42.19,3.1,8.3,7.05,16.14,12.22,23.35,.87,1.21,1.56,2.75,3.43,2.74,1.49-1.01,1.54-2.61,1.63-4.15,.34-5.51-.82-10.83-2.2-16.11-1.71-6.54-4.2-12.82-7.15-18.88-7.58-15.56-11.69-32.02-14.01-49.11-3.78-27.73-11.8-54.13-25.95-78.46-.39-.67-.74-1.37-1.04-2.08-.07-.16,.14-.43,.24-.73,1.98,.94,2.69,2.93,3.75,4.58,13.16,20.56,21.5,43.02,26.29,66.89,1.38,6.86,2.73,13.72,4.28,20.54,2.71,11.97,7.35,23.19,13.42,33.84,3.72,6.53,7.48,13.04,10.98,19.69,3.4,6.43,6.13,13.14,7.48,20.36,1.52,8.13,1.7,16-4.24,22.66,.74,2.24,1.41,4.18,2.03,6.14,2.49,7.83,1.78,15.48-2.1,22.59-1.94,3.57-3.11,7-2.56,11.04,.17,1.25,.21,2.75-.31,3.84-2.32,4.84-.79,9,1.77,13.14,.67,1.09,1.08,2.36,1.48,3.59,1.41,4.34,4,7.8,7.63,10.21,.23,2.23-1.28,2.98-2.52,3.82-6.99,4.71-14.75,7.68-22.99,9-16,2.55-31.49,.93-46.1-6.66-9.22-4.79-18.08-10.12-26.32-16.46-1-.77-2.16-1.36-3.26-1.99-.14-.08-.41,.08-.95,.21,1,6.55,3.65,13.05,2.33,19.78-.95,4.84,.83,9.84-1.26,14.53-2.18,4.92-3.36,10.28-6.56,14.71,1.06,.01-.03-1.07,.57-.23,.1,.14,.14,.5,.11,.51-.54,.2-.72,.02-.51-.49,7.74-7.2,15.13-18.23,14.07-35.22,1.77,1.44,2,3.43,2.26,5.38,.94,7.08,.23,13.97-2.4,20.64-2,5.09-4.58,9.88-7.49,14.49-2.9,4.61-5.87,9.17-8.81,13.76-6.86,10.7-9.81,22.02-6.8,34.81,1.94,8.25-5.59,15.32-14.01,13.91-1.27-.21-2.53-.61-3.74-1.04-23.14-8.24-42.18-21.95-56.17-42.34-10.53-15.35-16.1-32.43-17.07-50.97-.49-9.45,.3-18.79,3.77-27.75-1.48,12.71-.86,25.22,2.57,37.86,2.09-.85,1.54-2.17,1.46-3.19-.74-8.8-1.06-17.61-.25-26.43,.3-3.33,.23-6.72,2.04-9.79-.37,.99-.84,2.51-.96,4.39-.09,1.32,.1,1.78,.26,4.66,.1,1.81,.16,3.63,.26,5.44,.1,1.81,.15,3.64,.37,5.43,.19,1.54,.62,3.04,.91,4.56,.33,1.74,.61,3.48,1.42,5.17,0-3.83-.07-7.67,.01-11.5,.22-9.63,1.4-19.08,5.3-28.02,.39-.9,.23-2.04,.33-3.07-.42,4.86-.76,9.73-1.28,14.58-1.42,13.09,.4,25.81,4.36,38.27,.37,1.17,.75,2.52,2.35,2.8,.92-2.29,.02-4.56-.22-6.81-.52-4.88-1.31-9.74-1.76-14.63-1.38-14.94,1.78-28.78,10.11-41.38,5.41-8.18,11.36-16.01,15.67-24.5,1.7-.3,2.9-.52,4.24-.76,.79-3.08,1.43-6.12,2.37-9.07,.89-2.82,.62-6.17,3.11-8.25,.97,.31,.99,1.66,2.45,.79,2.54-11.18,6.78-22.18,10.99-35.03-1.55,2.09-2.15,2.64-2.44,3.33-9.68,22.82-23.41,43.15-38.46,62.67-4.1,5.32-8.24,10.59-13.19,15.16Zm99.23-205.43c-.15-.12-.3-.24-.45-.36,.23,.05,.45,.11,.67,.16,.02,.21,.01,.42,.07,.62,.05,.15,.18,.27,.27,.4-.19-.27-.37-.54-.57-.81Zm-7.05-11.92c-.69-.45-.98-2.18-2.11-1.09-1.07,1.02,.25,1.66,.96,2.28,1.31,2.63,3,4.93,6.19,7.51-1.19-4.13-3.01-6.47-5.04-8.7Zm11.37,5.86c.35,.23,.69,.45,1.04,.68,.06-.16,.22-.39,.16-.48-.48-.78-.95-.52-1.37,.08,.18-.71,.72-1.58,.48-2.1-2.77-6.17-6.43-11.76-11.26-16.52-.44-.44-1.4-.66-2.12,.95,4.01,5.77,8.86,11.36,13.06,17.4Zm-25.62,221.74c-.47-.53-.99-1.33-1.73-.65-.64,.59-.18,1.39,.25,2.03,1.53,4.91,3.34,9.72,4.11,14.87,.59,3.97-1.46,8.52,2.85,11.87,1.3,1.01-.55,3.97,.93,6.01,2.86-3.53,3.03-7.84,3.07-11.8,.08-8.67-1.21-17.07-9.48-22.33Zm-12.08-12.16c.14-.16,.27-.46,.42-.47,.75-.04,.85-.22,.23-.5-.07-.03-.44,.62-.68,.96,1.17-1.31,1.16-2.76,.62-4.34-1.35-3.91-2.61-7.86-3.98-11.76-.39-1.11-.37-2.58-1.95-2.92-5.6,18.34-2.65,54.68,5.26,68.28,1.87-1.12,1.59-3.01,1.65-4.74,.2-6.26-1.01-12.37-1.96-18.51,.54-.43,1.08-.86,1.62-1.28,2.58,2.48,1.85,6.83,5.21,9.59,1.43-10.21-.85-19.04-5.41-27.41-1.11-2.05-2.38-4.01-3.44-6.09-.36-.7-.04-1.68,.72-1.93,.76-.25,1.39,.36,1.7,1.13Zm41.59-116.83l.06-.02c-2.64,14.01-3.1,28.83-1.2,38.95,.29-.37,.78-.72,.84-1.13,1.19-8.45,2.79-16.9,2.71-25.45-.12-12.16-.32-24.3,.83-36.43,.36-3.86,.27-7.76,.27-11.65,0-.85,.37-2.07-1.28-2.64-1.49,3.37-1.1,7.07-1.8,10.54-2.24,11.21-5.66,22.07-9.34,32.86-3.67,10.79-7.34,21.58-10.88,32.41-1.11,3.41-2.3,6.86-2.33,10.45,.82,.45,1.45,.79,2.25,1.23-.82,5.85-.75,11.77,.05,17.71,.82,6.07,1.26,12.23,5,19.42,.14-9.36-.96-16.98-.32-24.62,.66-7.92,.53-15.93,2.78-23.7,2.24,.7,2.02,2.44,2.09,3.91,.23,4.92,.15,9.86,.55,14.76,.68,8.31,1.42,16.64,4.56,23.59,.41-5.08-2.1-10.77-1.27-16.65,.96-.11,1.65-.18,2.36-.26-.6-7.84-1.44-15.56-1.74-23.3-.48-12.48,.51-24.85,3.69-36.98,.35-1.33,.76-2.44,2.11-2.98Zm-77.43,161.68c0-2,.07-4-.02-6-.09-2.07-.37-4.12-.51-6.19-.12-1.81-.18-3.62-.24-5.43-.06-2.07-.12-4.14-.13-6.22,0-2.07,.03-4.14,.08-6.22,.06-2.07,.11-4.15,.28-6.21,.17-2.06,.5-4.11,.72-6.17,.22-2.06,.32-4.14,.59-6.19,.23-1.79,.65-3.56,.95-5.35,.34-2.04,.61-4.1,.95-6.14,.3-1.8,1.23-3.58,.23-6.24-3.23,5.64-5.86,10.67-8.88,15.45-8.28,13.1-10.49,27.43-8.69,42.51,.72,6.08,1.73,12.2,5.3,18.22-1.33-25.49,.68-44.15,5.07-49.63,0,6.48-.11,13.18,.03,19.87,.15,6.85,.49,13.7,4.25,19.94Zm26.35-131.35c-.6,.92-1.12,1.6-1.5,2.34-.37,.72-1.11,1.56,.14,2.26,.85-1.34,1.78-2.58,1.36-4.6Zm39.15-51.33c.24-1.11,.52-2.05,.61-3.01,.04-.41-.35-.85-.54-1.28-.31,.27-.82,.49-.89,.81-.27,1.13-.7,2.36,.83,3.48Zm-103,197.97c-1.13,.89-.6,1.76-.03,2.67,.97-.89,.8-1.77,.03-2.67ZM346.54,116.79l-.47-.29-.04,.51,.51-.22Z"/>
      <path class="cls-1" d="M201.35,433.26c-.17-.87-.35-1.74-.52-2.61,.24-.22,.49-.45,.73-.67,9.15,8.58,16.29,18.71,22.75,29.38,1.03,1.71,1.39,4,4.15,4.95-2.22-12.47-7.03-23.43-14.69-33.16-5.63-7.14-12.29-13.33-18.53-19.91-4.99-5.27-9.97-10.55-14.72-16.03-4.77-5.5-8.7-11.61-11.55-18.36-4.16-9.85-4.6-17.65-1.52-27.15,1.22,.92,.71,2.24,.73,3.33,.13,10.46,3.5,19.84,9.41,28.34,2.36,3.39,4.99,6.63,7.73,9.72,5.95,6.72,21.92,21.09,28.72,26.09,1.6-1.11,.49-2.17-.17-3.08-1.54-2.09-3.17-4.1-4.8-6.12-7.49-9.32-13.98-19.3-19.64-29.82-.7-1.3-1.83-2.49-1.47-4.2,1.19-.07,1.66,.84,2.23,1.6,8.45,11.19,18,21.42,27.49,31.71,6.85,7.43,13.58,14.97,19.68,23.06,5.79,7.68,10.95,15.75,14.73,24.63,4.54,10.67,6.92,21.69,5.19,33.36-.23,1.53-.31,3.12-.16,4.65,.61,6.49,.36,12.95-.25,19.41-.1,1-.01,2.01-.01,2.97,2.15,.4,2.45-1.12,2.8-2.15,2.08-6.17,3.36-12.54,3.52-19.04,.2-8.03,.13-16.07-.01-24.1-.05-2.55-.71-5.09-.61-7.73,.83,4.42,1.54,8.86,2.52,13.24,1.09,4.84,1.02,9.79,1.62,14.67,.54,4.4-1,9.04,1.1,13.35,1.86-.71,1.91-2.09,2.18-3.32,2.29-10.43,3.5-20.97,2.75-31.65-.25-3.59-1.02-7.14-1.55-10.71l-.33-.08c3.18,6.38,4.3,13.21,4.44,20.25,.26,13.23-.03,26.43-2.83,39.45-.36,1.67-1.26,3.5,.16,5.19,2.31-.28,2.52-2.29,3.05-3.88,2.69-8.16,4.22-16.55,4.76-25.12,.24-3.88,.16-7.77,.32-11.66,.12-3.02,.39-6.04,.19-9.03,.44,5.1,.94,10.19,1.32,15.29,.98,13.32-.25,26.42-4.79,39.04-7.77,21.58-22.79,36.15-44.09,44.11-21.4,8-42.62,6.98-63.4-2.55-1.39-.64-2.67-1.49-3.9-2.18-.3-3.75,1.89-6.1,3.76-8.5,9.29-11.97,7.53-8.32,8.85-24.76,1.06-13.16-2.4-25.16-11.08-35.4-4.02-4.74-7.95-9.56-11.98-14.3-6.59-7.75-11.94-16.22-16.06-25.56-7.66-17.36-13.79-35.18-17.03-53.93-2.39-13.85-3.49-27.74-1.57-41.76,.28-2.01-.09-4.11-.15-6.17-.57-.45-1.15-.9-1.72-1.35,3.57-5.47,5.63-11.51,7.33-17.79,2.09-7.74,5.18-15.16,8.49-22.47,4.27-9.43,9.22-18.51,14.27-27.54,.61-1.08,1.57-3.29,3.13-6.21,.71-1.32,3.52-6.49,7.54-12.33,11.33-16.47,20.34-33.13,37.24-52.48,.69-.79,1.33-1.57,1.26-2.7l-.02,.05c.66,1.18,1.02,2.4,.25,3.65-1.22,1.98-2.48,3.94-3.76,5.88-6.7,10.14-13.43,20.25-20.09,30.41-1.12,1.7-2.59,3.28-2.61,5.49,0,.16,.83,.34,1.28,.5l-.34-.31c-1.94-.82-1.8,.5-1.76,1.71,0,0,.17-.2,.17-.2-2.24,.9-2.55,1.53-1.67,3.33l.15-.15c-.63-.55-1.28-.65-1.76,.12-.8,1.27-1.52,2.58-2.27,3.87-.59,.96-1.17,1.92-1.76,2.88-12.83,19.85-23.28,40.85-29.67,63.67-6.55,23.38-7.25,46.91-.3,70.38,5.52,18.64,15.3,34.37,31.69,45.45,.58,.28,1.5,.94,1.69,.78,.98-.87,.27-1.53-.54-2.08-2.26-4.65-6.15-8.08-9.08-12.22-1.43-2.03-3.64-3.61-3.89-6.37,.46-.27,1.06-.84,1.28-.72,5.84,3.17,10.72,7.52,15.14,12.45,.95,.06,1.54,.45,1.49,1.47,.84,.15,1.68,.31,2.52,.47,1.37,.47,2.52,1.08,1.77,2.85,.39-.97-1.03-.5,0-.62,.17-.02,.52,.09,.52,.15,0,.63-.24,.73-.67,.3-.96,.25-1.96,1.39-2.68-.46-.55-1.42,.97-1.29,1.22-2.05-.9-.24-1.81-.48-2.71-.71-.04-1.04-.6-1.45-1.6-1.33,.67-.83,1.29-1.79,.55-2.78-1.39-1.86-2.91-3.62-4.43-5.38-6.94-8.03-13.78-16.15-19.23-25.32-4.94-8.31-8.7-17.11-9.9-26.76-1.29-10.33-1.14-20.69,.68-30.96,4.51-25.43,13.26-49.41,24.87-72.4,1.04-2.06,2.57-3.92,2.85-6.32,1.23-.6,1.47-1.81,1.81-2.95,.81-.72,1.62-1.44,2.42-2.16l-.23-.07c-1.32,3.07-2.58,6.17-3.98,9.2-9.83,21.26-17.34,43.28-21.52,66.36-2.23,12.29-3.16,24.64-1.02,37.13,2.01,11.73,6.29,22.44,13.35,31.98,2.77,3.74,5.87,7.26,9.06,10.66,8.15,8.69,17.29,16.31,26.17,24.1,1.44-1.29,.85-2.2,.28-3.02-3.64-5.36-7.34-10.68-10.97-16.05-4.35-6.45-8.81-12.82-12.94-19.41-15.99-25.55-19.6-53.07-12.74-82.21,3.22-13.67,8.13-26.69,14.73-39.6,.12,2.66-.94,4.44-1.69,6.34-.85,2.17-1.53,4.4-2.32,6.59-4.74,13.23-8.04,26.75-9.28,40.81-1.35,15.36,1.2,29.96,7.31,44,2.69,6.19,6.04,12.05,9.79,17.66,7.8,11.66,16.64,22.5,26.07,32.86,1.46,2.18,2.78,4.49,5.18,5.83,.3,.58,.55,1.66,1.35,.99,.7-.59,.04-1.27-.75-1.54-.6-2.76-2.22-4.81-4.44-6.45Zm-6.37,16.81c-.1-1.03-1.07,.11-.29-.57,.14-.12,.51-.21,.53-.17,.33,.54,.16,.77-.47,.65-.73-.11-.86-.46-.31-.95,.14-.12,.53-.15,.68-.04,.57,.39,.5,.8-.15,1.09Zm13.6-5.47c.68,1.34,1.72,.95,2.76,.57,.62-.08,1.05,.22,.86,.75-.34,.95-1.03,.66-1.46,.1-.4-.53-.13-.87,.47-.72-.95-.16-1.9-.32-2.84-.49,.13-.56,.77-1.4-.62-1.12,.27,.31,.54,.61,.83,.91Zm10.7-21.02c-.19-.62-.09-.72,.31-.29-.19,.05-.38,.11-.57,.17-.71-.58-1.43-1.16-2.14-1.74-.15-.81-.37-1.53-1.45-1.31,.16-.32,.32-.63,.47-.95-.1,.29-.2,.57-.22,.8,.9,.08,1.4,.52,1.38,1.46,1.12,.18,1.91,.76,2.21,1.86Zm53.04,99.27c-1.88,2.4-3.32,4.11-2.34,7.22,2.1-1.93,3.39-3.7,2.34-7.22Zm-5.22-17.48c-.58,1.76-2,3.35,.38,5.03,.26-.75,.55-1.46,.75-2.18,.28-1.05,.19-2.02-1.13-2.84Zm1.59,26.71l-.32,.5,.51,.06-.19-.56Z"/>
      <path class="cls-1" d="M130.77,303.03c.88-.69,1.76-1.38,2.65-2.07,.4,.35,.79,.7,1.19,1.05-1.02,1.8-1.96,3.65-3.06,5.4-7.3,11.64-14.63,23.26-21.96,34.88-5.8,9.21-11.61,18.42-16.64,28.1-6.13,11.8-10.85,24.1-13.26,37.21-2.54,13.79-3.4,27.78-4.67,41.72-.06,.7,.22,1,.68,.91,.36-.34,.88-.62,1.07-1.04,.84-1.89,1.61-3.81,2.37-5.73,5.87-15.03,9.58-30.62,12.61-46.44,2.59-13.53,6.59-26.66,13.53-38.71,.39-.67,.65-1.45,1.16-2,.34-.36,.71-1.51,1.72-.37-3.85,8.43-7.16,17.09-9.01,26.28-2.37,11.77-3.17,22.3-1.66,28.14,2.5-8.2,2.5-16.45,4.83-24.28,.99,6.2,.73,12.39,.43,18.56-.29,5.95-1.03,11.89-1.27,17.84-.25,6.12-2.43,12.05-2.01,18.29,1.98-.19,2.18-1.66,2.5-2.79,1.34-4.75,2.15-9.57,2.39-14.54,.58-11.65,1.05-23.32,2.94-34.86,1.94-11.83,5-23.3,11.54-33.56,.57,.45,1.15,.9,1.72,1.35-1.43,4.96-2.93,9.9-4.28,14.88-3.78,13.95-4.66,28.1-2.27,42.36,1.76,10.48,3.69,20.92,4.18,31.56,.02,.42,.56,.81,1.04,1.46,1.88-6.76,1.87-13.46,1.33-20.15-.43-5.32-1.13-10.94-1.79-15.42-.54-3.59-1.06-6.58-1.45-8.7,7.87,23.26,9.08,43.71,6.42,56.29-2.31,10.9-6.21,18.05-6.21,18.05-2.23,4.42-4.95,8.62-8.15,12.59-1.29,1.6-2.43,3.31-3.64,4.97-.88,.21-1.39,.74-1.4,1.68-.92,.26-1.83,.51-2.73,.77,.12,.45,.22,.9,.35,1.33,.02,.06,.36,.11,.38,.07,.41-.84-.48-.95-.8-1.39,1.02,.05,2.37,1.06,2.68-.93,1.1,1.36,1.74,.05,2.52-.44,9.38-7.38,14.49-17.4,17.52-28.64,1-3.71,1.59-7.52,2.4-11.44,1.67,.69,1.2,2.11,1.21,3.13,.03,21.78-8.41,39.16-26.68,51.48-11.18,7.54-23.64,11.64-36.77,13.91-7.14,1.23-14.35,2.09-21.63,2.15-6.35,.05-8.25-1.12-10.24-7.15-1.22-3.68-2.18-7.45-3.1-11.22-3.26-13.38-4.58-27.06-6.09-40.7-1.05-9.53-2-19.07-2.27-28.67-.75-26.49,7.11-50.02,24.02-70.45,2.13-2.57,4.18-5.27,7.19-6.9,1.48,1.31,.5,2.3-.17,3.33-2.4,3.69-4.82,7.37-7.18,11.08-.4,.62-.55,1.4-.79,2.06,.62,.94,1.17,1.79,1.73,2.64-.64,1.45-2.39,2.76-.6,4.52,1.36-.49,1.9-1.63,2.46-2.76,5.06-7.08,10.11-14.17,15.19-21.23,5.14-7.14,10.99-13.51,19.05-17.48,.34-.17,.44-.82,.66-1.25,0,0-.23,.09-.23,.09,1.91,.43,3.81,.86,5.99,1.35-2.6,.28-4.52,.92-5.63,1.36-10.43,4.08-13.3,13.39-17.81,22.17-.69,1.35-1.92,3.45-1.41,4.2,1.98,2.9-.2,4.91-.92,7.21-1.15,3.7-2.39,7.37-3.6,11.05-.88,2.68-2.11,5.33,1.23,7.43,.95,.6,.45,2.03-.09,2.8-.53,.77-1.45,1.44-2.64,.96-.48-.19-.99-.32-1.5-.4-1.16-.17-1.81-.84-2.06-1.95-.31-1.4,.16-3.07,1.35-3.18,3.48-.33,4.35-2.76,5.43-5.38,5.87-14.22,13.71-27.25,23.75-38.93,.84-.98,1.77-1.9,1.78-3.32,0,0-.02,.03-.02,.03,.69,1.16,1.09,2.39,.34,3.64-1.34,2.22-2.78,4.37-4.14,6.57-15.95,25.91-22.91,54.09-21.38,84.59,1.94-1.23,1.9-3.17,2.27-4.85,.73-3.28,1.32-6.6,1.92-9.91,5.13-28.49,15.67-54.62,33.28-77.81,7.2-9.48,13.82-19.41,20.62-29.19,1.45-2.09,3.44-3.92,3.91-6.61l-.2,.26c1.42-.74,2.27-1.75,1.69-3.46l-.23,.3c1.47,.27,1.72-.7,1.85-1.81l-.27,.28c1.13-.07,1.56-.86,1.84-1.8l-.18,.25c1.18-.84,1.95-1.88,1.69-3.44l-.23,.29c1.25,.06,1.62-.78,1.83-1.78l-.09,.26Zm-31.37,141.51c-.17-.4-.35-.8-.52-1.2-.18,.17-.49,.32-.5,.5-.02,.42,.1,.86,.16,1.29,.29-.19,.58-.39,.87-.59Z"/>
      <path class="cls-1" d="M111.03,287.84c.62-.34,1.24-.68,1.86-1.02l-.19-.09c1,1.31,.39,2.4-.57,3.33-4.21,4.1-8.44,8.17-12.67,12.25-1.64,1.59-3.29,3.17-4.94,4.75-.53,.39-1.55,.88-1.5,1.16,.23,1.23,1.26,.82,2.08,.66,.22-.04,.41-.21,.61-.32,7.89-1.77,13.96-6.49,19.45-12.11,4.72-4.84,8.52-10.39,12.36-15.91,3.39-4.88,6.78-9.77,10.35-14.53,3.27-4.36,7.14-8.18,11.48-11.48,1.01-.76,1.96-1.67,3.36-1.47,.78,.87,.04,1.34-.46,1.78-7.1,6.2-12.54,13.73-17.17,21.86-5.12,8.99-10.17,18.01-15.21,27.04-.58,1.04-1.47,2.19-.36,3.5,1.5,.45,2.37-.52,3.06-1.53,2.31-3.43,4.62-6.87,6.77-10.39,4.18-6.84,8.23-13.76,13.12-20.14,1.1-1.44,2.46-2.71,3.33-4.27,.97-1.73,3.48-1,4.16-2.95l.19,.05c-.68,.31-1.69,.43-1.98,.95-6.08,10.73-12.08,21.5-18.09,32.27-.49,.88,.13,1.35,.71,1.83,0,0,.09-.26,.09-.26-1.88-.72-1.85,.54-1.83,1.78,0,0,.23-.29,.23-.29-2.31,1-2.63,1.64-1.69,3.44,0,0,.18-.25,.18-.25-1.8-.61-1.85,.56-1.84,1.8,0,0,.27-.28,.27-.28-1.36-.16-1.74,.69-1.85,1.81,0,0,.23-.3,.23-.3-1.45,.72-2.67,1.56-1.69,3.46,0,0,.2-.26,.2-.26-2.67-.5-3.34,1.95-4.55,3.32-8.02,9.15-17.58,16.04-28.97,20.36-2.18,.83-4.3,1.79-6.45,2.69-.84,.35-1,.99-.72,1.8,0,0,.23-.09,.23-.09-.68-1.01-1.58-1.04-2.67-.74-5.73,1.59-11.43,3.33-17.23,4.65-7.33,1.67-14.77,2.6-22.33,2.4-7.89-.21-15.43-1.66-22.32-5.66-1.82-1.06-3.69-1.7-5.75-2.14-6.89-1.47-10.43-6.26-11.96-12.82-.87-3.74-.08-7.16,2.02-10.36,4.83-7.34,9.54-14.76,14.41-22.07,1.64-2.46,2.58-4.78,1.99-7.93-1.62-8.62-.51-17.05,3.03-25.08,1.17-2.65,1.69-5.42,2.28-8.2,2.58-12.29,9.14-21.78,19.68-28.64,10.62-6.93,22.33-10.77,34.74-12.64,9.29-1.4,14.95-1.36,17.01-1.24,9.32,.54,16.86,3.03,16.79,3.34-.06,.3-7.35-2.26-18.04-2.27-17.72-.01-29.48,7.3-32.1,8.53-1.81,.85-3.92,1.43-5,3.46,1.16,1.11,2.33,.36,3.44,.03,4.31-1.27,42.83-8.61,54.63-5.23,.46,.13,1.79,.51,1.75,.81-.07,.64-6.35,.12-13.21,.14-10.98,.02-21.57,2.35-32.02,5.46-1.22,.36-2.38,.96-3.54,1.51-.16,.08-.17,.47-.25,.71,.89,.4,1.78,.8,2.8,1.26-9.72,5.09-19.15,10.39-24.29,20.69-1.76,1.29-1.49,2.84-.57,4.47-.53,.13-.49-1.68-1.36-.41,.45,.13,.91,.26,1.36,.4,.58-1.14,1.17-2.28,1.75-3.42,1.51-1.42,3.04-2.81,4.52-4.27,10.33-10.16,22.81-15.96,36.96-18.45,12.37-2.17,24.78-1.79,37.2-.73,8.19,.7,16.29,1.93,24.11,4.21-5.19-.8-12.58-1.66-21.56-1.73-.51,0-2.73-.04-5.75,.07-11.68,.42-23.28,1.35-34.59,4.55-5.25,1.49-10.3,3.5-15.11,6.09-1.35,.73-2.68,1.46-3.29,3.47,2.74,1.61,5.06-1.14,7.8-.64-4.34,3.86-9.52,6.66-12.17,11.96-.34,.81-1.8,1.48-.64,2.47,1.08,.93,1.74-.36,2.51-.89,3.54-2.58,7-5.25,10.62-7.7,12.65-8.56,26.59-12.03,26.59-12.03,10.12-1.99,18.66-.64,18.68-.18,.02,.48-9.36-.32-19.49,3.04-10.49,3.48-18.02,10.16-23.17,16.1-.94,.15-1.47,.65-1.45,1.65-.96-.03-1.47,.47-1.61,1.4-.76,.28-1.52,.56-2.25,.88,.02-.03,.01-.1,0-.16,.97,.32,1.98,.74,2.09-.91,1.21,.36,1.87,.06,1.62-1.34,1.06,.83,1.78,.05,2.54-.54,17.44-11.11,36.74-16.33,57.15-18.03,1.03-.09,2.11,0,3.08-.28,2.07-.59,4.06-.83,6.04-.32,.81,.21,2.12,.47,2.15,.87,.12,1.54-18.63,1.77-39.57,8.98-15.47,5.32-23.58,11.75-27.34,14.54-3.92,2.92-7.93,5.83-10.31,10.32-.62,.23-1.24,.47-1.86,.7-.56,1.57-1.46,3.14-.12,4.76-.92,.27-1.89,.47-2.35,1.45-.14-.07-.3-.12-.46-.17,.12-.03,.25-.07,.37-.1-.08,.13-.17,.26-.25,.4,.64-.95,1.49-1.53,2.66-1.56,.34-.88,.7-1.75,1.02-2.64,.37-1.03,.03-1.81-.9-2.32,.59,2.09,1.73,1.45,2.9,.62,5.63-4.31,10.66-9.41,17-12.76,.65,.59,1.29,1.18,1.94,1.78-1.15,1.39-2.29,2.79-3.44,4.18-1.02,1.25-.64,2.35,.34,3.4-1.23-.14-1.95,.54-2.49,1.5,1.05-.02-.64,.7-.39-.29,.08-.3,.5-.07,.04,.37,.64-1.08,1.59-1.59,2.84-1.57,.2-.46,.28-1.09,.63-1.37,9.68-7.86,19.83-14.99,31.48-19.67,4.57-1.84,6.93-2.73,10.32-3.34,9.91-1.79,18.07,.61,18.04,.94-.03,.29-6.53-1.35-14.97,.74-3.47,.86-6.41,2.34-10.92,4.67-7.94,4.1-15.09,9.45-21.51,15.95-1.72,1.41-3.44,2.82-5.17,4.23-1.13,.92-1.96,2.32-3.68,2.31,.22,1.01-.36,1.48-1.18,1.81-.6,.82-1.22,1.59-1.83,2.35,.5-.32,.6-.26,.3,.17-.06-.16-.13-.31-.19-.47,.99-.46,1.53-1.24,1.64-2.33,1.2,.12,1.17-.77,1.28-1.55,1.03,.81,2.22,1.43,3.39,.6,2.42-1.72,4.72-3.62,7.06-5.45,.48,.15,.97,.3,1.45,.45-3.03,5.53-9.4,12.96-16.66,19.44,.53-.49,.69-.42,.46,.17-.14-.16-.27-.32-.41-.47,2.51,.77,4.51-.49,6.5-1.69,5.3-3.21,10.23-6.93,14.88-11.02,4.63-4.09,9.18-8.27,13.81-12.37,1.48-1.31,3.09-2.45,4.64-3.67,.39,.52,.63,.7,.64,.9,0,.23-.13,.51-.29,.7-6.69,7.82-13.39,15.64-20.09,23.45-.51,.52-1.02,1.03-1.53,1.55-.36,.29-.79,.53-1.06,.88-.25,.32-.58,.93-.44,1.14,.47,.74,1.21,.48,1.79,.1,.35-.23,.55-.69,.82-1.05,.89,0,1.54-.38,1.94-1.17Zm-1.26,31.52c.43-.7,2.2-.97,1.14-2.09-1.04-1.1-1.6,.27-2.15,1.02-.68,.21-1.45,.77-1.14,1.32,.7,1.28,1.45,.17,2.15-.25Zm-55.37-61.01c.52-1.08,1.33-1.73,2.56-1.78-.07-.22-.27-.51-.2-.66,.35-.72,.29-.97-.29-.81,.15,.45,.31,.9,.46,1.35,.04,1.61-.71,2.2-2.24,1.7-.58,.07-.63-.01-.16-.24-.05,.15-.1,.29-.14,.44Zm6.92-5.73c1.47-3.37,4.93-4.33,7.59-6.26,.92-.67,2.22-1.17,1.35-3.28-3.88,1.2-6.65,3.77-9.18,6.62-.76,.86-.09,1.97,.25,2.93-.59,.23-.43-1.65-1.36-.49,.45,.16,.9,.32,1.35,.49Zm53.02,61.54c3.9-2.52,6.29-4.14,5.67-8.08-3.31,1.33-4.66,3.54-5.67,8.08Z"/>
      <path class="cls-1" d="M181.49,76.55c1.56-.41,3.04-.42,4.42,.63,3.51,2.65,7.25,5.04,10.56,7.92,15.91,13.84,26.92,30.7,31.14,51.63,6.67,33.04-9.01,59.64-31.14,72-1.58,.88-3.08,1.91-4.56,2.96-13.07,9.2-27.54,11.61-42.95,8.4-13.02-2.71-24.41-8.77-33.31-18.77-12.78-14.37-16.42-30.98-10.03-49.18,5.54-15.79,17.32-24.06,33.87-25.48,5.17-.44,10.32-.11,15.37,1.48,13.65,4.29,22.68,15.28,24.07,29.45,.2,2.01-.42,4.13,.89,6.37,1.61-3.82,1.73-7.52,1.38-11.26-2.18-23.12-12.08-42.1-30.38-56.55-7.38-5.82-15.56-10.25-24.19-13.89-2.62-1.11-5.25-2.18-7.91-3.2-3.29-1.26-6.47-2.37-8.77-5.54-1.67-2.3-4.61-1.45-5.33,1.06-.27,.92-.73,1.89,.13,2.87,.99,1.14,2.61,1.64,3.44,.92,3.6-3.13,7.46-1.28,10.92-.48,30.35,7.01,51.71,25.06,64.56,53.36,1.16,2.55,1.7,5.41,3.64,7.68,1.41-.98,.79-2.29,.6-3.34-3.55-18.89-12.88-34.25-28.06-46.07-2.21-1.72-4.87-2.94-6.48-5.26,.64-1.63,1.76-1.15,2.52-.72,22.76,13.11,36.69,32.31,40.15,58.64,.74,5.65,1.02,11.36,.32,17.12,2.4-.4,2.39-2.24,2.59-3.76,1.2-8.89,.18-17.55-2.43-26.12-.86-2.82-2.66-5.47-2.3-8.73,2.49,1.14,1.99,5.07,5.19,5.25,.79-1.02,.66-2.01,.45-3.04-1.97-9.67-6.55-17.95-13.23-25.13-6.61-7.11-14.53-12.48-22.98-17.1-8.19-4.47-16.84-7.95-25.41-11.58-.4-.17-.72-.56-1.29-1.02,.97,0,1.77-.17,2.46,.03,10.7,3.12,21.24,6.65,31.24,11.63,5.12,2.55,10.02,5.44,14.62,8.82,9.21,6.77,15.98,15.43,20.33,26.01,2.87,6.99,4.82,14.21,6.2,21.63,.55,2.96,.66,6.1,2,8.79,1.8-.18,1.89-1.3,1.83-2.21-.33-4.65-.77-9.28-1.17-13.91,2.07,1.77,2.29,4.6,2.87,7.04,1.26,5.28,2.02,10.69,3,16.04,.27,1.47-.07,3.14,1.29,4.37,1.44-.63,1.07-2.03,1.18-3.11,1.28-11.9-1.07-23.24-5.59-34.18-7.02-16.97-18.41-30.52-32.85-41.63-.76-.58-1.9-.67-2.86-.99v.14Z"/>
      <path class="cls-1" d="M214.79,27.02c4.14-2.02,11.07-4.68,20.11-8.27,20.93-8.31,42.61-10.44,64.87-7.92,3.86,.44,7.76,.5,11.61,.95,12.95,1.54,24.6-2.24,35.58-8.64,2.27-1.32,4.48-2.55,7.09-2.99,5.78-.98,10.19,2.62,10.36,8.54,.04,1.29-.06,2.6-.28,3.87-.81,4.63-1.23,9.19,.59,13.75,.55,1.38,.51,3.07,.45,4.61-.1,2.37,.29,4.56,1.12,6.81,2.03,5.5,1.06,10.81-2.19,15.55-6.33,9.2-15.05,14.83-26.11,16.61-3.31,.53-6.59,.28-9.94-2.65,3.15-1.5,6.03-.62,8.59-1.36,3.01-.87,5.89-2,8.46-3.81,2.32-1.64,4.69-3.25,5.86-6-.88-1-1.76-.65-2.72-.19-3.03,1.45-6.01,3.08-9.16,4.19-6.44,2.27-13.05,3.23-19.86,1.75-2.02-.44-4.09-.64-6.14-.95,0,0,.01,0,0,0,4.59-.75,9.2-1.45,13.78-2.28,1.51-.27,2.98-.84,4.42-1.38,.41-.15,.68-.7,1.46-1.55-7.57-1.04-14.95,1.87-22.05-.73-.52-1.8,.91-2.09,2.02-2.46,3.68-1.23,7.41-2.32,11.09-3.57,1.19-.4,2.44-.93,2.74-2.85-4.95-.75-9.49,1.68-14.28,1.8-4.65,.11-9.27,1.15-13.95,.45-4.75-.7-9.75-.32-15.08-3.56,8.25-1.17,15.82,.3,24.05-2.82-6.61-.59-11.96-.96-17.29-1.57-12.87-1.48-25.71-3.2-38.59-4.55-5.92-.62-11.9-.58-17.85-.89-1.45-.07-2.99,.44-4.95-.98,21.97-2.6,43.42,.67,65.88-.59-3.72-2.78-7.3-2.65-10.56-3.39-3.79-.86-7.59-1.69-11.41-2.36-3.57-.62-7.17-1.14-10.78-1.48-3.57-.34-7.17-.4-10.78-1.03,4.45-1.4,9-2.04,13.61-1.85,9.06,.37,18.11,.94,27.17,1.32,1.36,.06,3.04,.96,4.09-.77,.02-1.11-.88-1.24-1.56-1.45-16.17-4.93-32.39-6.28-49-1.82-9.13,2.45-18.15,5.25-27.17,8.05-6.91,2.15-12.76,4.49-12.98,3.99-.28-.65,8.92-5.16,9.7-5.54Zm121.13,27.01l-.95,.68c.16,.17,.35,.5,.47,.48,.43-.08,.83-.29,1.25-.45-.25-.24-.51-.47-.76-.71Zm-6.94-8.3c.18-.14,.36-.28,.54-.43-.15-.17-.28-.47-.45-.49-.16-.02-.35,.25-.53,.39l.44,.52Z"/>
      <path class="cls-1" d="M152.07,83.65c-6.49-3.29-12.98-6.59-19.47-9.88,7.28,1.86,14.37,4.14,20.47,8.55-.33,.44-.67,.89-1,1.33Z"/>
      <path class="cls-1" d="M133.41,300.96c.59-1.9,1.41-3.61,3.41-4.41,0,0,.57,.48,.57,.48-.25,2.04-1.53,3.51-2.79,4.99-.4-.35-.79-.7-1.19-1.05Z"/>
      <path class="cls-1" d="M93.02,260.47c.34-.34,.62-.77,1.03-1.01,.58-.34,1.3-.82,1.9-.11,.62,.74,.02,1.31-.48,1.8-.34,.34-.78,.59-1.17,.88-.42-.52-.85-1.04-1.27-1.56Z"/>
      <path class="cls-1" d="M200.94,212.38c.94-.44,.3,.84,.35-.19,.02-.49-.36-.51-.52-.02,0,0,.17,.21,.17,.21Z"/>
      <path class="cls-1" d="M198.09,213.51c.95-.37,1.89-.75,2.85-1.12,0,0-.17-.21-.17-.21-.89,.46-1.79,.92-2.69,1.38,0,0,.02-.05,.02-.05Z"/>
      <path class="cls-1" d="M94.3,262.03c-.44,.43-.88,.87-1.32,1.3-.65-.59-1.29-1.18-1.94-1.78,.66-.36,1.32-.72,1.98-1.08,.42,.52,.85,1.04,1.27,1.56Z"/>
      <path class="cls-1" d="M114.59,284.87c.1,.63,.4,.74,.83,.26,.12-.13,.19-.47,.11-.58-.36-.49-.71-.42-.96,.17,0,.02,.02,.14,.02,.14Z"/>
      <path class="cls-1" d="M112.89,286.82c.9-.33,1.62-.82,1.72-1.92-.02-.03-.03-.16-.04-.18-.16,1.05-.25,2.19-1.84,2.03-.03-.02,.16,.07,.16,.07Z"/>
      <path class="cls-1" d="M347.5,205.96v-2.65c.06,0,.12,0,.18,0-.04,.87-.08,1.75-.12,2.63,0,0-.06,.03-.06,.03Z"/>
      <path class="cls-1" d="M305.51,348.78c-.51-1.1-.97-2.2-.32-3.52,1.7-.13,1.5,1.34,1.94,2.24-.54,.43-1.08,.86-1.62,1.28Z"/>
    </g>
  </g>
</svg>