<?xml version="1.0" encoding="UTF-8"?>
<svg id="Layer_2" data-name="Layer 2" xmlns="http://www.w3.org/2000/svg" viewBox="0 0 371.52 524.04">
  <defs>
    <style>
      .cls-1 {
        fill: #c5a994;
      }
    </style>
  </defs>
  <g id="Layer_1-2" data-name="Layer 1">
    <g>
      <path class="cls-1" d="M6.95,499.42c8.6,5.41,17.64,9.72,27.7,11.77,14.55,2.96,28.87,1.84,43.02-2.15,7.49-2.11,14.71-4.97,21.58-8.66,1.09-.59,2.3-1.02,2.66-2.53-2.29-.51-3.89,1.09-5.68,1.87-11.8,5.11-24.15,7.62-36.95,8.14-5.69,.23-11.38,.47-16.05-3.85-.77,.92-1.4,1.4-1.67,2.04-.5,1.2,.31,2.36,1.31,2.12,11.82-2.76,24.15-2.59,35.81-6.35,10.44-3.37,20.19-8.04,29.13-14.38,.78-.55,2.6-1.22,.94-2.79,0,0-.23,.14-.23,.14,.39,.58,.74,1.25,1.63,.72,2.77-1.65,5.3-3.6,7.39-6.08,.19-.16,.44-.29,.54-.49,.28-.57,.86-1.34,.68-1.73-.33-.73-1.22-.6-1.85-.18-.39,.26-.67,.69-1.01,1.05-.84,.2-1.68,.41-2.52,.61l-.45-.5c1.68-1.92,3.34-3.85,5.05-5.74,1.04-1.15,2.13-2.25,1.88-4.01-2.1-1.36-3.18,.09-4.25,1.56l.09,.1c-.63-.84-1.31-1.86-.58-2.76,3.05-3.78,6.23-7.46,9.41-11.13,.09-.11,.78,.29,1.19,.46,.24,1.79-1.08,2.81-2,4.01-1.25,1.64-2.66,3.16-3.87,4.83-.68,.94-.33,1.91,.58,2.66,2.86-.37,3.96-3.09,5.97-4.62,.46,.51,.92,1.01,1.37,1.52l-.8,2.32c-.75,.6-2.05,1.23-1.04,2.3,1.1,1.16,1.48-.56,2.19-.99,2.54-2.27,4.58-4.93,6.26-7.88,1.5-2.09,3.01-4.16,4.48-6.27,.58-.84,.96-1.75-.04-2.57-2.45,.99-2.57,4.54-5.52,4.97-.6-.44-1.35-.86-.85-1.77,1.25-2.26,2.58-4.48,3.83-6.75,14.24-25.74,18.87-53.02,12.67-81.89-2.78-12.97-7.65-25.14-14.74-36.25-3.05,.49-3.09,.52-3.66-.29-1.79-2.54-3.51-5.14-5.36-7.63-.5-.67-1.05-1.75-2.29-1.12-.6,1.81,.72,2.92,1.5,4.16,2.76,4.39,5.61,8.72,8.42,13.08,4.67,7.25,7.87,15.13,10.21,23.41,4.88,17.27,5.8,34.74,2.6,52.37-2.58,14.22-7.95,27.34-16.34,39.15-1,1.41-1.65,3.33-3.82,3.51-.52-.59-.84-1.19-.34-1.99,1.25-1.97,2.51-3.94,3.68-5.95,13.78-23.62,18.19-48.81,12.5-75.63-2.35-11.06-7.3-21.04-13.59-30.34-4.21-6.23-8.71-12.25-13.22-18.27-6.22-8.3-12.5-16.55-17.84-25.47-4.14-6.9-8-13.95-10.65-21.58-2.65-7.65-4.37-15.43-2.85-23.65,.86-4.67,2.28-9.09,4.93-12.98,2.66-3.91,4.89-7.84,5.44-12.68,.37-3.19,1.95-5.91,5.37-7.18,.97-5.12,1.22-10.36,3.69-15.04,2.56-4.86,6.79-7.7,11.91-9.53,0-3.45,.04-6.53,0-9.6-.2-12.79,1.28-25.35,4.9-37.64,1.62-5.5,3.78-10.76,6.67-15.71,7.35-12.62,18.16-19.73,32.89-20.12,15.51-.4,29,4.63,39.97,15.84,3.87,3.96,6.5,8.67,8.17,13.97,.8,2.55,.92,5.11,.68,7.69-.41,4.42-2.23,6.69-6.84,6.88-6.81,.28-9.63,4.43-10.94,10.13-1.58,6.86-1.68,13.86-1.32,20.89,.95,18.7,4.15,37.08,7.65,55.42,5.25,27.5,11.24,54.86,18.05,82,6.33,25.21,4.7,49.86-1.78,74.53-7.21,27.47-19.09,52.6-38.16,73.93-21.37,23.89-47.39,40.03-78.98,46.49-20.92,4.28-41.69,3.67-62.13-2.98,.2-.3,.4-.61,.6-.91,2.09-.37,4.08,.07,6.13,.52,5.81,1.3,11.68,2.2,17.65,2.5,20.35,.99,39.8-2.87,58.09-11.64,42.26-20.29,69.96-53.46,84.43-97.77,9.3-28.49,9.55-57.59,4.24-86.89-4.27-23.53-11.47-46.27-18.56-69.03-.31-.98-.76-1.93-1.27-2.83-.15-.25-.75-.24-1.12-.35-1.35,1.9,.54,4.34-1.19,6.82-4.4-7.14-5.07-15.32-9.43-22.32-.94,2.46-.16,4.15,.28,5.89,3.39,13.32,7.6,26.4,11.98,39.41,4.3,12.77,8.86,25.46,12.88,38.32,5.23,16.74,7.58,33.87,5.33,51.44-.45,3.54-.58,7.18-2.85,11.31,0-2.06-.06-3.09,0-4.11,1.55-21.24-1.79-41.87-7.77-62.17-3.95-13.44-8.68-26.61-13.36-39.8-6.59-18.57-13.17-37.14-16.93-56.56-1.27-6.53-2.27-13.11-3.69-21.4-.67,6.67-.63,11.58-.03,16.46,1.25,10.04,2.94,19.99,5.22,29.86,4.66,20.23,11.02,39.97,16.68,59.92,4.88,17.22,9.47,34.5,11.03,52.42,1.67,19.06,.22,37.81-5.34,56.17-.49,1.62-.62,3.49-2.7,4.4,.05-.9-.03-1.69,.17-2.4,4.58-16.48,5.13-33.18,3.18-50.11-2.05-17.86-6.73-35.09-11.79-52.25-.44-1.48-1.01-2.97-1.8-4.28-.28-.47-1.39-.43-2.09-.66,.68-1.29,2.03-2.58-.21-3.79,.1,1.31,.2,2.53,.29,3.74,3.49,7.32,4.58,15.33,6.42,23.1,4.27,18.06,5.23,36.35,2.89,54.79-.3-3.3-.37-6.62-.29-9.93,.37-15.17-2.11-29.96-5.72-44.62-3.67-14.87-8.68-29.32-13.8-43.74-6.08-17.09-12.39-34.11-17.21-51.63-4.62-16.81-7.84-33.81-7.42-51.37,.28-11.65,2.68-22.61,9.14-32.49,.5-.77,1.34-1.68,.09-2.61-1.97,.11-3.15,1.65-4.66,2.59-4.01,2.51-6.25,6.11-6.67,10.82-.34,3.87-.77,7.74-.91,11.62-.52,14.6,1.45,28.97,4.13,43.27,4.5,23.99,11.06,47.43,18.77,70.58,5.57,16.73,10.44,33.68,13.81,51.01,4.23,21.73,6.61,43.57,4.01,65.74-2.05,17.47-6.59,34.1-15.7,49.27-15.18,25.27-36.37,43.65-63.53,55.08-15.07,6.34-30.78,9.04-47.1,7.77-4.64-.36-9.24-1.14-13.86-1.72l.29,.21c-1.18-1.95-3.26-1.37-4.99-1.76l.35,.19c-1.27-1.76-3.21-1.58-5.03-1.75l.36,.21c-1.26-1.76-2.97-2.21-5-1.74l.29,.21c-.33-2.11-1.59-2.42-3.37-1.77l.26,.19c-.8-2.18-1.48-2.53-3.35-1.72l.21,.15c-.71-2.46-1.51-2.87-3.31-1.69l.18,.06c.67-.47,.92-.92,.23-1.66-1.56-1.66-3.98-2.34-5.09-4.5,.37-.33,.73-.66,1.1-.99Zm109.1-187.09l-.14-1.09c-.06,.14-.2,.33-.15,.42,.11,.2,.31,.35,.47,.52,.81,1.46,1.68,1,2.56,.07-.61,1.59-1.58,3.25,.73,4.35,.06,1.65,.64,2.92,2.58,3.35,.16-2.08-.23-3.52-2.75-3.22,.94-1.6-.73-2.84-.63-4.27-.9-.04-1.8-.08-2.67-.13Zm6.57,170.88c1.1,.64,1.73-.12,2.38-.79,.56-.49,1.12-.99,1.68-1.48,.52-.52,1.05-1.04,1.57-1.57,.51-.5,1.03-1,1.54-1.49,.51-.51,1.01-1.02,1.52-1.53,2.79-1.97,4.83-4.69,6.96-7.28,17.36-21.07,24.82-45.76,26.08-72.6,.77-16.42-1.2-32.64-4.88-48.62-5.26-22.79-13.62-44.57-22.14-66.28-.16-.42-.69-.7-1.62-1.6-.18,2.03,1.99,4.39-.97,5.44-1.69-1.31-2.3-3.28-3.06-5.15-4-9.84-8.01-19.68-12.03-29.52-1.2-2.93-1.88-6.1-3.88-8.49,2.36,12.08,6.52,23.78,10.64,35.47,8.18,23.23,17.48,46.03,26.73,68.85,4.02,9.93,6.85,20.07,7.69,30.79,.72,9.1,.34,18.13-.85,27.16-3.18,24.12-11.39,46.2-26.36,65.58-1.26,1.62-2.34,3.38-3.5,5.08-.87,.22-1.34,.79-1.44,1.68-.89,.16-1.41,.68-1.53,1.58-.91,.13-1.43,.65-1.55,1.56-.92,.14-1.44,.65-1.51,1.6-.97,.11-1.5,.61-1.49,1.62-1.02,.03-1.62,.47-1.53,1.58-3.2,1.16-3.24,1.23-2.39,4.38-1.16-2.3-3.15-.69-4.73-1-.48,1.09-.96,2.18-1.46,3.3,2.84-.13,2.26-1.7,1.48-3.33,1.23,2.03,3.11,.82,4.73,.95-.05-1.89,2.65-2.32,2.32-4.36,1.16,.15,1.84-.19,1.59-1.52Zm23.53-143.55c-.05,1.38-.39,2.88,1.5,3.4-.45,2.15,.42,4.03,1.07,6.01,2.44,7.37,4.51,14.86,5.93,22.51,2.48,13.37,2.95,26.72-.4,40.05-.38,1.5-.5,3.07-.76,4.6-.25,1.48-1.6,2.88-.43,5,.68-1.66,1.38-2.8,1.62-4.03,1.7-8.89,3.34-17.84,3.31-26.89-.04-15.41-2.81-30.37-8.83-44.64-.4-.95-.65-1.96-1.72-2.42-.02-1.34,.07-2.73-1.48-3.4-.12-.62,.17-1.43-.78-1.64-.01,0-.23,.5-.15,.57,.34,.34,.74,.61,1.11,.91Zm-41.42,155.42c2.2,1.29,3.61,.59,5.07-2.46-2.18,1.17-3.51,1.89-4.79,2.65-.17,.41-.35,.82-.52,1.22,.18,.04,.44,.18,.51,.11,.69-.63,.26-1.09-.28-1.52Zm65.09-195.17c.27-.22,.55-.44,.82-.66-.28-.96-.55-1.93-.84-2.89-5.23-16.81-10.98-33.47-15.24-50.57-5.03-20.21-8.54-40.59-5.88-61.54,.09-.69-.1-1.03-.57-1-1.1,1.63-1.22,3.86-3.07,5.09-1.73-3.87,.76-7.73,.24-11.7-2.16,5.06-2.32,10.21-2.46,15.41-.38,14.14,2.2,27.87,5.41,41.51,5.11,21.73,12.79,42.66,20.1,63.7,.33,.94,.98,1.77,1.49,2.65Zm-31.07,23.47c-8.77-17.67-18.54-32.87-25.72-49.4-.51-1.17-1.19-2.27-1.84-3.38-.05-.08-.48,.06-.73,.1-.33,.39-.66,.78-1,1.17-1.68-1.72-2.2-3.98-2.94-6.15-.83-2.44-2.23-4.84-2.38-7.32-.14-2.28-2.98-3.33-2.28-5.69,.66,9.23,1.42,12.87,5,21.22,1.32,3.08,2.75,6.12,4.36,9.06,7.45,13.61,16.58,26.14,25.19,39,.13,.19,.44,.27,2.36,1.38Zm11.12,106.59c-2.97,6.59-6.97,12.82-9.83,19.62-.06,.15,.22,.44,.35,.68,1.46-.15,1.94-1.35,2.49-2.41,2.95-5.63,5.89-11.27,6.99-17.9Zm32.67-180.85c.83-.46,.8-1.23,.56-1.96-.1-.29-.55-.47-.83-.7-.13,.21-.32,.4-.36,.62-.14,.78-.05,1.51,.63,2.04Zm-48.03,25.7l-.22-.56-.21,.56h.43Zm17.41,151.25c-.15-.44-.3-.89-.45-1.33-.18,.17-.54,.37-.52,.52,.06,.45,.26,.89,.41,1.33,.19-.17,.37-.34,.56-.52Zm-28.23,46.63c-.16-.09-.38-.29-.5-.25-.22,.09-.56,.41-.52,.48,.29,.65,.68,.76,1.02,.3,.08-.12,.01-.35,.01-.53Zm19.89-137.91l.28-.39-.41-.07,.13,.47Zm-1.44-3.8l-.3,.45,.46,.06-.16-.52Zm-1.57-3.15l-.32,.5,.51,.06-.19-.56Zm-1.58-3.17c-.17,.14-.45,.27-.46,.43-.01,.16,.24,.34,.38,.51,.17-.14,.45-.27,.46-.43s-.24-.34-.38-.51Z"/>
      <path class="cls-1" d="M257.04,255.6c2.57-.25,3.85-2.2,5.29-3.97,3.69-4.55,7.8-8.67,12.43-12.26,1.99-1.54,3.87-3.33,6.59-3.5l-.12-.27c-2.1,1.9-4.28,3.73-6.3,5.72-9.09,8.93-14.94,19.69-17.88,32.07-.24,1-.44,2.04-.43,3.06,0,.74-.52,1.83,.77,2.28,5.06-18.06,15.61-31.96,30.84-42.43,.3,.33,.6,.66,.89,1-1.45,2.84-4.15,4.52-6.27,6.74-5.2,5.46-9.69,11.41-13.05,18.18-.67,1.35-1.61,2.69-.46,4.8,3.67-3.4,5.53-7.94,8.49-11.62,2.99-3.72,5.13-8.28,9.72-10.38,1.21,.99,1,1.95,.56,2.92-.73,1.64-1.47,3.28-2.21,4.91,.13,.56-.31,.59-.28,.16,.06-1.02-.67,.05,.36-.04,10.38-8.18,20.85-16.25,31.12-24.57,11.81-9.56,21.46-21.03,28.96-34.27,.76-1.34,1.33-2.79,1.95-4.21,.07-.17-.15-.46-.25-.73-1.23-.65-1.76,.44-2.32,1.09-1.7,1.96-3.25,4.04-4.94,6.01-15.28,17.87-34.66,27.64-58.12,29.01-12.78,.75-24.8-2.01-35.28-9.67-10.85-7.92-17.33-18.49-17.64-32.2-.29-12.72,6.67-21.89,19.02-25.03,7.97-2.03,15.91-1.98,23.47,1.97,6.72,3.5,11.55,8.7,14.26,15.79,.74,1.93,1.27,3.93,1.88,5.84,1.49,.71,2.52-.15,3.55-.87,6.81-4.77,13.32-9.9,18.96-16.05,10.25-11.17,15.5-24.35,16-39.48,.34-10.2-.56-20.26-3.68-29.98-8.64-26.84-26.89-43.83-53.89-51.19-25.93-7.07-50.85-3.39-74.74,8.44-6.98,3.46-13.57,7.58-19.78,12.3-1.2,.91-2.72,1.62-2.86,3.44,0,0,0,.02,0,.02-.18-.75-.37-1.51-.61-2.49,1.05-1,2.08-2.15,3.28-3.11,17.72-14.21,37.45-24.35,60.06-27.55,31.58-4.47,58.98,4.33,81.14,27.81,5.56,5.89,9.7,12.79,13.25,20.05,.89,1.82,1.24,4,3.21,5.17,.86-1.26,.24-2.41-.18-3.6-8.91-25.35-25.98-42.11-52.18-48.77-27.4-6.97-54.46-5.99-80.73,5.19-5.23,2.23-10.15,5.18-15.17,7.87-1.34,.71-2.57,1.58-3.96,1.66-1.08-1.55-.15-2.3,.53-2.82,17-13,35.85-21.62,57.26-24.3,22.06-2.76,42.85,1.61,62.61,11.23,17.69,8.62,30.18,22.49,38.78,40.03,.91,1.86,1.76,3.75,2.63,5.64,.85,1.85,1.69,3.72,2.79,5.47-1.18-9.4-4.71-17.91-9.77-25.83-7.58-11.88-17.88-20.73-30.22-27.37-11.57-6.22-23.96-9.92-36.89-11.57-25.78-3.29-50.65-.07-74.22,11.41-25.45,12.39-44.92,31.3-59.86,55.09-11.41,18.17-18.77,37.97-23.7,58.8-1.1,4.67-.82,9.74-3.56,14.06-.58,.92-.17,2.52-.1,3.8,.08,1.72,.9,3.43-.37,6.1,.43-1.98,.35-3.23,.92-3.93,2.02-2.43,2.62-4.86,1.39-7.91-.55-1.36-.58-3.11-.33-4.59,2-11.69,3.67-23.46,7.36-34.79,3.21-9.87,7.01-19.49,11.69-28.78,20.2-40.03,52.72-63.76,96.23-72.84,20.02-4.18,40.13-4.64,60.19-.06,18.32,4.18,34.65,12.13,48.09,25.56,12.32,12.32,19.72,27.19,22.98,44.18,3.38,17.63,2.03,35.12-2,52.48-.29,1.25-.94,2.43-.48,3.89,1.67,.25,1.9-1.29,2.22-2.19,4.27-12.02,7.23-24.37,8.15-37.11,1.77-24.25-6.78-44.78-23.15-62.24-11.78-12.56-26.28-21.03-42.51-26.41-33.16-11-66.22-11.04-98.88,2.03-20.61,8.25-37.85,21.32-52.28,38.13-19.69,22.95-31.89,49.57-38.03,79.02-3.8,18.25-4.14,24.74-4.43,46.34,0-3.34,.16-6.69-.03-10.02-1.72-30.77,5.28-59.73,18.48-87.28,10.22-21.33,24.31-39.8,42.95-54.55C188.44,10.36,215.99,.53,246.88,.03c16.97-.27,33.74,1.26,49.8,6.92,41.7,14.7,65.72,44.42,73.31,87.74,1.98,11.32,1.94,22.72,.45,34.11-.13,1.03-.38,2.08-.29,3.09,.69,7.94-1.45,15.42-3.59,22.9-5.44,19-12.62,37.3-21.79,54.84-7.79,14.91-18.02,27.78-30.64,38.87-6.42,5.64-12.72,11.46-18.73,17.54-7.97,8.05-13.87,17.45-16.54,28.61-1.33,5.56-1.94,11.22-1.99,16.96-.06,5.86-1.24,7.07-6.92,8.42-2.01,.48-4.01,1.01-5.95,1.7-5.62,2.02-10.86,1.09-15.38-2.53-2.87-2.3-6-3.97-9.14-5.78-9.88-5.7-14.84-14.88-17.35-25.62-1.87-8-1.47-15.96,.84-23.84,.43-1.48,.81-2.97,1.25-4.62-8.54-9.54-6.18-18.97,.27-28.36,.47-1.9-1-3.34-1.31-5.09-.83-4.73,.84-8.39,5.15-10.13,4.74-1.92,9.43-2.07,13.95,1.62-2.4,1.14-4.97,0-7.02,1.98,1.41,.6,2.5,1.07,3.54,1.51-.53,.49-1.07,.98-1.61,1.48,.4,.44,.69,1.05,1.02,1.08,1.28,.1,2.57,0,3.86,0,2.8-.02,5.61-.47,7.85,2.13,.6,.69,2.47,.28,3.74,.37-.34,1.44-1.75,1.44-2.88,1.94-2.59,1.15-5.16,2.39-7.67,3.71-1.44,.75-2.07,1.85-1.77,3.73,.15,.93-1.08,2.07-1.68,3.11h2.39c.63,.46,1.26,.92,1.88,1.38-.96,1.51-1.96,2.99-2.86,4.53-.68,1.18-.72,2.44,.03,3.68,2.24,.24,2.9-1.78,4.01-3,5.14-5.68,11.39-9.61,18.57-12.08,1.61-.55,3.36-1.46,5.39,.02-2.71,2.93-6.61,3.94-9.58,6.29-3.04,2.41-5.94,4.95-8.2,8.13-2.2,3.1-4.43,6.22-5.21,10.68,3.66-2.67,4.28-7.35,8.01-9.18,1.4,.43,1.19,1.51,.75,2.37-.69,1.34-1.63,2.56-2.45,3.82,.6,0,.84,.28,.64,.84-.03,.1-.43,.19-.52,.12-.44-.35-.4-.74,.07-1.07,2.28,.41,3.05-2.42,5.13-2.43,.65,1.34,.38,2.38-.9,3.11,.83,.18,1.49,.7,1.17,1.48-.33,.8-1.4,.86-1.88,.28-.83-.99-.6-1.82,.92-1.8Zm-16.01-27.51c1.04-.13,2.36,.18,2.58-1.45-1.45-.86-2.53-.16-3.63,.4-.51,.43-1.01,1-.42,1.56,.58,.55,1.15,.15,1.47-.52Zm108.71-42.28c.35-.26,.95-.47,1.01-.78,.11-.59-.41-.83-.75-.37-.22,.3-.07,.87-.09,1.31-.38,.12-.75,.23-1.13,.35,.18,.22,.35,.43,.53,.65,.14-.39,.29-.78,.43-1.16Zm-14.86-88c-.03,.19-.12,.4-.07,.57,.15,.54,.28,.45,.29-.24,0-.11-.14-.22-.22-.33Zm-88.84,127.71c.71,1.11,1.76,.82,2.72,.56,.66-.18,.81-.64,.5-1-.16-.18-.36-.4-.58-.44-1.03-.21-1.96-.02-2.64,.88Zm87.1-133.68c-.07,.22-.23,.46-.19,.66,.17,.81,.5,.86,.83,.11,.08-.18-.03-.49-.14-.69-.05-.09-.33-.06-.5-.08Zm17.5,57c.06-.19,.16-.37,.17-.56,0-.06-.25-.13-.39-.19-.06,.19-.16,.37-.16,.56,0,.06,.25,.13,.39,.19Zm-110.58,101.06c-.19,.17-.51,.32-.52,.5-.01,.18,.28,.38,.44,.57,.19-.17,.51-.32,.52-.5,.01-.18-.28-.38-.44-.57Z"/>
      <path class="cls-1" d="M286.24,232.72c-.05,2.23,1.38,2.6,2.94,1.9,2.51-1.12,4.87-2.57,7.52-3.58-2,2.72-4.49,4.83-7.56,6.26-.3-.33-.6-.66-.89-1,.82-.93,1.77-1.79,2.41-2.83,.28-.45,.2-1.49-.14-1.89-.4-.47-1.19-.96-2-.45-.84,.52-1.68,1.02-2.52,1.54l.25,.05Z"/>
      <path class="cls-1" d="M.65,493.19c1.12,3.06,4.26,4.09,6.3,6.23-.36,.33-.73,.66-1.1,.99-2.21-.67-3.57-2.47-5.15-3.95-1.11-1.04-.73-2.17-.04-3.27h0Z"/>
      <path class="cls-1" d="M106.58,485.92c-.17-.91-1-1.91-.17-2.74,1.51-1.49,2.74-3.64,5.44-3.01l-.18-.14c-.23,1.43-1.51,1.97-2.41,2.82-.57,.54-1.03,1.09-.73,1.94,0,0,.23-.14,.23-.14-1.28-.55-1.94-.02-2.17,1.23,0,0,0,.03,0,.03Z"/>
      <path class="cls-1" d="M107.48,473.01c1.34,2.06,.43,3.1-1.66,3.61-.32-1.62,2.3-1.87,1.67-3.62,0,0-.01,0-.01,0Z"/>
      <path class="cls-1" d="M96.59,488.57c-.88,2.81-2.98,3.71-5.69,3.64l-.13,.31c2.2-.94,4.61-1.55,5.89-3.89-.02-.02-.04-.04-.07-.06Z"/>
      <path class="cls-1" d="M281.36,235.87c1.23-1.66,4.1-.79,4.88-3.15,0,0-.26-.06-.26-.06-2.38-.3-3.2,1.9-4.74,2.94l.12,.27Z"/>
      <path class="cls-1" d="M272.76,231.69c-.34,.24-.67,.63-1.04,.68-.23,.03-.53-.45-.79-.7,.18-.15,.39-.45,.54-.42,.44,.08,.86,.29,1.28,.45Z"/>
      <path class="cls-1" d="M109.26,471.43c1.73-.36,3.47-.83,5.14,.22,0,0-.05,0-.05,0-1.7,.04-3.45,.99-5.09-.24v.02Z"/>
      <path class="cls-1" d="M101.89,488.75c-1.74-.26-3.51,.86-5.27-.15-.04-.03,.07,.06,.03,.03,1.73-.38,3.5-.37,5.25,.12,0,0-.01,0-.01,0Z"/>
      <path class="cls-1" d="M85.36,496.41c.56,.59,1.28,.67,1.47-.13,.21-.86-.67-1.27-1.36-1.13-.96,.2-.71,.89-.28,1.5l.17-.24Z"/>
      <path class="cls-1" d="M85.19,496.64c.34-.66,.37-1.27-.42-1.6-.15-.06-.63,.2-.62,.26,.08,.46,.17,.95,.39,1.35,.5,.91,1.39,.94,.61,.26-.05-.04,.14-.36,.21-.52-.01,.03-.18,.26-.18,.26Z"/>
      <path class="cls-1" d="M256.12,247.27c0,.17,.06,.37-.01,.48-.3,.4-.66,.31-.91-.28-.03-.07,.28-.35,.48-.42,.11-.04,.3,.15,.44,.22Z"/>
      <path class="cls-1" d="M115.64,469.99c-.96,.13-1.52,.59-1.3,1.66,.02,0,.06,0,.06,0-.4-.66-.77-1.39,0-1.94,.23-.16,.84,.21,1.29,.36,.02,.02-.06-.08-.06-.08Z"/>
      <path class="cls-1" d="M109.26,471.42c.04,1.24-.58,1.74-1.78,1.59,0,0,.01,0,.01,0,1.13,.09,1.77-.38,1.77-1.57,0,0,0-.02,0-.02Z"/>
      <path class="cls-1" d="M293.22,241.25c-.31,.35-.58,.77-.95,1.04-.32,.23-.86,.51-1.12,.38-.77-.39-.68-1.12-.25-1.71,.26-.35,.76-.52,1.15-.77,.39,.35,.78,.7,1.16,1.05Z"/>
      <path class="cls-1" d="M292.06,240.2c.53-.94,1.2-1.62,2.19-.64,.11,.11-.66,1.11-1.02,1.69-.39-.35-.78-.7-1.16-1.05Z"/>
      <path class="cls-1" d="M242.05,238.42c.68-.92,1.57-1.46,2.45-.47,.53,.59,.1,1.38-.57,1.86-.62-.46-1.25-.92-1.88-1.38Z"/>
      <path class="cls-1" d="M111.85,480.17c-.8-1.32,.2-1.62,1.11-1.99,0,0,.45,.5,.45,.5-.14,1.02-.73,1.45-1.74,1.34l.18,.14Z"/>
      <path class="cls-1" d="M301.17,227.95c-.41,.96,.76,.19-.22,.52l.39-.6-.17,.08Z"/>
      <path class="cls-1" d="M301.34,227.87l.32-.14s-.47,.22-.48,.22,.16-.08,.16-.08Z"/>
      <path class="cls-1" d="M90.9,492.21c.36,.97-.83,.44,.19,.44,.36,0,.26-.44-.31-.15,0,.02,.12-.3,.12-.3Z"/>
      <path class="cls-1" d="M183.88,263.75c-.14-.77-.3-1.4-.36-2.05-.01-.13,.46-.44,.48-.42,.77,.75,.9,1.53-.12,2.47Z"/>
      <path class="cls-1" d="M133.56,456.71c-.07,1-.14,2-.21,2.99-.69,.43-1.39,.86-2.08,1.3-.48-.58-.97-1.16-1.45-1.73,.52-1.32,1.13-2.56,2.41-3.35,1.04-.65,.99,.37,1.33,.8Z"/>
      <path class="cls-1" d="M131.26,461c-.15,.19-.27,.46-.47,.57-.56,.3-1.34,.9-1.71,.72-.71-.34-.6-1.23-.22-1.9,.24-.42,.63-.75,.95-1.12l1.45,1.73Z"/>
      <path class="cls-1" d="M126.43,463.53c.15-.2,.26-.46,.46-.57,.55-.33,1.44-.98,1.67-.81,1,.77,.54,1.65-.2,2.41-.17,.18-.37,.33-.55,.5-.46-.51-.92-1.01-1.37-1.52Z"/>
    </g>
  </g>
</svg>