<?xml version="1.0" encoding="UTF-8"?>
<svg id="Layer_2" data-name="Layer 2" xmlns="http://www.w3.org/2000/svg" viewBox="0 0 243.32 285.82">
  <defs>
    <style>
      .cls-1 {
        fill: #c5a994;
      }
    </style>
  </defs>
  <g id="Layer_1-2" data-name="Layer 1">
    <g>
      <path class="cls-1" d="M65.35,247.8c-1.04-.35-1.71-.98-1.96-2.12-.98-4.54-2.51-9.02-2.95-13.6-3.4-34.77,6.07-65.13,31.73-89.57,13.29-12.66,29.27-20.33,47.26-23.62,10.96-2,21.66-.3,32.02,3.57,3.39,1.27,6.67,2.81,9.99,4.26,1.31,.57,2.5,.37,3.67-.36,.32,1.08,.63,2.14,.94,3.21,1.27,.39,3.43-.8,3.35,1.9,.36-.99-1.04-.42-.02-.61,.17-.03,.51,.08,.51,.11-.02,.6-.24,.69-.62,.29-2.45,1.72-2.94,1.51-3.35-1.48-.26-1.15-.52-2.28-.78-3.42-.97-.27-2.07-.34-2.9-.84-22.09-13.23-45.11-13.56-68.65-4.74-14.64,5.49-26.58,14.88-36.42,26.95-12.56,15.4-20.09,33.06-23.28,52.65-2.62,16.1-1.92,31.98,2.78,47.65,3.24,10.79,8.24,20.65,15.19,29.51,.95,1.21,1.73,2.55,2.58,3.83-.41,.39-.82,.77-1.24,1.16-15.37-11.98-24.71-27.76-28.71-46.67-3.8-17.92-2.2-35.66,3.47-52.97,7.44-22.68,20.12-42,38.33-57.53,11.59-9.89,24.62-17.16,39.37-21.25,1.87-.52,4.04-.51,5.52-3.03-12.09,.38-22.47,4.8-32.54,10.32-1.3-1.67,.37-2.17,1.05-3.04,1.02-1.31,3.23-1.75,2.97-4.01-1.71-.76-2.98,.25-4.31,1-6.59,3.69-12.73,8.03-18.4,12.98-22.95,20.01-38.6,44.51-45.15,74.48-4.52,20.69-2.79,40.72,6.67,59.87,.55,1.12,.85,2.36,1.22,3.56,.05,.17-.21,.43-.33,.65-1.65-.52-2.32-1.98-3.13-3.29-11.3-18.08-15.45-37.67-12.58-58.81,2.02-14.86,6.9-28.73,14.43-41.6,19.77-33.78,47.88-57.66,85.13-70.05,23.69-7.88,47.03-6.58,69.24,5.54,15.19,8.29,26.72,20.36,35.16,35.42,20.02,35.74,16.15,81.01-9.57,112.5-5.79,7.08-12.46,13.17-20.13,18.17-14.24,9.28-30.03,12.38-46.74,11.6-6.09-.28-11.75-2.31-16.65-5.87-4.6-3.35-9.24-6.8-13.17-10.88-14.47-14.99-18.4-32.8-11.92-52.44,5.98-18.1,17.97-31.89,33.37-42.85,2.07-1.47,4.62-2.33,6.05-4.43-.08-1.53-1.03-1.81-2.09-1.92-7.34-.8-14.54,.03-21.43,2.6-28.36,10.59-48.37,29.51-57.75,58.77-1.88,5.87-3.64,11.83-3.43,18.13-.52-22.41,7.36-41.92,20.84-59.37,13.54-17.52,30.79-29.67,53.81-35.31-7.27-1.13-12.78,.46-18.23,2.01-10.38,2.96-19.63,8.12-27.76,15.18-18.58,16.15-29.52,36.43-32.72,60.91-1.63,12.49-1.09,24.79,2.33,36.93l-.05-.03ZM104.58,103.9c.18-.17,.36-.34,.54-.52-.18-.18-.35-.35-.53-.53-.18,.26-.37,.52-.55,.78,.18,.09,.35,.18,.53,.27Z"/>
      <path class="cls-1" d="M70.07,38.07c5.28,6.39,9.76,13.2,11.99,21.33,3.22,11.77,2.54,23.41-.96,34.96-.5,1.65-.98,3.52-2.88,4.35l-.22,.15c3.71-13.82,1.03-26.58-6.54-38.45-4-6.27-6.44-8.15-10.45-8.76-.88,1.39,.16,2.43,.73,3.48,2.69,5,5.53,9.93,8.15,14.97,2.64,5.08,4.46,10.51,5.12,16.18,1.05,8.98,0,17.49-7.16,24.11,0,0,.14,.17,.14,.17-1.08-2.14,.23-4.02,.69-5.98,1.63-7.08,.89-13.89-2.27-20.43-.17-.35-.8-.49-1.5-.9,0,4.15,.09,8.15-.02,12.15-.12,4.48-1.64,8.65-3.36,12.72-1.6,3.8-3.47,7.47-6.84,11.83,.04-3.71,1.26-5.77,1.85-7.98,.73-2.75,1.45-5.53,1.83-8.34,.35-2.55,.47-5.16-.28-7.76-1.91-.26-1.9,1.31-2.04,2.35-1.35,10.14-5.04,19.56-8.96,28.88-4.52,10.75-9.32,21.38-13.94,32.09-4.12,9.52-7.68,19.24-10.27,29.31-4.82,18.78-3.74,36.97,5.1,54.45,.32,.64,.45,1.39,1.12,3.58-7.53-11.01-11.44-21.73-12.81-33.42-1.62-13.88,.1-27.42,4.2-40.69,1.99-6.43,4.31-12.75,6.49-19.12,.45-1.05,.91-2.1,1.36-3.15,.59-1.36,1.27-2.69,1.76-4.08,.33-.95,.27-2.07-.86-2.41-.47-.14-1.46,.31-1.72,.77-.7,1.23-2.04,2.26-1.6,3.96-1.04,1.17-.73,2.48-.36,3.78,1.87-1.05,2.53-2.87,1.72-4.6-1.02-2.17-.22-3.89,.19-5.91,.78-3.85,2.37-7.38,3.67-11.02,1.57-4.39,3.24-8.74,4.76-13.15,.75-2.17,1.56-4.4,.77-6.77-1.75-.14-2.1,1.28-2.54,2.34-8.15,19.65-15.67,39.51-19.78,60.48-2.96,15.12-3.96,30.31-1.29,45.6,3.6,20.58,13.98,37.13,29.95,50.32,2.96,2.45,6.05,4.75,9.2,7.22-1.79,1.44-3.06,.13-4.22-.43-17.77-8.7-30.18-22.44-37.83-40.59-6.56-15.57-8.64-31.91-8.34-48.68,.32-18.3,4.31-35.96,9.1-53.5,2.52-9.24,5.81-18.27,7.58-27.72,1.49-7.93,2.25-15.93,1.97-23.98-.22-6.21-.78-12.42-1.32-18.62-.54-6.21-1.48-12.26-5.27-17.6-1.6-2.26-2.64-5.13-3.21-7.87-.87-4.15-3.37-6.19-7.17-7.24-1.2-.33-2.62-.25-3.49-1.41,6.57-8.81,18.55-9.73,34.64-2.65,2.44-.24,3.97-2.24,5.97-3.36,7.95-4.46,16.32-6.34,25.42-4.75,4.72,.82,8.91,2.68,12.69,5.54,13,9.83,18.92,23.08,18.24,39.2-.43,10.21-3.27,19.92-7.83,29.08-.32,.63-.99,1.08-1.56,1.68-1.32-1.63-.1-2.92,.23-4.25,1.99-8.08,3.73-16.19,2.34-24.59-2.01-12.13-7.99-21.72-18.38-28.43-.76-.5-1.6-1.31-2.44-.49-1.05,1.02,.39,1.42,.77,2.08Zm-35.36,96.68c.47-1.11,.94-2.21,1.42-3.32,.26-.66,.57-1.3,.78-1.98,.21-.7,.03-1.4-.74-1.54-.27-.05-.73,.52-.98,.89-.26,.38-.37,.87-.54,1.31-.59,.99-1.18,1.97-1.77,2.96-.71,1.63-2.61,3.1-.71,5.08,1.66-.59,2.19-1.93,2.55-3.41Zm-5.38,9.75c2.72-1.85,3.85-3.93,2.65-7.03-3.11,1.63-3.88,3.82-2.65,7.03ZM61.75,51.98c.5-.44,.46-.85-.06-1.31-.57-.5-1.09-.97-1.82-.26-.48,.46-.47,.89,.08,1.31,.54,.4,1.04,1.12,1.8,.26Z"/>
      <path class="cls-1" d="M154.3,52.01c-8.11,3.42-15.45,8.24-23.41,12.91-.28-2.31,1.34-2.92,2.34-3.67,8.71-6.56,18.04-12.15,27.64-17.31,2.74-1.47,5.5-2.9,8.22-4.4,.86-.48,1.83-1.02,1.34-2.73-7.44,.66-14.14,3.92-20.84,7.11-6.75,3.21-12.8,7.62-18.98,12.05-1.24-1.96,.14-2.67,.92-3.39,7.27-6.72,15.32-12.34,23.95-17.18,1.93-1.08,4.27-1.74,5.58-3.96-2.28-1.41-4.29-.48-6.17-.03-13.57,3.25-24.8,10.22-33.31,21.4-3.46,4.55-6.44,9.4-9.1,14.45-1.55,2.94-3.19,5.84-4.6,8.42,2.73-9.6,6.32-17.68,11.38-25.7,7.15-11.35,16.85-19.6,29.51-24.14,6.28-2.25,12.65-4.25,19-6.29,.7-.22,1.52-.03,1.27-.03-.91,.07-2.85,.23-4.63,.37-1.83-1.19-.42-2.35-.22-3.69-9.3,1.82-17.74,5.55-25.77,10.31-7.78,4.62-14.61,10.48-20.93,17.29-1.22-2.2,.16-3.03,.83-3.89,8.56-11.05,19.28-19.52,31.62-25.92C169.91,3.63,191.27-.69,213.72,.09c1.03,.04,2.1,0,3.09,.23,3.57,.8,5.89,4.18,4.55,7.6-1,2.56-1.14,4.96-1.01,7.54,.32,6.4-1.09,12.39-4.62,17.76-1.5,2.28-2.2,4.57-1.87,7.29,.97,7.82-2.27,14.1-7.34,19.73-5.87,6.52-13.01,11.03-21.27,13.82-1.97,.67-3.99,1.27-5.95-.09l.19,.18c6.54-3.67,12.65-7.85,16.85-14.28,.49-.71,1.52-1.44,.25-2.22-.25-.15-1.06,.6-1.6,.94-3.52,2.09-6.93,4.39-10.59,6.21-6,2.98-11.93,6.26-17.08,6.24,5.62-4.01,13.93-7.2,19.79-14,1.07-.59,2.02-1.28,2.14-2.64,.68-.19,1.39-.57,.78-1.29-.53-.62-1.22-.05-1.74,.4-.89,.63-1.79,1.26-2.68,1.89-4.35,2.12-8.64,4.36-13.06,6.31-3.96,1.74-7.91,3.58-12.23,4.31-.26-.3-.53-.6-.8-.89,1-1.99,3.14-2.49,4.8-3.58,5.15-3.37,10.02-7.07,14.45-11.34,1.04-1,2.49-1.88,2.07-3.74,.67-.73,1.34-1.45,2-2.18,.97-.37-.49-.9,.45-.46,.55,.26,.59,.55,.14,.98-.76,.71,.5-.26-.53-.3-.62,.69-1.26,1.37-1.89,2.05-11.25,6.8-22.83,12.98-34.82,18.38-2.29,1.03-4.45,2.56-7.85,2.69,5.48-5.77,12.42-8.68,17.69-13.68,1.97-1.12,4.13-2,5.15-4.27,.66,.08,1.02-.21,.96-.85,0-.08-.5-.23-.69-.16-.7,.28-.7,.7-.07,1.14-2.98-1.25-4.82,1.17-7.1,2.2Z"/>
      <path class="cls-1" d="M74.43,281.36c1.81,.92,2.96,2.48,4.05,4.21-1.5,.83-2.15-.64-3.07-1.13-.84-.45-1.48-1.26-2.21-1.91,.41-.39,.82-.77,1.24-1.16Z"/>
      <path class="cls-1" d="M65.4,247.83c.1,.9,.21,1.81,.31,2.71-.12,.01-.24,.02-.36,.03,0-.92,0-1.84,0-2.77,0,0,.05,.02,.05,.02Z"/>
      <path class="cls-1" d="M115.72,47.1s0,.02-.02,.04c0,0,.02-.04,.02-.04Z"/>
    </g>
  </g>
</svg>