<?xml version="1.0" encoding="UTF-8"?>
<svg id="Layer_2" data-name="Layer 2" xmlns="http://www.w3.org/2000/svg" viewBox="0 0 416.53 443.05">
  <defs>
    <style>
      .cls-1 {
        fill: #c5a994;
      }
    </style>
  </defs>
  <g id="Layer_1-2" data-name="Layer 1">
    <g>
      <path class="cls-1" d="M360.05,268.98c3.76,.94,7.33,2.61,11.32,2.64,4.19,.03,8.16-.46,11.23-3.38-.38-2.41-1.99-2.7-3.44-3.11-7.48-2.09-14.99-4.09-22.47-6.21-11.89-3.36-22.58-9.02-32.01-17.02-6.47-5.49-11.17-12.23-13.57-20.44-3.34-11.44-1.06-22.03,4.92-32.06,1.16-1.95,3.4-3.32,3.35-5.95l-.02,.04c1.38,2.18,.05,3.99-.87,5.79-2.64,5.15-4.05,10.55-4.33,16.38-.85,17.77,11.25,34.56,30.24,39.15,4.06,.98,8.16,1.56,12.32,1.42,5.18-.17,10.36-.36,15.53-.76,5.48-.42,10.92-.2,16.24,1.01,9.31,2.12,15.84,7.43,18.19,17.08,1.28,5.28,.24,10.31-1.88,15.16-1.03,2.35-2.26,4.6-3.34,6.78,1.43,2.35,3.73,3.18,5.51,4.64,13.04,10.65,11.08,24.26,4,33.82-3,4.05-6.83,7.08-11.38,9.18-1.86,.86-3.82,1.52-5.83,2.31-.08,.89-.39,1.7-.17,2.34,4.53,13.28,4.65,26.97,4.07,40.78-.3,7.05-1.9,13.83-3.43,20.62-1.6,7.1-7.46,10.78-14.62,9.56-1.76-.3-3.51-.94-5.14-1.69-17.29-8.07-30.95-19.75-37.87-38.14-.32-.84-.31-2.13-1.88-2.29-1.13,1.8-.56,3.87-.64,5.8-.63,13.94-3.89,27.16-10.62,39.45-3.77,6.88-8.48,13.02-14.31,18.3-15.96,14.47-36.11,16.44-54.95,7.48-8.37-3.99-11.18-11.44-7.95-20.14,1.1-2.95,2.64-5.7,4.97-7.81,2.17-1.97,3.75-4.14,4.62-6.98,1.26-4.09,3.94-7.25,7.2-9.94,1.8-1.49,3.58-2.99,5.41-4.44,10.32-8.15,15.6-19.07,17.77-31.81,2.04-11.95,1.04-23.78-.9-35.6-2.28-13.83-6.2-27.29-9.29-40.93-2.17-9.62-3.89-19.29-4.51-29.17-.85-13.65,.74-26.93,5.43-39.78,5.55-15.21,14.68-27.91,27.36-38.01,.54-.43,1.02-1.18,2.19-.54-1.11,1.12-2.15,2.19-3.21,3.24-16.46,16.24-22.3,36.25-20.92,58.84,1.01,16.41,4.83,32.28,9.11,48.06,5.09,18.76,10.74,37.37,14.36,56.5,.23,1.2,.15,2.64,1.6,3.49,1.66-.29,1.45-1.7,1.3-2.78-.92-6.37-1.93-12.73-2.91-19.1,3.85,5.18,6.24,12.01,8.74,24.55,1.68,8.39,2.05,16.93,2.79,25.65,2.1-.95,1.34-2.59,1.43-3.78,.9-12.55-.79-24.83-3.9-36.97-2.64-10.31-6.03-20.38-9.48-30.43-4.12-12.01-8.22-24.05-10.76-36.52-3.08-15.12-4.06-30.3-.94-45.56,2.1-10.26,6.11-19.69,12.05-28.46,1.09,1.53-.15,2.39-.65,3.4-9.04,18.24-9.93,37.31-5.8,56.9,1.93,9.15,4.64,18.08,7.72,26.89,6.6,18.84,14.47,37.21,20.4,56.29,.27,.88,.48,2.09,1.76,2.13,1.13-.09,1.25-.96,1.2-1.61-1.5-19.73-4.68-39.1-12.13-57.59-4.06-10.1-7.72-20.35-9.7-31.12-.52-2.84-.77-5.63-.35-8.51,2.3,1.37,1.27,3.86,1.9,5.75,2.29,6.89,4.63,13.76,7.78,20.31,6.3,13.1,12.14,26.36,15.75,40.51,.23,.9,.43,2.09,1.74,2.3,1.68-11.5-3.87-30.46-12.48-42.65l-.25,.03c1.21-1.11,2.41-.69,3.43,.19,2.78,2.39,4.89,5.34,6.69,8.51,2.97,5.22,4.96,10.84,6.33,16.64,1.73,7.3,3.15,14.67,4.71,22.01,.9,4.25,1.66,8.54,3.77,13.25,1.54-2.39,.88-4.35,.86-6.16-.02-2.07-.18-4.14-.38-6.2-.2-2.06-.55-4.11-.8-6.16-.25-2.06-.39-4.13-.7-6.18-.35-2.3-.8-4.59-1.28-6.87-.42-2.03-.9-4.04-1.43-6.04-.52-2-1.07-4-1.71-5.97-.64-1.97-1.35-3.92-2.16-5.82-.8-1.9-1.78-3.73-2.64-5.62-.83-1.8-2.42-3.3-2.47-5.71,5.29,4.54,9.87,12.97,15.96,28.74,3.95,10.22,5.62,20.96,7.47,31.81,2.11,1.74,4.26,3.51,7.04,5.8,.3-5.92-2.66-10.43-2.92-15.42-.26-5.14-1.84-10.19-1.32-15.46,1.82,.07,1.98,1.59,2.51,2.59,2.04,3.9,3.88,7.89,5.92,11.79,1.66,3.17,4.46,5,7.84,5.86,1.56,.39,3.1,.08,4.14-1.39,.83-1.18,.67-2.39,.19-3.67-.96-2.53-3-4.18-4.77-6.05-6.55-6.95-10.94-13.93-13.92-22.17,1.58-.89,2.16,.65,3.01,1.29,1.03,.77,1.88,1.78,2.89,2.58,.99,.79,2.09,1.44,3.03,2.08,2.43-.97,.29-3.6,2.5-4.7,7.06,4.67,14.7,8.66,23.36,10.68,.37-2.76-1.41-3.7-2.65-4.82-5.27-4.79-11.59-7.8-18.3-9.89-6.08-1.9-11.21-5.26-15.92-9.38-.75-.66-1.25-1.6-1.86-2.41,.33-.32,.66-.65,.98-.98Zm-29.73,72.41c1.33-1.47,.95-2.76-.16-4.18-1.27,1.59-.63,2.87,.16,4.18Z"/>
      <path class="cls-1" d="M207.5,212.92c.98,1.82,.41,3.38-.5,5.1-5.69,10.76-9.52,22.45-16.37,32.62-.22,.32-.03,.92-.03,1.44,.84,1.23,1.95,.57,2.47-.1,2.05-2.66,4.17-5.32,5.8-8.24,2.77-4.98,5.22-10.14,7.74-15.25,11.22-22.75,28.83-38.29,52.72-46.68,6.65-2.33,11.16-3.23,11.2-3.1,.05,.16-6.7,1.56-13.23,6.7-1.44,1.13-2.55,2.2-3.33,3,.26,1.3,1.26,1.47,2.26,1.4,1.73-.13,3.45-.4,5.23-.45-13.8,3.77-23.57,12.37-30.36,24.73-4.27,7.78-7.24,16.07-9.8,24.51-4.43,14.63-7.54,29.65-12.63,44.1-.34,.96-.67,2.07-.52,3.03,.47,2.95,1.18,5.87,1.81,8.89,2.6-1.04,2.85-3.26,3.45-5.15,3.03-9.37,5.98-18.77,8.91-28.17,1.85-5.94,3.47-11.95,5.49-17.83,2.2-6.4,3.62-13.13,6.49-16.65-1.6,8.06-3.77,18.47-5.73,28.92-2.39,12.74-4.21,25.58-7.5,38.14-3.52,13.42-8.47,26.15-17.35,37.03-2.93,3.58-3.26,7.97-5,13.44,5.27-5.09,5.88-11.44,10.21-15.16,3.02,.15,2.11,3.29,3.71,4.48,2.24-.92,2.54-3.19,3.38-4.98,9.37-19.78,16.04-40.46,20.34-61.9,1.32-6.59,2.38-13.24,3.7-19.84,.33-1.66,1.2-3.22,1.69-4.5-.26,1.67-.71,4.62-1.22,8.3-3.01,21.92-2.25,31.13-6,48.59-.65,3.03-1.32,6.05-1.98,9.08,6.02-7.72,9.69-16.72,10.46-26.36,.5-6.17,.71-12.37,1.06-18.65,2.14,.06,1.82,1.69,2.08,2.64,2.68,9.57,3.69,19.32,3.11,29.25-.32,5.43-.49,10.88-.51,16.33,0,2.53-.17,5.26,2.2,7.44,3.94-1.82,5.05-5.51,5.88-9.28,1.55-7.01,.55-13.99-.88-20.84-1.75-8.37-3.53-16.77-6.09-24.92-4.32-13.77-2.31-26.62,4.19-39.09,1.76-3.37,3.14-7.01,6.74-10.72-1.23,4.68-2.2,8.13-3.03,11.6-2.72,11.36-2.27,22.61,1.24,33.77,2.11,6.71,5.14,13,8.16,19.33,2.45,5.14,4.81,10.34,6.92,15.63,2.53,6.33,3.58,13.02,3.34,19.81-.48,13.7-6.91,24.18-17.91,32.03-1.88,1.34-3.87,2.51-5.59,3.63-.88,1.79-.4,3.33-.11,4.83,1.65,8.66-.63,16.44-5.26,23.68-2.38,3.73-5.18,7.13-8.31,10.26-8.8,8.81-17.42,17.75-25.11,27.6-5.08,6.5-13.09,8.1-20.26,4.78-7.97-3.69-11.69-12.69-8.36-21.72,2.47-6.69,2.44-13.13,.29-19.77-.88-2.71-1.74-5.44-2.38-8.21-.58-2.51-1.02-5.08-1.22-7.65-.3-3.92,.42-7.72,1.68-11.47,.63-1.88,2.19-3.53,1.68-5.96-2.16-.99-3.89,.63-5.75,1.13-15.16,4.13-29.79,2.96-43.71-4.53-9.75-5.25-16.81-12.9-19.79-23.83-.54-1.98-.79-4.07-.91-6.12-.07-1.26-.03-2.82,.63-3.77,4.18-5.98,8.48-11.95,16.98-11.61,2.06,.08,4.16,.17,6.17,.56,2.53,.49,5.01,1.28,7.5,1.99,2.24,.64,4.48,1.3,6.7,2.01,13.89,4.43,25.52,.41,35.36-9.7,7.2-7.4,11.62-16.45,14.53-26.27,.11-.36-.35-.9-.54-1.34-1.55,.06-2.03,1.38-2.76,2.38-2.01,2.7-3.79,5.59-5.99,8.12-18.37,21.11-46.42,22.45-67.38,5.1-3-2.48-5.88-4.92-9.42-6.64-3.04-1.48-5.65-3.63-7.12-6.9-1-2.23-1.33-4.5-.66-6.81,.61-2.11,2.1-3.5,4.19-4.12,2.28-.26,3.4,2.54,5.98,1.97,.39-.29,1.36-.63,1.55-1.22,1.36-4.12,4.58-6.04,8.29-7.61,5.56-2.35,11.5-3.03,17.33-4.17,1.27-.25,2.57-.32,3.86-.49,12.99-1.66,23.53-7.67,31.52-18.04,3.32-4.31,6.6-8.68,9.6-13.21,9.18-13.86,21.7-23.5,36.84-30,13.85-5.95,28.28-9.89,43.32-12.36-1.38,.7-2.7,1.56-4.14,2.07-9.53,3.37-19,6.89-28.08,11.35-5.81,2.85-11.55,5.89-17.11,9.2-8.43,5.02-14.9,11.99-19.18,20.89-.49,.84-1.14,1.7-.08,2.52,.06,.05,.87-.88,1.33-1.35,1.25-.53,1.97-1.42,1.92-2.83l-.11,.15Zm-24.78,50.06c.52-1.63,2.14-2.13,3.22-3.19,2.03-1.98,4.04-3.99,5.91-6.11,.68-.77,.76-1.87-.93-3.12-3.13,3.06-6.12,6.44-8.66,10.21-.28,.42,.32,1.43,.51,2.16-.53-.19-1.06-.38-1.6-.58,.51,.21,1.03,.42,1.54,.62Zm48.86,52.09c-6.51,13.38-13.65,43.39-12.4,51.21,2.39-2.39,3.3-5.41,4.94-7.96,1.81-2.81,1.23-6.39,2.73-9.42,7,3.53,6.61,9.68,6.57,15.99,1.05-.69,1.87-.95,2.23-1.51,1.93-2.97,2.3-6.16,1.46-9.65-.87-3.62-2.68-6.69-4.66-9.74-.38-.59-.36-1.43-.52-2.14,1.03-.43,1.93-.8,3.02-1.26-.3-2.77,.25-5.4-.84-7.83-2.28-5.08-2.85-10.44-2.52-17.69Zm11.08,40.36q1.47-6.69-3.25-8.58c1.18,3.11,2.21,5.85,3.25,8.58Zm11.46-165.85c-.47-.45-.87-1.07-1.12-1.01-.68,.14-1.29,.57-1.93,.89,.33,.31,.7,.92,.99,.88,.66-.07,1.29-.46,2.06-.76Z"/>
      <path class="cls-1" d="M77.92,105.87c2.46-8.05,3.84-10.24,8.89-13.94,5.41-3.97,11.51-5.8,18.2-5.76,6.3,.04,12.31,1.61,18.21,3.64,6.63,2.28,12.94,5.31,19.2,8.43,15.3,7.63,30.59,15.3,45.94,22.84,15.14,7.43,30.55,14.19,46.91,18.54,7.27,1.93,14.59,3.7,22.1,4.22,2.59,.18,4.79,1.68,7.15,1.77-3.76,.02-9.1-.07-15.48-.57-7.53-.58-23.7-2.04-44.12-8.57-12.35-3.95-24.29-8.98-36.3-13.84-7.92-3.21-15.91-6.27-24.01-8.98-4.89-1.64-10.03-2.53-15.08-3.67-1.18-.27-2.48-.6-4.03,.59,9.62,7.66,21.37,10.91,33.42,17.32-6.47-1.63-11.18-2.98-15.97-3.99-4.73-1-9.07-3.68-14.19-3.61,.59,2.72,2.83,3.29,4.54,4.29,8.33,4.85,17.31,8.21,26.42,11.22,7.88,2.6,15.87,4.78,24.02,6.37,1.26,.24,2.6,.26,3.76,1.6-1.29,1.22-2.77,.3-4.07,.35-1.55,.05-3.11-.1-4.66-.16-16.65-.71-32.96-3.46-48.96-8.1-12.5-3.62-24.58-8.35-35.48-15.54-7.52-4.96-14.04-2.52-21.46,1.37,2.51,2.61,5.33,2.97,7.88,3.79,2.46,.79,4.99,1.41,7.49,2.05,2.69,.69,5.66,.56,7.87,2.37,.1,1.99-1.16,2.4-2.39,2.71-7.21,1.82-14.4,1.22-21.57-.32-1.26-.27-2.49-.71-3.74-1.04-6.24-1.67-11.54,.55-14.96,6.38-.33,.56-.04,1.49-.04,2.21,2.63,1.47,5.17,.53,7.67,.05,8.44-1.6,16.92-2.07,25.52-1.7,13.5,.58,26.79,2.8,40.16,4.46,23.14,2.87,46.27,5.87,69.46,8.33,12.63,1.34,25.36,1.3,38.07,.76,4.37-.18,8.75-.57,12.66,1.06-1.72,.05-4.31,.12-7.44,.23-34.21,1.2-43.34,4.54-61.15,3.76-18.12-.79-36.24-1.79-54.37-2.3-13.22-.37-26.44,.24-39.41,3.29-1.51,.35-3,.79-4.48,1.27-.47,.15-.86,.54-1.65,1.06,5.04,2.64,10.39,3.01,15.61,3.67,13.93,1.77,27.94,1.58,41.94,1.32,6.22-.11,12.42-.6,18.64-.89,1.27-.06,2.58-.11,3.23,1.38-4.75,3.01-17.01,6.81-33.8,10.59-11.64,2.62-23.44,4.09-36.94,5.04,7.82,3.57,14.68,3.92,21.46,4.51,6.7,.58,13.41,1.51,20.25,.31-.48,2.09-2.02,2.38-3.48,2.71-5.3,1.2-10.61,2.36-15.91,3.53-1.5,.33-3.12,.31-4.35,1.45,5.97,5.31,14.8,7.18,26.16,5.47,12.62-17.41,31.21-25.59,51.03-31.72,4.44-1.38,9.05-2.23,13.62-3.16,1.67-.34,3.47-.93,5.59,.34-3.55,1.45-6.85,2.69-10.08,4.12-9.54,4.22-18.53,9.31-25.85,16.93-2.35,2.45-4.39,5.1-6.08,8.05-.53,.93-.79,1.88-.27,3.27,3.23,.94,6.45-.29,9.59-1.14,5.53-1.5,10.66-4.04,15.52-7.05,5.07-3.14,10.1-6.34,15.12-9.55,19.55-12.52,40.85-20.05,63.9-22.65,11.17-1.26,27.49-.52,39.73,2.05-9.62,.19-18.05,.68-26.44,1.91-25.45,3.76-49.33,11.78-70.98,25.94-6.53,4.27-12.57,9.14-18.37,14.35-4.62,4.16-9.44,8.11-14.21,12.09-1.19,.99-2.54,1.8-3.85,2.63-13.46,8.5-24.74,7.77-37.1-2.38-.59-.49-1.2-.96-2.09-1.67-1.57,.23-3.34,.45-5.1,.76-10.83,1.93-21.12,.12-31.09-4.29-6.43-2.84-12.46-6.39-18.27-10.29-10.16-6.82-20.95-12.37-32.22-17.09-7.4-3.1-14.65-6.56-21.94-9.93-2.13-.99-4.28-1.69-6.62-2.1-2.27-.39-4.56-1.12-6.61-2.15-6.43-3.2-9.49-10.18-7.68-16.99,1.98-7.44,7.98-12.11,15.31-11.86,1.03,.04,2.07,.21,3.07,.46,5.25,1.31,9.77-.44,13.8-3.54,2.45-1.88,4.62-4.16,6.79-6.38,2.35-2.41,4.46-5.06,6.83-7.46,7.71-7.79,16.76-12.97,27.85-14.09,1.03-.1,2.05-.26,3.06-.43,.24-.04,.46-.2,.69-.31Z"/>
      <path class="cls-1" d="M248.26,116.55c-.81-.61-1.55-1.37-2.45-1.8-15.65-7.49-27.46-19.33-37.39-33.22-5.18-7.25-8.33-15.51-10.8-24.01-3.11-10.7-5.82-21.52-10.25-31.79-.7-1.61-1.09-3.53-1.01-5.28,.21-4.96,1.5-9.76,3.91-14.07,3.31-5.91,9.84-7.93,16.1-5.16,2.34,1.04,4.55,2.49,6.6,4.05,5.9,4.47,10.15,10.33,13.5,16.86,1.05,2.04,1.99,4.13,2.91,6.04,2.02,.21,2.42-1.24,3.06-2.26,2.81-4.47,6.9-6.01,11.99-5.43,1.54,.18,3.16,.53,4.63,.25,8.54-1.63,16.4,7.21,17.19,15.49,.45,4.69,.12,9.33-.99,13.91-.86,3.53-1.63,7.08-2.6,10.57-2.47,8.83-1.52,17.45,1.38,26,3.4,10.04,9.19,18.53,16.6,25.99,5.33,5.36,11.35,9.83,17.75,13.84,6.42,3.49,13.5,7.43,13.33,7.76-.15,.3-6.24-2.41-10.74-4.59-12.79-6.21-24.52-11.82-35.18-23.51-4.78-5.24-8.95-11.18-12.47-17.88-2.91-5.53-5.33-11.22-6.47-17.43-.31-1.71-.48-3.55-2.15-5.32-1.15,7.04-.09,13.46,1.96,19.82,3.08,9.58,8.56,17.7,15.28,25.03,5.28,5.75,11.15,10.84,17.6,15.26,2.33,1.6,4.67,3.2,7.2,4.93-5.55-.6-10.09-2.55-19.54-8.23-6.02-3.62-11.68-7.73-16.89-12.44-5.4-4.89-10.24-10.27-14.38-16.3-3.96-5.77-6.84-12.09-9.52-19-1.75,3,.17,5.79-1.65,8.61-3.93-9.65-6.66-19.52-12.66-29.46-.71,6.38,.69,11.02,2.1,15.59,4.31,13.98,12.5,25.53,22.89,35.6,2.97,2.88,6.29,5.4,9.45,8.08,1.01,.86,1.89,1.78,1.55,3.28l.14,.22Z"/>
      <path class="cls-1" d="M183.63,67.2c-.71,1.68,.26,2.98,1,4.32,4.05,7.29,9,13.92,14.67,20.02,10.7,11.52,23.21,20.64,37.02,28.03,20.3,10.86,41.92,17.75,64.66,21.13,5.88,.87,11.84,1.28,17.75,1.94,2.47,.28,4.93,.65,7.29,.97-3.24,1.44-6.8,1.26-10.31,1.44-34.53,1.79-66.05-7.68-95.3-25.56-12.2-7.46-23.48-16.14-34.09-25.71-1.88-1.7-3.77-3.38-5.98-4.75,2.77,5.87,8.57,9.19,11.96,14.47-.6,.81-1.16,1.57-1.83,2.48,8.78,6.5,17.86,12.46,27.18,18.07,8.93,5.38,18.53,9.32,27.25,13.19-2.61,.37-5.81-.55-9.02-1.39-19.36-5.09-38.01-12-55.52-21.79-12.05-6.74-23.19-14.7-32.72-24.78-5.19-5.49-9.89-11.34-13.07-18.24-2.87-6.24-4.4-12.68-2.89-19.62,1.92-8.8,8.36-15.57,17.16-16.89,5.08-.76,10.34-.99,15.47-.64,10.24,.71,18.08,5.98,23.66,14.44,2.27,3.44,4.15,7.2,5.69,11.03,4.68,11.63,10.63,22.47,18.63,32.16,.48,.58,.72,1.35,1.07,2.03-.38,.35-.75,.71-1.12,1.07-7.42-5.96-12.42-14.05-18.17-21.37-1.95,1.08,.23,3.21-2.11,4.14-1.37-1.82-2.79-3.83-4.33-5.72-1.25-1.53-1.92-3.67-4.14-4.27-.17-.35-.33-.7-.5-1.05-.13,.26-.26,.52-.39,.78,.35,.03,.69,.06,1.04,.09Z"/>
      <path class="cls-1" d="M318.08,108.9c-.21-1.44-1.35-2.13-2.36-2.91-9.11-6.99-17.12-15-22.94-25.02-.22-.39-.8-.57-1.33-.92-1.31,1.66-.48,3.35,.02,4.91,2.98,9.26,7.92,17.39,14.47,24.56,4.39,4.8,9.29,8.99,14.54,12.81,1.37,1,3.21,1.65,3.72,3.98-1.24-.09-2.29-.01-3.25-.26-26.96-7.06-48.87-33.04-51.51-60.95-.5-5.25,.49-10.36,1.43-15.42,1.32-7.12,3.03-14.17,3.41-21.44,.05-1.03,.11-2.15,.54-3.04,2.75-5.65,3.32-11.85,4.75-17.84,.24-.99,.57-2,1.05-2.9,1.2-2.23,3.74-2.93,6-1.68,2.77,1.54,4.84,3.9,6.77,6.32,1.66,2.07,3.26,3.75,6.16,4.14,2.91,.39,5.1,2.42,6.89,4.72,3.17,4.1,6.34,8.19,9.41,12.36,4.49,6.11,6.25,12.95,5.3,20.52-.98,7.72-1.39,15.48-.88,23.26,.72,11.05,4.97,20.45,13.41,27.79l-.21-.2c-3.66-.73-6.67-2.69-9.49-5.01-10.09-8.3-15.66-19.09-17.4-31.94-.55-4.09-.74-8.24-2.29-12.14-2.16,.23-2.1,1.97-2.34,3.37-2.01,11.63-.35,22.69,5.24,33.12,2.83,5.27,6.19,10.17,9.97,14.8,1.24,1.52,2.03,3,.81,4.87l.12,.13Z"/>
      <path class="cls-1" d="M376.33,217.92c-.08,.96-.1,2.26-.31,3.52-1.62,9.64-8.65,16.19-18.36,17.11-4.44,.42-8.76-.14-12.95-1.73-12.1-4.58-25.17-19.35-21.19-38.93,.31-1.54,.8-3.01,2.26-3.98,2.55,.83,2.05,3.21,2.46,5.07,1.75,7.89,6.39,13.39,13.66,16.76,1.92,.89,3.85,1.21,5.79,.19,.11-2.6-2.11-2.88-3.45-3.85-4.95-3.59-8.91-7.97-10.65-13.91-2.42-8.24-1.67-15.89,5.09-22.07,.77-.71,1.65-1.24,2.76-1.13,.95,.85,.57,1.78,.19,2.73-4.17,10.46,3.77,19.42,14.31,19.15,3.86-.1,7.73-.58,11.57-1.1,3.65-.49,7.21-.46,10.71,.79,6.39,2.28,8.57,8.86,4.56,14.36-1.66,2.27-3.81,4.19-6.44,7.01Z"/>
      <path class="cls-1" d="M248.12,116.33c.33,.49,.7,.51,1.02,.01,.07-.11-.05-.5-.15-.53-.58-.16-.83,.1-.73,.71,0,.02-.13-.2-.13-.2Z"/>
      <path class="cls-1" d="M207.6,212.78c.48,.92-.82,.39,.2,.34,.31-.01,.19-.38-.31-.19,0,0,.11-.15,.11-.15Z"/>
      <path class="cls-1" d="M359.07,269.96c-.61-.25-1.49-.56-.85-1.34,.52-.64,1.27-.11,1.83,.36-.32,.33-.65,.66-.98,.98Z"/>
      <path class="cls-1" d="M322.9,262.21c.14-.4,.29-.8,.43-1.2,.9,.95,.2,1.11-.64,1.22-.04,0,.21-.02,.21-.02Z"/>
      <path class="cls-1" d="M317.95,108.77l.46-.19s-.35,.3-.34,.31-.12-.12-.12-.12Z"/>
      <path class="cls-1" d="M333.67,101.89c-.18-.02-.37-.04-.55-.06,.35,.55,.44,.5,.31-.14,.03,0,.24,.2,.24,.2Z"/>
      <path class="cls-1" d="M216.28,96.75c-1.08,1.1-1.7,.1-2.4-.53,.29-.32,.58-.65,.86-.98,.94,.18,1.42,.74,1.41,1.71,0,0,.13-.2,.13-.2Z"/>
      <path class="cls-1" d="M213.35,93.53c.88,.23,1.35,.8,1.39,1.71-.28,.33-.57,.66-.86,.98-.55-.54-1.1-1.07-1.64-1.61,.37-.36,.74-.72,1.12-1.07Z"/>
    </g>
  </g>
</svg>