<?xml version="1.0" encoding="UTF-8"?>
<svg id="Layer_2" data-name="Layer 2" xmlns="http://www.w3.org/2000/svg" viewBox="0 0 499.08 338.5">
  <defs>
    <style>
      .cls-1 {
        fill: #c5a994;
      }
    </style>
  </defs>
  <g id="Layer_1-2" data-name="Layer 1">
    <g>
      <path class="cls-1" d="M357.31,159.51c-3.79,4.04-8.29,6.93-13.49,8.86-5.56,2.06-10.75,1.47-15.49-1.94-2.35-1.69-4.62-2.98-7.57-3.53-6.5-1.2-11.13-5.19-14.42-10.86-2.63-4.54-4.28-9.39-4.79-14.63-5.56,1.34-13.04,5.74-17.63,10.32,.45,1.32,1.52,1.12,2.4,.77,2.89-1.13,5.73-2.4,8.61-3.55,.9-.36,1.9-.78,3.09,.52-2.54,3.28-5.87,5.61-9.56,7.41-12.88,6.29-26.22,7.49-40.02,3.44-6.25-1.84-11.26-5.14-13.63-11.13-1.98-.96-3.38-.23-4.76,.46-2.16,1.09-4.46,1.28-6.81,1.14-5.44-.3-9.47-3.5-10.16-8.91-1.47-11.5,.08-22.21,9.14-30.7,4.57-4.29,9.56-7.94,15.04-10.94,18.39-10.04,38-14.9,58.98-13.7,9.39,.54,18.46,2.47,26.58,7.13,1.3-.18,2.04-.84,2.68-1.7,3.41-4.53,8.06-7.24,13.38-8.85,13.86-4.19,27.59-3.99,41.07,1.56,9.44,3.89,13.9,7.66,20.58,17.02,2.05,.63,3.26-1.12,4.8-1.85,8.73-4.16,17.47-4.33,26.26-.3,5.71,2.62,10.68,6.32,15.24,10.61,5.88,5.52,11.08,11.64,15.72,18.22,8.52,12.07,16.75,24.34,23.56,37.49,7.43,14.34,11.54,23.84,12.68,37.37,.81,9.69-.29,18.98-.48,18.98-.18,0,.69-8.31-.26-17.26-1.19-11.14-5.69-23.41-19.33-44.73-6.3-9.84-13.33-19.14-20.97-27.96-1.32-1.52-2.41-3.42-4.93-3.67-1.79,2.9,2.14,5.05,.97,8.28-5.79-5.59-12.38-9.44-20.23-10.81-.64-.41-1.49-.79-1.97-.17-.65,.84,.33,1.04,.89,1.32,2.84,3.78,6.99,5.95,10.73,8.57,6.54,4.59,12.61,9.68,18.18,15.41,5.15,5.31,10.21,11.42,9.72,11.9-.31,.31-2.84-1.82-5.41-3.86,0,0-7.94-7.15-19.67-13.67-9.93-5.52-20.04-10.66-30.75-14.54-3.15-1.14-6.22-2.51-9.23-3.98-6.57-3.2-10.47-9.12-9.23-16.29,1.08-6.24-1.81-9.81-6.02-13.07-3.92-3.04-8.35-5.1-13.31-5.86-1.08-.52-2.16-.9-3.28-.08,.36,1,1.22,1.24,2.1,1.47,3.72,2.7,7.44,5.39,11.16,8.09,0,0,0-.01,0-.01-1.38,.79-2.74,1.2-4.29,.35-1.33-.73-2.75-1.3-4.14-1.94-2.85-2.02-5.85-3.59-10.37-3.93,2.84,3.12,5.81,4.29,8.56,5.77,.75,1.29,2.61,1.79,2.63,3.61l.22-.12c-1.75,1.03-3.54,.25-5.28,.03-4.91-.62-9.79-.68-14.62,.15-.39,2,1.01,2.37,2.14,2.68,4.25,1.15,8.52,2.21,12.8,3.23,4.56,1.09,8.97,2.58,12.94,5.12,4.22,2.71,7.33,6.27,8.38,11.51-5.55-7.02-13.07-7.95-21.09-7.37-3.88,.28-7.76,.53-11.61,1.06-7.13,.98-13.96-.04-20.53-2.8-2.18-.92-4.24-1.49-6.69-1.46-7.71,.07-12.09-3.47-13.83-10.86-.41-1.74-.49-3.57-.7-5.24-6.74-4.36-11.44-5.56-18.8-4.82,1.02,2.1,3.73,1.45,4.98,3.16,.1,.62-.14,1.03-.75,1.04-5.17,.08-10.35,.12-15.52,.23-3.85,.08-7.68,.32-12.01,2.37,8.75,.83,16.89-.37,25.56,3.05-8.45,.66-15.99,1.16-23.97,4.37,2.65,1.3,4.57,.75,6.4,.75,2.07,0,4.14-.14,6.22-.16,2.07-.02,4.15,.02,6.22,.09,2.07,.07,4.15,.11,6.21,.34,2.05,.23,4.09,.65,6.12,1.05,1.94,.39,4.14,.17,5.92,2.52-1.87,.98-3.61,.54-5.23,.61-1.81,.07-3.63,.02-5.44,.03-1.55,0-3.11-.01-4.66,.03-1.81,.04-3.63,.11-5.44,.21-1.79,.1-3.58,.24-5.58,.38,1.65,1.97,3.67,1.34,5.41,1.4,31.47,1.08,62.32,6.38,92.77,14.05,17.92,4.51,35,11.26,50.8,20.99,14.06,8.66,26.36,19.22,35.45,33.2,.41,.64,.75,1.33,.67,2.4-1.51-1.77-3.1-3.47-4.52-5.31-5.48-7.14-12.55-12.31-20.5-16.29-12.14-6.07-25.17-9.44-38.38-12.21-.98-.2-2.03-.08-3.05-.04-.21,0-.4,.3-.99,.77,4.01,2.67,8.71,2.68,12.87,4.19,4.11,1.5,8.35,2.63,11.93,4.6,.18,.67,.23,.88,.29,1.08-1.47,.22-2.95,.44-4.94,.74,1.26,2.13,3.28,1.91,4.74,2.59,1.63,.76,3.42,1.17,5.13,1.8,1.7,.62,3.39,1.27,5.05,2,1.66,.72,3.29,1.51,4.9,2.35,1.58,.83,3.11,1.76,4.63,2.86-12.67-4.4-25.37-8.63-39.09-7.33,.09,1.78,1.17,1.82,2.11,2,7.39,1.42,14.68,3.18,21.65,6.1,19.07,7.98,32.69,21.49,40.94,40.44,.36,.83,.56,1.74,1.32,4.12-6.51-11.55-13.62-20.65-23.23-27.59-7-5.06-14.62-8.76-22.9-11.23-8.83-2.63-17.81-3.17-26.92-2.62-2.79,.17-5.67,.12-8.96,2.49,2.96,.54,5.07,1,7.19,1.29,2.31,.31,4.64,.47,6.96,.65,4.13,.32,8.29,.43,12.39,.95,8.83,1.14,17.11,3.91,24.6,8.85l-.17-.25c-1.74-.44-3.51-.79-5.22-1.34-12.74-4.16-25.74-5.28-39.04-3.86-5.13,.55-10.31,.84-15.47,.87-7.52,.03-13.41-3.27-17.65-9.52-1.01-1.48-2.11-2.93-3.34-4.23-5.96-6.28-8.52-13.44-5.93-22.03,.13-.43-.1-.97-.22-1.91-4.29,.16-7.45,2.98-11.01,4.71-3.48,1.69-6.85,3.61-10.32,5.46,.71,1.85,2.22,1,3.22,.76,3.5-.84,6.95-1.93,10.41-2.93,.51,.71,1.02,1.41,1.53,2.12Zm84.04-50.12c-.1,.51-.45,.41-.3,.15,.52-.89-.62-.01,.42-.03-1.05,1.69-1.08,3.25,.18,4.96,2.61,3.54,5.71,6.59,8.89,9.59,.29,.38,.5,.94,.88,1.1,.5,.21,1.02,1.18,1.74,.13,.33-.48,.54-.78,.16-1.26-.44-.54-.89-1.08-1.33-1.62-1.91-3.45-5.08-5.81-7.56-8.77-1.12-1.34-2.98-2.18-3.08-4.23Zm-92.31,33.91c3.71,.35,7.12-1.15,10.7-1.67,1.23-.18,2.84-.82,3.61,.45,1.71,2.82,4.16,1.65,6.09,1.06,3.68-1.12,7.27-2.65,10.75-4.33,4.07-1.96,8.34-2.76,12.77-2.84,1.92-.03,3.84,.24,5.76,.37-15.37-6.15-31.49-8.62-47.63-11.06,3.51,1.71,7.13,3.03,10.69,4.5,1,.41,2.61,.52,2.24,2.81h-16.54c-.72,1.78,1.62,2.54,.34,4.14-1.82,.82-3.81,1.72-5.94,2.67,2.85,.7,5.72-.38,8.33,.84-.42,1.35-.72,2.29-1.03,3.2-.22-.02-.46-.08-.67-.03-.17,.04-.31,.22-.46,.34,.33-.15,.65-.3,.98-.46Zm-89.87-8.82c.24,.77,.25,1.07,.41,1.24,.35,.36,.73,.74,1.17,.96,4.4,2.24,9.06,2.21,13.63,.93,4.72-1.32,9.34-3.05,13.97-4.69,4.39-1.56,8.66-3.5,13.12-4.77,3.2-.91,6.72-.63,9.93-1.5,3.45-.93,6.17-3.82,9.93-4.18,.21-.02,.4-.3,.61-.46-5.98-2.15-11.91-2.73-28.28-2.41-8.07,.16-16.21,.1-24.26,2.79,1,1.78,2.36,1.76,3.6,1.87,4.64,.42,9.29,.75,13.92,1.2,.85,.08,2.15-.17,2.18,1.37-7.1,4.43-13.98,6.2-29.94,7.64Zm106.96-43.83c-.19,.12-.38,.24-.57,.36,.13,.15,.23,.4,.39,.44,.62,.17,.94-.06,.78-.56-.04-.13-.39-.16-.6-.24Zm-82.75,58c-.16-.16-.36-.49-.48-.47-.35,.07-.67,.29-1.01,.45,.17,.16,.36,.49,.49,.46,.35-.07,.67-.29,1-.45Z"/>
      <path class="cls-1" d="M165.06,19.43c-2.72-3.13-5.9-4.28-8.99-5.48-8.67-3.39-17.7-3.86-26.79-2.59-13.54,1.9-26.14,6.61-37.42,14.34-19.98,13.69-31.08,32.82-34.07,56.81-1.6,12.83-.38,25.4,3.42,37.67,6.41,20.67,18.96,36.64,37.53,47.8,1.55,.93,3.12,1.84,4.68,2.76,1.3,.77,2.61,1.54,3.91,2.31-21.06-7.03-37.26-19.98-46.75-40.2C34.12,76.48,66.65,14.37,124.62,1.92c12.04-2.59,24.12-2.73,36.17,.62,22.88,6.36,41.29,25.41,43.03,54.83,.43,7.33-.5,14.5-3,21.42-.44,1.22-.88,2.45-1.43,3.61-7.84,16.36-21.42,25.89-38.4,30.12-16.15,4.03-35.13-7.18-37.04-27.4-.79-8.37,1.78-15.87,6.98-22.45,1.42-1.79,2.99-3.46,4.37-5.05-.33-2.08-1.92-1.98-3.02-2.23-11.35-2.56-22.79,2.58-29.18,13.05-5.14,8.44-5.85,17.6-4.04,27.04,1.58,8.25,5.02,15.78,9.71,22.73,3.79,5.62,8.11,10.65,12.97,15.1,2.7,2.47,8.07,7.33,15.96,11.47,12.1,6.35,22.86,7.22,22.84,7.34-.03,.12-11-.38-23.93-6.01-15.03-6.54-24.43-16.4-28.73-21.54-4.29-5.13-7.95-10.9-10.92-17.36-4.42-9.62-6.11-19.8-4.33-30.36,2.81-16.67,12.4-28.1,27.38-35.4,2.45-1.19,5.4-1.61,7.33-3.84-1-1.19-1.98-1.09-3.02-.93-10.05,1.53-18.77,5.94-26.12,12.83-14.81,13.86-21.18,30.96-18.87,51.18,2.17,18.96,11.07,34.32,25.41,46.63,10.63,9.12,23.34,13.25,37.04,14.48,12.16,1.09,24.34,.57,36.49-.61,2.82-.27,5.64-.49,8.52-.4-5.4,2.48-11.22,3.33-16.89,4.69-7.83,1.88-15.76,3.21-23.77,3.76-26.13,1.77-46.98-8.8-63.28-28.56-32.2-39.02-19.24-92.97,22.06-117.21,16.48-9.68,34.33-10.79,52.62-5.71,1.99,.55,3.93,1.3,5.9,1.92,.21,.07,.5-.07,1.64-.27Zm-34.92,17.45l.23-.34-.38-.04,.15,.38Z"/>
      <path class="cls-1" d="M371.01,265.08c-.28,2.57-.7,5.14-.79,7.72-.06,1.53,.26,3.11,.66,4.61,.32,1.2,1.01,2.31,1.56,3.5,2.77-1,2.91-3.71,4.16-5.56,4.77-7.02,11.14-11.44,19.6-12.69,13.1-1.94,25,5.59,28.74,18.33,3.77,12.83,.69,28.59-11.84,37.58-15.6,17.59-55.41,14.83-72.41-8.87-14.2-19.8-16.15-41.05-6.97-63.37,3.9-9.48,9.91-17.69,17.73-24.32,24.63-20.88,52.74-26.72,83.62-17.9,14.9,4.26,26.87,13.22,35.54,26.28,.67,1.02,1.69,1.94,1.15,3.97-2.11-2.19-3.97-4.18-5.9-6.1-15.05-14.99-33.1-23.14-54.42-22.62-16.68,.41-32.04,5.71-45.81,15.27-1.85,1.29-4.14,2.31-4.52,4.95,.81,.99,1.79,.9,2.74,.34,1.57-.91,3.08-1.92,4.63-2.86,19.16-11.46,39.44-13.27,60.63-6.98,3.39,1.01,5.71,1.97,6.54,2.4,2.23,1.17,3.88,2.45,4.92,3.34-6.17-2.46-24.04-8.68-45.43-3.17,0,0-10.42-2.55-33.72,19.47-.94,.88-1.78,1.88-2.58,2.89-.28,.35-.28,.92-.41,1.42,1.02,1.28,1.82,.16,2.46-.37,20.13-16.71,42.91-19.07,67.19-12.07,16.16,4.65,30.05,13.62,43.01,24.12,1.46,1.18,2.59,2.51,2.65,4.49,0,0,.01,.13,.01,.13-.37-.65-.58-1.56-1.15-1.92-14.65-9.41-29.98-17.39-47.09-21.36-10.97-2.54-22-3.25-33.05-.53-11.38,2.81-21.06,8.53-28.69,17.46-4.4,5.15-7.59,11-8.75,17.93,1.7,.38,1.53-.99,1.97-1.59,.45-.62,.67-1.39,1-2.09,3.12-6.44,7.14-11.53,11.97-15.4,6.51-5.22,12.9-6.79,25.47-9.63,7.42-1.68,12.58-2.09,12.59-2.03,.01,.09-9.69,.38-20.38,5.08-4.23,1.86-10.71,4.79-16.54,11.48-4.22,4.84-7.23,10.72-9.04,17.67-.91,3.48-.95,6.96,.29,11.41,1.83-2.49,1.19-4.31,1.51-5.92,.4-2.03,.55-4.11,1.07-6.1,.45-1.74,1.23-3.4,1.92-5.07,.7-1.68,1.58-3.25,3.04-4.42,.37,.36,.74,.73,1.1,1.09Zm-13.96-17.87s-.02,.03-.02,.03c-.23-.38-.44-.77-.7-1.14-.17-.25-.43-.32-.43-.32s.22,.1,.43,.32c.14,.15,.19,.26,.31,.48,.09,.15,.22,.37,.41,.62Zm-7.63-6.62c.22-2,1.78-3.11,3.04-4.34,.76-.74,1.54-1.47,2.32-2.19,3.56-3.29,5.46-3.5,6.24-5.66,.13-.35,.73-2.02,.09-2.56-1.6-1.34-11.33,4.33-11.91,11.78-.1,1.29,.1,2.35,.24,2.95-.35-.13-.7-.26-1.04-.38,.34,.13,.68,.26,1.02,.39Z"/>
      <path class="cls-1" d="M284.97,236.59c-.96,2.48-3.17,4.01-4.66,6.08-1.64,2.28-3.9,4.15-4.54,6.97,.57,1.25,1.68,1.6,2.54,.96,1.43-1.06,2.6-2.48,3.9-3.74,3.13-3.03,6.19-6.16,9.87-8.46,1.55,1.12,.44,1.92-.14,2.51-3.62,3.65-7.31,7.23-10.11,11.45,1.1,1.58,1.84,.7,2.62,.15,2.72-1.95,5.41-3.96,8.19-5.83,1.22-.82,2.48-1.79,4.72-1.31-.4,5.04-4.19,9.97-1.48,15.3,1.77,.15,1.32-1.28,1.53-2.02,1.68-5.96,3.23-11.97,5.95-17.57,2.81-5.78,5.65-11.58,10.85-15.72,.39,.41,.77,.82,1.16,1.23-5.43,8.64-9.42,17.86-11,28.01-.79,5.06-1.13,10.11-.48,15.02,1.89,.46,2.45-.47,2.93-1.37,1.71-3.25,2.66-6.76,3.03-10.39,1.36-13.51,7.52-24.7,16.72-34.29,17.83-18.58,39.29-30.34,65.09-33.16,17.67-1.93,34.56,1.35,50.55,9.16,.45,.22,.85,.57,1.22,.91,.18,.16,.24,.45,.67,1.32-2.27-.77-4.08-1.39-5.89-2.01-37.37-12.67-78.23-1.34-104.92,28.07-9.08,10.01-13.37,21.32-11.52,34.89,.81,5.92,.99,11.88-.82,17.74-1.68,5.44-4.85,9.61-9.67,12.66-8.51,5.38-16.16,2.96-22.05-5.37-2.74-3.87-3.78-8.5-4.17-13.21-.35-4.14-.34-8.29,.6-12.38,.35-1.5,.98-2.97,.49-4.57-1.59-.16-2.13,1.07-2.76,2.13-4.2,7.04-6.76,14.5-6.22,22.88,.2,3.08,.24,6.31-.44,9.28-3.24,14.08-15.99,20.31-27.79,14.79-.68-.32-1.38-.6-2.04-.89-1.56,.95-1.8,2.5-2.04,4.05-.75,4.87-1.61,9.71-3.16,14.4-2,6.03-6.05,10.11-11.82,12.64-2.93,1.28-5.96,1.74-9.1,1.54-5.42-.36-9.09-3.43-10.54-8.75-.48-1.74-1.07-3.51-1.16-5.29-.35-6.54-2.27-12.76-3.95-18.99-2.27-8.43-1.38-16.49,2.15-24.26,2.03-4.46,4.45-8.79,7.09-12.93,15.59-24.46,36.76-42.61,62.76-55.28,19.7-9.6,40.51-15.72,61.93-19.92,6.86-1.34,13.78-2.32,20.68-3.45,.99-.16,3.55-.21,6.91-.94,2.77-.6,4.68-1.3,4.71-1.22,.05,.15-7.06,3.18-10.57,4.08-18.55,4.76-37.19,9.2-55.26,15.67-18.9,6.76-36.65,15.68-52.54,28.08-8.21,6.41-15.76,13.48-21.94,21.91-6.34,8.65-11.22,18.02-13.51,28.6-1.01,4.67-.95,5.45,.42,10.35,1.18,.35,1.27-.65,1.4-1.3,3.58-17.15,12.82-30.94,25.34-42.78,3.57-3.37,7.26-6.61,10.9-9.9l-.31,.12c-1.14,3.31-3.77,5.48-6.07,7.88-5.54,5.79-10.55,11.97-14.54,18.94-3.09,5.41-5.32,11.14-6.37,17.29-.66,3.91-.44,5.19,1.41,9.79,.56-1.02,1.19-1.86,1.52-2.81,3.76-10.99,8.73-21.38,15.41-30.92l-.11-.04c1.26,1.3,1.13,2.67,.45,4.25-1.33,3.09-2.54,6.23-3.71,9.38-.44,1.18-.01,1.61,2.21,2.86,0,2.12-.1,4.18,.04,6.23,.07,.97,.59,1.92,1.27,3.95,1.18-8.14,4.76-14.09,8.58-19.94,6.95-10.67,14.19-21.09,23.87-29.55,1.55-1.35,3.26-2.51,4.95-3.69,.08-.06,.64,.56,.97,.86l-.16-.16Zm-23.21,40.59c.56-.5,1.26-.9,1.65-1.5,4.89-7.51,8.07-16,13.31-23.32,.61-.85-.36-1.34-.7-1.96-2.37,.37-3.25,2.39-4.32,4.06-4.43,6.91-9.05,13.74-10.81,21.97-.17,.47-.47,.94-.46,1.41,0,.44,.35,.88,.54,1.32,.27-.41,.58-.8,.79-1.24,.1-.2,0-.5,0-.75Z"/>
      <path class="cls-1" d="M92.91,214.18c-1.4,2.44-4.38,3.74-4.93,6.76,.85,1.08,1.85,.81,2.68,.19,3.72-2.8,7.47-5.56,11.05-8.54,6.96-5.8,13.73-11.83,20.74-17.57,6.42-5.25,13.29-9.89,20.92-13.28,.91-.4,1.77-1.16,2.89-.54-.11,1.14-1.09,1.58-1.86,2.05-8.74,5.33-15.89,12.41-22.4,20.2-4.98,5.96-9.77,12.08-14.68,18.1-5.9,7.23-12.01,14.26-19.3,20.17-3.44,2.79-7.09,5.24-11.3,6.7-9.59,3.33-19.47-1.24-22.83-10.48-1.39-3.82-1.08-7.63,.11-11.43,.38-.59,.59-1.2-.09-1.7-.05-.04-.54,.52-.83,.79-2.47,.71-4.98,1.31-7.4,2.15-3.26,1.14-6.6,1.34-9.96,1.05-8.79-.73-15.33-7.57-15.62-16.37-.08-2.56,.3-5.14,.46-7.63-.73-1.81-2.43-1.77-3.82-2.32-2.39-.95-4.84-1.85-7.06-3.12-5.79-3.33-8.97-8.5-9.54-15.11-.29-3.34-.14-6.72,.03-10.08,.25-5.17,.76-10.32,.08-15.5-.55-4.19,.64-7.78,4.53-9.9,3.66-2,7.46-1.87,11.09,.19,2.02,1.15,3.9,2.54,5.87,3.77,3.96,2.47,8.11,4.5,12.55,6.02,8.96,3.07,8.29,2.59,13.61,10.47,.46,0,1.02,.16,1.44-.02,7.94-3.5,15.7-2.38,23.27,1.05,5.65,2.56,11.17,5.41,16.75,8.11,6.55,3.16,13.23,5.9,20.74,6.12-5.26,1.52-8.06,1.67-13.79,.18-5-1.3-9.92-2.9-14.89-4.32-2.48-.71-4.99-1.31-7.48-1.95-.78-.68-1.96-1.07-2.53-.38-.82,.98,.62,1.31,1.12,1.9,1.87,1.74,3.74,3.48,5.47,5.09,.24,1.64-1.82,1.06-1.74,2.68,4.77,2.98,10.95,3.58,15.56,7.17,.06,1.82-1.27,1.64-2.12,1.56-3.34-.3-6.68-.72-10.01-1.19-6.4-.91-12.74-2.31-19.26-2.1-5.82,.18-10.38-3.11-14.83-6.03-3.2-2.1-3.65-6.06-3.03-9.87q1.17-7.28-5.86-9.76c-.48-.17-1-.24-1.52-.37-1.3,1.29-.11,2.27,.43,3.32,1.55,3.02,2.8,6.09,1.52,9.67-3.44-.42-3.39-5.2-6.86-5.49-.88,1.1-.04,1.93,.45,2.75,6.95,11.77,17.81,17.67,30.78,20.23,5.08,1,10.23,1.58,15.43,1.49,1.43-.02,2.95-.32,5.01,1.13-7.78,1.67-14.94,1.14-23.72,.76,6,3.23,11.27,4.17,15.16,7.78,10.22-1.38,19.64-6.11,31.27-6.34-7.56,4.48-15.44,5.7-21.18,12.13,3.51,.51,5.54-1.88,8.11-1.77,.43,.48,.86,.95,1.3,1.43Zm-49.75-17.76c-2.16-1.37-4.39-2.65-6.46-4.13-2.3-1.65-4.43-3.53-6.68-5.24-1.86-1.41-3.04-3.79-5.93-4.62,.27,3.26,2.14,5.71,1.82,8.12-.63,.9-1.06,.95-1.62,.61-4.26-2.62-6-7.4-9.69-11.69-.9,4.36-1.17,7.85,1.23,10.97,2.91,3.79,7.04,5.92,11.4,7.58,.62,.24,1.54-.03,2.24-.29,4.49-1.7,9.05-1.58,13.68-1.31Zm27.02,12.55c-8.11-1.65-14.58-2.99-21.33,.26,1.66,1.31,3.29,.78,4.77,1.01,2.46,.39,1.08,2.95,2.07,3.73,5.34,.75,8.81-2.72,14.49-5Zm12.37,6.7l-.5-.29-.04,.5,.54-.21Z"/>
      <path class="cls-1" d="M318.13,171.86c-6.7-.97-12.83-1.88-18.97-2.74-43.51-6.08-79.95,8.37-110.95,38.41-5.79,5.61-10.37,12.23-14.42,19.22-2.72,4.71-5.46,9.41-8.41,13.98-3.83,5.94-8.6,11.02-14.66,14.78-9.79,6.08-19.95,6.91-30.22,1.52-2.71-1.42-5.25-1.67-8.13-1.59-5.59,.15-9.19-2.86-11.33-7.84-1.07-2.48-1.19-4.93-.26-7.55,1.06-2.96,2.47-5.74,4.3-8.24,2.44-3.34,5.08-6.55,7.78-9.69,4.73-5.5,9.66-10.83,14.33-16.37,8.47-10.04,18.45-18.01,30.24-23.91,14.63-7.32,29.41-14.1,45.45-17.73,8.62-1.95,17.31-3.05,26.28-2.02-.86,2.06-2.63,1.23-3.91,1.48-6.1,1.19-12.21,2.35-18.02,4.64-3.54,1.4-7.41,2.16-10,5.52-.85,1.1-2.67,1.49-4.08,2.12-1.86,.82-3.93,1.21-5.41,2.66-.26,1.58,1.4,1.15,2.16,2.44-3.85,2.6-7.76,5.24-11.56,7.8,.47,1.72,1.96,.93,2.5,1.58,.51,.48,.36,.81-.25,1.19-9.14,5.66-16.9,12.8-23.21,21.52-.58,.8-1.05,1.67-1.56,2.49,1.36,1.13,2.13,.15,2.89-.39,7.99-5.74,15.98-11.49,23.93-17.28,8.59-6.25,17.22-12.42,26.5-17.63,21.7-12.18,45.06-18.08,69.87-18.16,12.55-.04,24.73,2.13,36.24,7.41,.7,.32,1.39,.66,2.06,1.05,.19,.11,.27,.42,.81,1.35Z"/>
      <path class="cls-1" d="M212.58,227.88c.88,.58,1.83,1.12,2.82,.34,1.21-.96,2.34-2.03,3.49-3.07,23.93-21.94,51.99-35.55,83.83-41.45,13.56-2.51,27.22-3.31,40.99-1.76,4.34,.49,8.61,1.03,12.82,2.72-9.45-.19-18.78-.41-28.07,.44-30.51,2.78-57.88,13.23-81.2,33.5-7.47,6.5-13.87,13.96-19.6,22.02-3,4.22-6.01,8.45-9.07,12.63-3.07,4.19-6.56,8.02-10.43,11.49-4.08,3.66-8.56,6.8-13.77,8.56-2.95,1-5.67,2.19-8.39,3.76-6.42,3.7-15.18,1.17-19.1-5.1-2.05-3.28-2.39-6.85-1.41-10.49,6.94-25.73,20.34-46.91,43.28-61.34,13.5-8.5,28.15-14.23,43.6-18,9.71-2.37,11.21-.72,34.64-4.2,6.66-.99,13.31-2.08,13.36-1.79,.07,.38-11.41,2.94-17.55,4.3-4.37,.97-10.02,1.87-17.29,4.01-4.24,1.25-8.43,2.68-12.58,4.3-1.15,.45-2.22,1.09-3.65,1.8,1.25,.9,1.99,1.44,2.76,2-.92,2.14-3.17,2.53-4.85,3.63-11.76,7.68-22.64,16.32-31.1,27.72-1.05,1.41-1.68,3.27-3.53,3.99-.37,1.5,.61,3.5-1.61,4.27,1.05,.12,.12-1.09,.61-.17,.08,.15,.08,.53,.05,.54-.58,.16-.75-.05-.48-.56,.28-1.43,2.27-2.26,1.44-4.09Z"/>
      <path class="cls-1" d="M314.19,225.37c1.24-2.59,3.7-3.94,5.71-6.23,.82,2.35-1.05,2.89-1.72,3.98-.78,1.26-1.88,2.33-2.83,3.48-.39-.41-.77-.82-1.16-1.23Z"/>
      <path class="cls-1" d="M91.62,212.75c.9-1.13,1.98-1.27,3.22-.62-.14,1.19-1.11,1.54-1.92,2.05-.43-.48-.86-.95-1.3-1.43Z"/>
      <path class="cls-1" d="M387.45,97.34l-.63,1.26c-1.06-1.06,.74-.68,.64-1.27,0,0,0,.01,0,.01Z"/>
      <path class="cls-1" d="M379.85,101.18c.65-.01,.94,.29,.76,.88-.02,.08-.5,.14-.67,.04-.62-.36-.56-.74,.12-1.04,0,0-.21,.12-.21,.12Z"/>
      <path class="cls-1" d="M355.78,157.39c.84-.28,1.77-1.11,2.52-.08,.82,1.13-.46,1.55-.99,2.2-.51-.71-1.02-1.41-1.53-2.12Z"/>
      <path class="cls-1" d="M450.52,191.68c-.13-.06-.25-.13-.38-.19,.2,.42,.26,.39,.19-.08,.02,.01,.19,.27,.19,.27Z"/>
      <path class="cls-1" d="M255.57,242.13c-.08,.14-.16,.28-.23,.42,.13-.05,.25-.09,.38-.14-.16-.04-.32-.09-.47-.15,.01-.02,.33-.14,.33-.14Z"/>
      <path class="cls-1" d="M369.9,263.99c.49-.44,1.36-1.3,1.41-1.25,.95,.87,.44,1.63-.3,2.34-.37-.36-.74-.73-1.1-1.09Z"/>
      <path class="cls-1" d="M479.62,261.4s0,.07,.02,.11c0,0-.02-.11-.02-.11Z"/>
      <path class="cls-1" d="M26.08,194.25c.41-.8,.33-.69-.04-.02l.04,.02Z"/>
      <path class="cls-1" d="M26.04,194.23c.29-.23,.58-.46,.52-.41,.06-.05-.21,.19-.48,.43,0,0-.04-.02-.04-.02Z"/>
    </g>
  </g>
</svg>