<?xml version="1.0" encoding="UTF-8"?>
<svg id="Layer_2" data-name="Layer 2" xmlns="http://www.w3.org/2000/svg" viewBox="0 0 439.1 397.42">
  <defs>
    <style>
      .cls-1 {
        fill: #c5a994;
      }
    </style>
  </defs>
  <g id="Layer_1-2" data-name="Layer 1">
    <g>
      <path class="cls-1" d="M49.12,301.73c5.15-1.74,10.26-3.58,15.46-5.17,2.71-.83,5.52-1.45,8.42-.83,1,.22,1.08,.24,3.29,3.12-11.72,1.29-21.82,6.11-30.73,13.34-4.98,4.04-8.33,10.07-10.01,16.01,1.84,.87,2.7-.66,3.72-1.58,6.98-6.29,14.65-11.49,23.18-15.49,7.33-3.44,15.02-5.63,22.98-6.89,2.77-.44,5.63-.88,8.47,.09-.83,1.9-2.68,1.43-4.03,1.85-8.72,2.68-17.02,6.21-24.44,11.62-.8,.58-1.84,.84-2.75,1.25,.2,.46,.38,.93,.6,1.38,.03,.06,.49,.01,.5-.05,.27-1.01-.73-.91-1.17-1.3,.77,.81,1.75,1.22,2.78,.8,2.15-.88,4.25-1.91,6.36-2.89,28.12-13.02,57.65-18.36,88.51-15.75,23.38,1.98,45.93,7.72,67.83,16.07,6.65,2.54,13.42,4.84,19.33,8.79-12.84-5.31-40.95-13.06-56.39-15.93-17.7-3.28-35.5-4.22-53.4-2.87-14.27,1.07-28.19,4-41.56,9.24-1.18,.46-2.27,1.13-3.57,1.79,1.88,1.18,3.28-.16,4.69-.47,18.62-4.1,37.38-5.09,56.39-3.61,24.99,1.95,49.03,8,72.71,15.77,22.41,7.36,45.02,13.96,68.21,18.42,21.16,4.07,42.5,6.62,64.07,6.82,23.97,.23,47.5-3.09,70.6-9.48,3.3-.91,6.63-1.71,9.92-2.55-.1-1-.81-1.85-1.46-1.46-17.21,10.34-36.57,13.61-55.88,16.57-41.83,6.41-83.19,2.56-124.21-6.82-16.41-3.75-32.83-7.49-49.33-10.82-15.53-3.13-31.27-4.63-47.15-3.79-2.58,.14-5.14,.53-7.69,.94-.69,.11-1.31,.71-2.53,1.41,25.11,3.31,48.35,11.54,71.96,18.39,20.97,6.08,42.35,9.86,64.06,12.02,21.73,2.17,43.48,2.23,65.23,1.02,11.88-.66,23.75-1.78,35.49-3.94,1-.18,2.05-.11,4.6-.23-6.61,2.59-12.16,3.16-17.58,4.07-28.74,4.81-57.7,6.2-86.77,4.71-18.65-.96-37.12-3.64-55.53-6.7-18.66-3.1-37.33-6.11-56.16-7.98-2.46-.24-4.97-.03-7.58-.03,1.2,1.82,3.02,2.12,4.7,2.72,18.26,6.57,30.44,10.1,66.96,16.88,16.78,3.12,17.61,3.62,17.58,3.77-.07,.49-9.09-.6-23.21-2.01-13.41-1.35-26.65-3.85-39.87-6.42-.44-.09-.79-.62-1.17-.92-.03,.26-.02,.52-.12,.74-.4,.93-.94,1.81-2.06,.93-.78-.61-.07-1.43,.29-1.85,.72-.85,1.59-1.04,1.97,.41,1.59,2.22,4.06,2.97,6.46,3.73,10.38,3.3,20.96,5.81,31.64,7.92,29.67,5.88,59.63,7.37,89.77,5.98,13.47-.62,23.9-2.54,23.96-2.12,.08,.55-17.57,3.92-36.4,5.69-7.64,.72-21.63,1.7-40.39,1.22-23.38-.6-46.47-3.69-69.39-8.24-19.82-3.93-39.58-8.18-59.6-10.98-11.05-1.55-22.12-2.71-33.31-2.24-12.05,.5-23.55,3.07-34.54,8.2-5.6,2.62-11.37,5.3-17.36,6.61-14.52,3.17-28.34,1.23-40.29-8.41-5.59-4.51-9.31-10.47-11.19-17.4-7.73-28.42-.5-52.78,20.44-73.11,8.72-8.47,19.35-13.79,31.15-16.75,1.51-.38,3-.87,4.68-.07-1.51,2.01-3.87,2.38-5.91,3.28-8.38,3.71-16,8.54-22.3,15.28-5.54,5.93-9.96,12.53-11.67,20.82,1.97-2.65,3.83-5.39,5.95-7.92,2.15-2.58,4.42-5.1,6.87-7.4,2.64-2.47,5.47-4.77,8.39-6.91,2.68-1.96,5.49-3.81,9.07-4.84,.29,2.06-1.35,2.57-2.33,3.46-1.35,1.22-2.77,2.35-4.11,3.56-1.15,1.04-2.28,2.12-3.35,3.25s-2.12,2.28-3.1,3.48c-1.15,1.41-2.31,2.81-3.28,4.34-.8,1.26-2.05,2.37-1.87,4.53,2.56-.36,3.24-2.78,4.7-4.12,1.72-1.57,3.18-3.42,4.86-5.03,1.49-1.43,3.07-2.8,4.73-4.04,1.87-1.39,3.82-2.67,5.82-3.86,1.98-1.18,3.97-2.44,6.85-2.61-3.42,3.92-8.28,5.92-10.55,10.45-.55,.3-1.32,.64-.7,1.33,.23,.25,1.15-.14,1.76-.23Zm-15.4,28.22c-.49,.62-1.06,1.24-.01,1.87,.25-.41,.49-.83,.74-1.24,.71-.42,2.08-.81,1.02-1.79-1.06-.97-1.2,.67-1.74,1.17Z"/>
      <path class="cls-1" d="M162.94,258.13c-.09-1.92-1.29-3.33-2.18-4.9-15.71-27.69-21.93-57.52-18.91-89.09,2.84-29.68,13.77-56.44,32.91-79.27,16.23-19.35,37.53-25.96,62.25-20.58,8.24,1.79,15.46,5.91,21.56,11.82,13.32,12.9,16.34,33.28,7.1,49.35-1.97,3.42-3.33,6.86-4.32,10.69-2.64,10.28-12.42,19.72-25.35,18.83-2.84-.2-5.71-.28-8.53-.66-8.04-1.08-14.12,2.22-18.92,8.36-6.23,7.95-9.91,16.95-10.85,27.04-1.33,14.29,1.31,27.86,7.18,40.89,7.15,15.87,17.6,29.29,30.47,40.86,22.25,20.01,48.23,32.96,77.08,40.33,16.39,4.19,33.04,6.47,49.99,6.39,5.18-.03,10.38,.02,15.54,.41,3.65,.28,7.02-1.3,10.62-1.2-2.61,0-5.55-.77-7.78,.15-5.26,2.19-10.69,1.78-16.07,2.13-13.74,.9-27.45,.47-41.09-1.56-40.79-6.07-76.25-22.85-104.89-52.89-18.68-19.6-30.99-42.66-35.67-70.09-1.95,1.19-1.97,2.89-2.13,4.47-1.95,20.2,1.71,39.22,11.84,56.93,10.67,18.66,25.46,33.27,43.57,44.62,18.45,11.56,38.6,18.8,59.87,23.05,15.56,3.1,31.32,4.19,47.15,4.42,2.84,.04,5.7-.17,8.54-.36,7.82-.53,17.03-.13,17.04,.22,.01,.42-13.27,1.24-19.68,1.55-18.31,.87-38.78,1.84-62.75-2.61-36.4-6.75-68.4-22.05-94.42-48.82-17.18-17.67-29.21-38.31-34.19-62.63-5.25-25.66-2.81-50.65,8.42-74.42,10.6-22.45,27.33-38.15,51.69-44.9,.74-.2,1.43-.56,2.13-.9,.2-.1,.34-.35,.53-.56,.02-1.63-1.37-1.23-2.19-1.3-6.03-.51-11.87,.47-17.58,2.42-16.38,5.59-28.93,15.86-37.8,30.7-6.87,11.49-11.14,23.96-13.44,37.08-5.05,28.88-1.63,56.78,10.06,83.69,1.4,3.22,3.93,6.23,3,10.19l.19,.17Z"/>
      <path class="cls-1" d="M107.6,208.31c-.33,3.21,.78,6.05,2.18,8.84,6.2,12.34,14.76,19.83,17.99,21.86,6.26,3.93,11.45,4.98,11.35,5.24-.14,.37-10.19-2.26-16.68-6.35-1.72-1.08-3.05-2.83-5.21-3.11-.15-.02-.41,.76-.62,1.17,0,0,.31-.32,.31-.32,.12-.63,.46-1.46-.44-1.65-1.27-.27-1.28,.77-1.33,1.64l.24,.29c-2.76-.23-4.71-2.06-6.76-3.6-10.7-8.02-19.39-17.88-26.42-29.23-2.19-3.54-3.62-7.4-4.9-11.38-3.14-9.77,.13-17.72,6.61-24.86,.85-.93,2.16-1.45,2.51-2.85-1.82-7.2-2.22-7.82-8.09-11.92-.71,5.04,.59,10.53-3.7,14.45-1.92-1.07-1.18-2.73-1.36-4.06-.21-1.54-.15-3.12-.46-4.63-.31-1.51-.87-2.99-1.45-4.42-.57-1.39-1.3-2.72-2.45-3.25-2.01,.34-1.6,1.65-1.75,2.53-.82,4.85-1.46,9.73-2.32,14.58-2.54,14.16,.19,27.28,7.54,39.54,4.84,8.08,11.02,15.01,18.17,21.11,7.72,6.59,16.16,12.09,25.1,16.87,.88,.47,3.72,1.82,7.6,3.89,4.36,2.33,7.84,4.34,10.03,5.64-1.59-.85-3.26-1.46-5-2.01-14.38-4.59-28.09-10.67-40.39-19.55-18.39-13.27-30.48-30.8-35.31-53.13-.32-1.49-.43-3.12-2.03-4.25-3.31,5.73-2.31,11.75-1.03,17.8-4.39-.12-4.83-4.88-8.13-5.99,.29,7.36-.86,6.51,6.74,20.76-1.02,1.39-2.3-.52-3.46,.35-.87,2.4,.31,4.37,1.52,6.27,2.59,.7,5.13,1.26,7.58,2.08,12.37,4.12,22.46,11.46,30.28,21.9h.1c-2.78,.33-4.89-1.42-7.23-2.4-6.94-2.91-14.06-5.16-21.52-6.24-1.05-.15-2.57-.56-2.97,1.47,1.89,2.33,5.13,2.19,7.27,3.93,2.01,1.63,4.74,2.35,6.78,4.85-4.7,.73-8.83-.38-12.77,.69-.02,1.59,1,1.96,2,2.17,2.78,.58,5.59,1.02,8.37,1.6,.96,.2,2.64,.59,2.67,.98,.19,2.74,2.11,2.35,3.81,2.39,3.62,.09,7.24,.03,10.85,.24,5.42,.31,10.86,.67,15.64,3.73,1.38,.88,2.9,1.03,4.47,.9,10.23-.88,20.02,1.38,29.76,4.08,6.81,3.18,13.74,6.14,19.52,11.11,1.13,.97,2.72,1.62,2.88,4.03-6.18-.93-11.83-3.43-17.79-4.56-5.82-1.1-11.58-2.74-18.65-2.05,5.28,3.82,11.52,3,16.65,7.22h-16.69c-.37,2.43,1.35,2.21,2.29,2.5,3.22,.98,6.49,1.76,9.75,2.63,1.02,.27,2.01,.61,2.25,2.36-9.21-.74-18.4-1.49-27.46,1.15,.83,2.02,2.4,2.26,3.94,2.5,5.66,.86,11.34,.9,17.06,.48,9.56-.7,19.12-1.48,28.72-.59,10.71,.99,20.79,4.17,30.47,8.71,.82,.39,4.01,2.23,3.9,2.46-.08,.16-1.64-.48-2.93-.95-2.96-1.06-5.2-1.31-9.6-2.21-13.39-2.73-26.77-2.45-40.09,.73-7.3,1.75-14.51,3.93-22.03,4.64-7.93,.75-15.52-.5-22.62-4.11-9.56-4.87-14.57-12.9-15.76-23.45-.55-4.88,.83-9.18,4.1-12.6-.85-2.1-2.3-1.56-3.39-1.38-7.92,1.32-15.8,2.82-23.72,4.11-4.6,.75-9.23,1.37-13.87,1.76-4.68,.39-9.29-.29-13.77-1.84-15.44-5.35-23.24-22.55-17.2-38.84,1.75-4.71,4.35-8.82,8.03-12.23,1.7-1.57,3.46-3.07,5.25-4.66-1.75-2.35-4.4-2.88-6.55-4.15-9.38-5.51-12.86-13.89-11.7-24.34,1.34-12.14,7.87-21.76,15.58-30.71,1.52-1.76,3.18-3.41,4.85-5.05,2.5-2.45,3.02-5.44,2.15-8.61-.88-3.24-2.13-6.38-3.23-9.56-2.54-7.34-.25-12.84,7.02-15.49,6.29-2.29,12.63-4.72,19.64-3.03,3.82,.92,7.43,2.29,10.84,4.16,11.06,6.08,20.48,14.16,28.01,24.26,6.4,8.58,9.61,18.29,8.39,29.17-.09,.76-.01,1.53-.01,2.27,1.85,1.66,3.99,1.02,5.95,1.06,4.98,.11,9.76,1.08,14.4,2.87,7.45,2.88,12.68,7.99,15.18,15.61,1.13,3.43,2.14,6.98,2.59,10.55,1.2,9.57,3.32,18.88,6.8,27.87,.17,.43,.1,.96,.2,2.07-2.92-1.94-4.35-4.59-5.95-7.05-1.56-2.39-2.89-4.92-4.41-7.33-1.61-2.54-2.32-5.71-5.66-8.16-.19,12.18,6.09,20.78,12.51,30.03-2.13-.07-2.96-1.33-3.92-2.19-5.64-5.07-10.16-11.04-14.12-17.48-1.2-1.96-2.54-3.82-3.81-5.73-.07-.36-.15-.72-.23-1.08,.18,0,.46-.08,.51,0,.28,.43,.11,.73-.43,.87,.39,5.43,3.44,9.81,5.72,14.49-.6,.61-1.19,1.23-1.79,1.84-4.98-3.27-8.43-7.94-11.74-12.73,.13,.16,.25,.31,.37,.46-.61,.12-.62-.03-.03-.44Zm-82.11-30.14c-3.72,4.66-4.19,7.28-1.14,10.82,3.55,4.13,7.9,7.4,12.87,9.72,.24,.11,.81-.47,1.15-.73-.72-.1-1.33,0-1.22,.94,.01,.11,.36,.19,.55,.28,.17-.41,.33-.82,.5-1.23-3.38-4.71-4.19-10.4-5.89-15.84-2.4,.97-2.41,4.71-5.85,4.42-2.2-2.58-1.31-5.61-.83-8.56-.39-.16-1.08-.25-1.12-.48-.12-.59,.38-.88,.84-.5,.22,.18,.1,.77,.14,1.17Z"/>
      <path class="cls-1" d="M118.4,73.65c-9.11,10.35-13.14,24.4-10.83,37.22,.29,1.61,1.64,3.14,.66,5.08-3.65-2.11-3.35-6.92-6.78-9.83-.34,6.01,2.12,10.58,4.38,15.12,2.29,4.59,5,8.97,7.61,13.59-3.78-1.59-4.39-2.01-9.36-9.02-2.68-3.78-5.1-7.78-7.37-11.83-2.16-3.85-3.62-8.05-4.44-12.37-.85-4.48-1.17-9.06-1.81-14.35-2.45,2.71-2.8,5.18-3.06,7.69-.77,7.39,.36,14.48,3.87,21.04,2.07,3.86,4.35,7.66,6.95,11.17,4.46,6.02,9.23,11.8,13.93,17.64,.44,.55,1.29,.77,1.95,1.14h-.19c-2.06,.27-3.38-1.11-4.64-2.3-7.18-6.76-14.11-13.76-19.78-21.89-2.38-3.41-4.39-7.01-5.98-10.88-3.81-9.33-3.83-18.67-.33-28.06,1.82-4.89,4.44-9.36,7.32-13.69,2.87-4.31,5.89-8.5,7.84-13.38,.85-2.12,2.37-4.01,3.8-5.84,4.49-5.72,7.1-11.94,6.07-19.42-.83-6.03,.6-11.87,2.32-17.58,1.48-4.91,5.41-8.16,8.96-11.45,2.47-2.29,5.88-1.45,8.89-.35,5.44,1.97,10.16,5.14,14.41,9.01,4.04,3.68,7.75,7.68,10.88,12.15,2.87,4.1,6.25,7.49,10.46,10.24,3.01,1.97,5.75,4.44,8.3,6.99,6.02,6,7.65,13.34,5.79,21.51-1.11,4.86-3.22,9.29-6.07,13.38-2.83,4.05-6.03,7.79-9.5,11.3-3.28,3.32-6.66,6.55-9.82,9.98-2.98,3.24-5.92,6.55-8.53,10.08-5.95,8.04-8.56,16.98-6.35,27.25-2.04-1.78-2.26-3.95-2.52-6.13-.96-7.98,.66-15.47,4.23-22.6,1.57-3.13,3.14-6.27,4.79-9.56-1-.05-1.52-.07-2.03-.09-.51-.5-1.02-1-1.53-1.5,2.51-5.29,5.97-10.2,6.82-17.35-3.31,3.41-4.48,7-6.35,10.09-2.13,3.53-4.14,7.13-6.04,10.79-1.75,3.36-3.27,6.83-5.48,11.48-.93-6.13,.55-10.51,1.74-14.87,.81-2.97,2.05-5.83,3.23-8.68,1.09-2.62,2.18-5.22,2.27-8.09,.07-.54,.28-.59,.6-.09,.02,.03-.2,.29-.35,.34-.98,.35,.48,.28-.2-.5-1.61,2.86-3.48,5.5-5.85,7.37-2.11-.56-1.17-2.48-2.32-3.16-.62-.36-.92-.18-1.18,.44-3,7.2-4.79,14.72-5.69,22.43-.72,6.22,.12,12.35,1.84,18.37,.39,1.36,1.28,2.73,.14,4.68-7.09-11.62-10.08-23.8-8.15-37.05,.52-3.56,1.56-7.04,2.22-10.59,.32-1.7,1.36-3.44,.13-5.2,.84,.73,1.14,.08,1.26-.58,.05-.29-.27-.65-.43-.98-.68,.4-.91,.98-.71,1.73Z"/>
      <path class="cls-1" d="M142.41,94.59c-.58,.26-1.38,.89-1.69,.7-1.13-.69-.32-1.48,.16-2.2,.51,.5,1.02,1,1.53,1.5Z"/>
      <path class="cls-1" d="M120.71,222.36c-.57-.44-1.14-.89-1.7-1.33,.6-.61,1.19-1.23,1.79-1.84,.38,.63,.77,1.26,1.15,1.89-.41,.43-.82,.86-1.24,1.29Z"/>
      <path class="cls-1" d="M121.95,221.07c.32,.51,1.03,1.28,.89,1.5-.72,1.14-1.44,.24-2.12-.21,.41-.43,.82-.86,1.23-1.28Z"/>
      <path class="cls-1" d="M162.75,257.95c.21-.02,.41-.03,.62-.05-.25-.56-.4-.49-.44,.21,0,.01-.18-.16-.18-.16Z"/>
      <path class="cls-1" d="M52.22,209.73c-1.04,.03-.25-.94-.53,.03-.17,.59,.33,.7,.67,.08l-.14-.12Z"/>
    </g>
  </g>
</svg>