<?xml version="1.0" encoding="UTF-8"?>
<svg id="Layer_2" data-name="Layer 2" xmlns="http://www.w3.org/2000/svg" viewBox="0 0 317.66 401.93">
  <defs>
    <style>
      .cls-1 {
        fill: #c5a994;
      }
    </style>
  </defs>
  <g id="Layer_1-2" data-name="Layer 1">
    <g>
      <path class="cls-1" d="M39.43,381.93c.2,2.33,2.72,3.76,2.43,6.87-2.1-1.04-2.92-2.86-3.92-4.41-14.58-22.66-25.02-47.09-31.33-73.29C.8,286.96-1.19,262.44,.68,237.72c3.41-45.11,17.71-86.66,42.19-124.64,25.21-39.1,58.2-70.04,98.63-93.02,15.67-8.91,32.29-15.36,50.13-18.27,30.86-5.04,59.5,.24,84.45,19.83,19.48,15.29,33.44,34.62,39.16,59.18,3.36,14.4,3.31,28.8-.76,43.09-1.72,6.03-4.19,11.73-7.62,16.97-9.6,14.67-23.17,22.63-40.65,23.81-8.07,.54-16.04-.13-23.93-1.98-8.73-2.04-13.56-8.23-16.6-15.97-2.1-5.34-.28-10.28,4.34-13.75,1.65-1.24,3.54-2.14,5.31-3.23,3.78-2.31,7.21-5.04,10.06-8.49,1.78-2.15,2.29-4.44,1.81-7.23-1.69-9.98-6.49-17.94-14.79-23.75-4.07-2.85-8.51-4.95-13.17-6.59-2.72-.96-5.48-1.24-8.4-1.03-6.72,.47-13.46,.78-20.19,.93-4.72,.11-9.24,.99-13.71,2.43-10.91,3.52-21.2,8.38-31.07,14.15-22.09,12.91-42.14,28.38-58.81,47.93-17.82,20.9-29.41,45.05-36.38,71.47-3.64,13.8-5.85,27.84-7,42.11-.77,9.46-1.11,18.95-2.51,28.41,0-5.43-.13-10.87,.02-16.3,.87-31.65,6.13-62.36,19.53-91.34,10.03-21.68,23.65-40.75,40.7-57.42,1.96-1.92,4.76-3.32,5.08-6.55-1.82-1.56-3.33-.18-4.9,.47l.04,.21c2.15-4.43,6.77-6.72,9.33-10.8,1.05,.06,1.81-1.8,3.15-.55-.6,2.29-2.77,2.98-4.11,4.42-1.28,1.37-3.27,2.36-2.61,4.57,.51,.38,.83,.71,.9,.66,12.04-7.73,22.7-17.34,34.56-25.32,.21-.15,.48-.26,.62-.46,.38-.56,1.08-1.27,.95-1.72-.23-.82-1.15-.77-1.89-.46-.47,.2-.9,.49-1.34,.75-7.27,3.38-13.37,8.59-20.11,12.8-.45-.47-.9-.94-1.35-1.41,4.12-4.87,9.93-7.8,14.33-12.3-.23-.89-.42-1.62-.61-2.36,1.39,1.58,2.78,1.42,4.15,0,.19-.35,.4-.69,.6-1.03-.19,0-.39,0-.58,0,.07,.41,.14,.83,.21,1.24-1.43-.94-2.94,.23-4.39-.17-.67,2.25-2.87,2.79-4.49,3.93-6.93,4.87-14.1,9.41-20.14,15.44-8.89,6.41-16.41,14.3-23.59,22.46-28.33,32.16-45.58,69.54-52.21,111.89-2.26,14.4-3.27,28.87-2.66,43.42,1.02,24.32,7.41,47.34,6.24,47.61-.35,.08-1.08-1.91-1.27-2.44-12.69-35.39-6.65-80.89-6.65-80.89,4.49-48.12,22.58-90.71,53.62-127.77,9.02-10.76,19.15-20.4,29.51-29.83,2.56-2.09,5.12-4.17,7.69-6.26,2.9-1.38,4.81-4.39,8.16-4.98-.12-.45-.18-.9-.31-1.33-.04-.15-.25-.39-.33-.37-.68,.15-.79,.47-.3,.86,.34,.29,.71,.55,1.07,.82-1.32-.88-2.7-1.17-4.1-.23-1.82,1.21-3.9,2.1-5.1,4.09-3.23,1.24-5.8,3.38-8,6-.8,.24-1.6,.49-2.4,.73-.35-.38-.7-.76-1.05-1.14,4.38-4.83,9.73-8.53,14.74-12.62,1.28-1.04,3.18-1.77,2.8-4.05-2.11-1.25-3.39,.45-4.78,1.39-9.68,6.58-18.59,14.1-26.92,22.31-21.14,20.84-37.11,45.19-48.99,72.31-2.16,4.94-4.29,9.88-6.66,15.34,1.46-4.66,2.6-8.82,4.08-12.87,1.59-4.37,3.42-8.66,5.27-12.93,1.75-4.04,3.78-7.96,5.47-12.02,1.71-4.1,5.44-7.45,5.18-12.49-2.98,.01-3.71,2.24-4.74,3.85-5.6,8.74-10.56,17.84-14.74,27.36-9.89,22.54-15.35,46.11-17.32,70.64-2.73,33.88,1.96,60.53,7.41,90.37,3.76,20.59,7.25,32.21,6.99,32.28-.48,.12-14.21-38.3-18.16-86.4-2.39-29.02,.02-57.51,8.52-85.38,8.04-26.38,21.56-49.85,38.43-71.52,20.97-26.93,46.69-48.47,75.46-66.51,4.36-2.74,9.13-4.94,13.91-6.87,5.51-2.22,11.2-4.05,16.91-5.71,3.94-1.14,7.03-3.35,10.53-6.06-3.07-.79-5.28,.04-7.53,.6-21.71,5.33-41.32,15.17-59.26,28.28-37.88,27.68-66.45,62.94-84.98,106.16,0,0,0,0,0,0-6.92,11.24-8.3,21.68-8.41,21.65-.07-.02,.48-4.37,2.93-12.8,0,0,10.13-32.8,31.32-63.99,.58-.86,1.25-1.67,1.69-2.6,.31-.65,1.62-1.37,.2-2.22-.44,.36-.93,.61-1.22,1.01C14.2,161.43-2.08,223.81,7.38,292.61c4.03,29.28,13.75,56.84,27.92,82.8,1.23,2.26,2.75,4.35,4.13,6.53ZM71.29,88.79c.28-.82,.57-1.65,.85-2.47l.24-.22s-.22,.45-.2,.48c1.23,1.75,1.2,1.8-.86,2.19-.9,.37-1.91,.63-1.99,1.87-1.86-1.08-2.64,1.45-4.23,1.27-.02,1.07-.5,1.74-1.6,1.88-.19,1.51-.88,3.02-.02,4.54-3-1.13-3.5,.93-4.45,3.3,2.18-.79,2.53-3.04,4.44-3.3,.17-1.5,.61-3.01,0-4.51,.55-.64,1.1-1.29,1.65-1.93,1.91,1,2.79-.83,4.05-1.56,.51-.77,1.02-1.55,2.11-1.52Zm3.07-7.19c.06-.76-.67-1.64,.63-2.17,1.27-.52,1.43,.62,2.05,1.07,.25-.85,.49-1.7,.74-2.56,.23-.53-.14-1.29,.9-1.49,1.01-.19,1.02,.64,1.48,1,.24-.88,.48-1.75,.72-2.63,.62-1.79,1.15-1.88,2.47-.42,.62-.78-.69-2.13,.79-2.65,.23-.58-.5-1.48,.81-1.74,1.28-.25,1.01,.84,1.48,1.28,.49-.77-.72-2.06,.77-2.53,1.21-.88,2.49,.07,3.71-.17,.15-1.2,.78-1.89,2.04-1.9,.27-.8,.54-1.59,.81-2.39,1.75-.22,1.18-2.06,2.05-2.92,.74-.71,1.47-1.42,2.21-2.13,1.36,.06,2.71,.11,4.07,.16,.18-1.22,.94-1.77,2.12-1.83,.14-.45,.3-.89,.41-1.34,.25-1.01,.84,.2,.21-.62-.04-.06-1.01,.33-1.12,.66-.11,.32,.32,.83,.51,1.27-.72,.63-1.45,1.26-2.17,1.89-1.36-.06-2.73-.11-4.1-.16-.13,1.29-.9,1.91-2.14,2.04,.2,1.62-1.35,2.14-2,3.24,.78,1.12,.49,1.78-.86,1.95,.34,2.13-.04,2.5-2.15,2.13-1.23,.05-2.46,.11-3.69,.17-.16,.78-.32,1.56-.49,2.33-.87,.22-1.73,.44-2.59,.66-.16,.83-.33,1.67-.51,2.49-.9,.18-1.8,.37-2.71,.56-.15,.84-.31,1.67-.49,2.51-.87,.2-1.75,.4-2.62,.61-.16,.81-.32,1.62-.5,2.43-.99,.46-1.99,.92-2.96,1.36,1.03-.09-.23-.99,.5-.26,.4,.39,.27,.63-.3,.58-1.03-.09,.56,.29-.11-.51Zm-7.72,35.02c-.57,1.21-1.14,2.42-1.7,3.63-8.23,9.73-8.33,9.89-8.78,14.42,3.55-2.01,5.55-4.85,9.65-13.73,1.97-1.13,1.73-2.69,.85-4.36,.34,.36,.66,.74,1.02,1.07,.06,.05,.44-.1,.44-.16-.01-1.09-1-.56-1.48-.87Zm80.82-27.5c.64-.4,1.32-.75,1.9-1.22,.52-.42,.49-.89,.06-1.2-.19-.13-.47-.36-.61-.3-.91,.39-1.79,.84-2.68,1.27-.22,.1-.49,.15-.64,.32-.4,.47-1.12,1.11-1.01,1.45,.23,.75,1.07,.73,1.76,.43,.43-.19,.81-.49,1.22-.74Zm-37.23-35.79c.4-.9,.79-1.79,1.25-2.83-2.18,.45-1.72,1.62-1.23,2.81-.35-.11-.7-.22-.72-.22,0,0,.35,.12,.69,.24ZM235.01,20.83c.05-1.41-1.08-1.78-1.97-2.08-2.44-.84-4.92-1.66-7.44-2.19-13.93-2.89-27.82-2.17-41.65,.78-2.53,.54-5.18,1.69-7.59,1.33-4.13-.62-7.65,.71-11.29,1.97-15.27,5.29-29.44,12.78-42.91,21.66-1.21,.8-2.77,1.34-3.25,3.55,2.01-.25,3.43-1.35,4.92-2.23,8.05-4.74,16.34-9,24.99-12.54,26.44-10.81,53.6-15.75,82.07-9.88,1.32,.27,2.9,1.11,4.13-.37Zm-93.25,41.99c-.26-.45-.53-.89-.79-1.34-6.21,2.77-12.5,5.39-17.28,10.61-.45,.49-.22,.94,.57,1.16,.37,0,.95,.18,1.28-.03,5.43-3.44,10.82-6.93,16.22-10.41Zm-27.77-13.46c1.88-.94,2.71-1.33,2.89-2.4-1.47-.62-1.96,.39-2.89,2.4Zm123.06-27.29c.47,.21,.88,.45,1.32,.54,.15,.03,.39-.28,.58-.44-.34-.27-.64-.69-1.02-.76-.23-.05-.57,.41-.89,.66Zm-96.22,62.16l.38,.25,.06-.39-.43,.13Z"/>
      <path class="cls-1" d="M127.14,175.36c.41-.23,1.16-.44,1.17-.69,.41-9.58,3.99-18.13,8.93-26.09,5.46-8.8,13.26-14.51,23.78-15.67,10.09-1.12,18.93,1.6,25.96,9.28,.51,.56,1.2,.97,1.68,1.34,1.99,.72,3.72-.08,5.5-.23,3.09-.26,6.21-.6,9.29-.39,5.33,.36,10.11,2.14,13.56,6.55,.32,.41,.63,.83,.98,1.2,6.21,6.5,6.27,6.66,1.33,13.52-3.81,5.3-6.71,11.06-9.12,17.1-3.35,8.42-6.77,16.8-11.12,24.77-.78,.42-1.19,1.06-1.17,1.96-.34,.33-1.02,.85-.96,.95,.55,.95,1.24,.49,1.9,.06,.54-.37,1.08-.74,1.62-1.11,4.79-2.5,9.58-4.99,14.37-7.49,.83-.43,.82-1.11,.47-1.86l-.31,.26c1.15,1.33,2.37,.48,3.44-.02,11.53-5.32,23.67-7.04,36.25-6.43,1.95,.09,4,.59,6.74-.79-2.35-.58-4.02-1.1-5.73-1.38-2.03-.33-4.1-.58-6.15-.64-9.7-.28-18.96,1.79-27.97,5.29-2.13,.83-3.99,2.49-6.48,2.34l.11,.23c-1.09-1.08-.25-1.78,.54-2.37,10.18-7.64,21.59-12.26,34.29-13.24,5.4-.42,10.88-.24,16.28,.14,6.21,.43,12.28,1.79,17.96,4.51,2.8,1.34,5.68,2.5,8.48,3.85,3.52,1.7,6.98,3.18,11.11,2.42,2.93-.54,5.59,.64,7.84,2.62,5.34,4.7,4.69,12.04-1.4,15.66-1.8,1.07-3.71,1.84-5.82,2.02-1.79,.15-3.58,.3-5.65,.47-4.1,6.46-9.83,11.65-13.28,18.82-4.12,8.55-11.68,13-21.29,13.25-5.37,.14-10.84,.46-16.86-2.38,4.5-1,8.51-.62,12.34-3.78-5.06-1.04-9.37-.14-13.57-.6-4.1-.45-8.19-.98-12.11-1.46v-2.42c-3.44-1.2-7.24-.12-11.14-2.02,4.95-1.95,10.22-.57,15.45-4.62-18.9,1.36-36.34,2.76-53.77,7.46,1.15-1.96,2.77-2.22,4.3-2.78,11.71-4.26,23.85-6.8,36.03-9.23,3.24-.64,6.47-1.34,9.65-2.46-3.18-1.09-6.31-.45-9.45-.03-14.95,1.99-29.38,5.95-43.48,11.22-.35-.45-.7-.9-1.06-1.34,1.45-1.59,3.47-2.18,5.33-3.03,9.91-4.52,20.2-7.95,30.71-10.78,4.43-1.2,9.08-1.73,13.22-4.02-2.39-.35-4.65,.21-6.93,.67-1.26,.26-2.57,.3-3.86,.42-1.03,.1-2.11,.01-3.08,.31-1.66,.5-1.26-1.73-2.29-1.64-1.76,.15-3.47,.45-5.23,1.01-13.43,4.31-25.57,11.11-37.29,18.78-.58,.38-.88,1.18-1.31,1.78l.23-.17c-1.13,.08-2.22,.19-1.75,1.81l.21-.21c-.45-.1-.94-.37-1.33-.26-.64,.18-1.42,.55-1.26,1.38,.2,1.08,1.17,.55,1.83,.64,.24,.03,.49-.02,.74-.03l-.25-.24c.28,1.32-.78,1.8-1.6,2.27-2.23,1.28-4.43,2.71-6.82,3.59-7.64,2.81-13.83,7.74-19.76,13.09-.57,.51-1.26,.89-1.9,1.32-.5-.7-1-1.4-1.5-2.11,3.55-4.94,9.22-7.81,12.87-12.63-1.04-1.07-1.76-.55-2.32-.13-12.41,9.37-23.34,20.24-32.86,32.53-.62,.8-1.21,1.66-.72,2.77l.21-.21c-1.62-.27-2.21,1.02-2.94,2.02-13.62,18.68-22.74,39.39-27.72,61.94-.94,4.27-1.61,8.6-2.41,12.98-1.78-.47-.85-1.89-.95-2.81-.13-1.27,0-2.59,.18-3.87,1.88-13.63,4.85-26.99,9.89-39.85,2.36-6.04,4.98-11.94,7.99-17.68,.7-1.33,1.29-2.71,2.26-4.75-4.45,3.15-7.72,8.29-13.19,19.83-3.45,7.28-6.24,14.81-8.2,22.61-1.9,7.55-2.94,15.25-3.37,23.03-.44,7.99,.74,15.91,.75,23.88-5.6-19.22-5.41-38.59-.58-59.62-4.38,7.55-5.76,13.63-7.53,31.01-1.68-13.95,.54-26.81,4.54-39.37,2.19-6.89,5.03-13.59,7.85-20.27,3.83-9.06,7.92-18.02,11.88-27.02,.6-1.37,1.56-2.7,.96-4.63-.69,.65-1.37,1.04-1.7,1.63-5.28,9.5-10.94,18.83-15.69,28.6-9.96,20.52-13.54,42.34-11.32,65.02,1.4,14.29,5.52,27.9,11.62,40.9,1.08,2.3,2.66,4.59,1.06,7.31l.03,.03c.22-2.6-1.7-4.27-2.82-6.24-7.36-12.96-12.61-26.68-15.17-41.4-3.44-19.8-1.95-39.24,4.17-58.37,3.48-10.88,7.94-21.37,12.54-31.8,4.81-10.91,9.68-21.79,13.61-33.07,2.82-8.1,5.1-16.31,6.1-24.87,.43-3.63,.57-7.17,.11-10.83-1.19-9.45,4.87-16.46,14.5-17.25,5.32-.44,10.3,.64,15.08,2.91,7.98,6.52,10.91,15.39,11.65,25.24,.91,12.13-1.5,23.67-6.87,34.51-2.63,5.31-5.81,10.34-8.72,15.5-.59,1.05-1.61,2.06-.36,3.52,.79-.64,1.65-1.21,2.35-1.93,6.48-6.68,13.56-12.69,20.74-18.59,4.59-3.76,9.09-7.64,13.84-11.2,2.62-1.97,3.22-4.39,2.96-7.34,.91-.21,1.36-.8,1.4-1.72,.96-.19,1.41-.78,1.36-1.75,.78-.16,1.55-.31,2.33-.47,.17-1.73,1.13-3.46,.05-5.21,.2,.09,.48,.13,.58,.28,.4,.64,.64,.63,.61-.06,0-.1-.76-.16-1.17-.23-.29,1.74-1.52,3.48-.07,5.24-1.04-.82-2.02-1.44-2.2,.64-1.21-1.16-1.62,.05-2.2,.74-.52,.57-1.03,1.13-1.55,1.69-1.66,.66-2.76,2.97-5.51,1.81,1.06-3.79,3.98-6.07,5.89-8.95,1.85-2.79,3.99-5.38,5.77-8.21,1.83-2.92,4.43-5.5,5.31-9.75-3.25,1.15-4.61,3.38-6.39,5.06-1.68,1.59-3.24,3.31-4.81,5.01-1.75,1.89-3.4,3.87-5.19,5.71-1.63,1.67-2.73,4.09-5.39,4.75-.88-2.49,.55-3.83,1.45-5.27,3.69-5.86,7.45-11.68,11.18-17.51,.88-.57,1.49-1.28,.58-2.23-.1-.1-1.08,.65-1.65,1.01-2.54,2.29-5.08,4.58-7.62,6.87l-1.49-1.8c.62-1.04,1.23-2.09,1.85-3.12,.49-.82,1.08-1.62,.22-2.55,2.07-.25,1.15-1.38,.69-2.37,.83-.35,1.66-.71,2.49-1.06,.71,.19,.94-.21,.61-.23-1.02-.08,.24-.32-.45,.46-.85,.29-1.7,.58-2.54,.89-.21,.83-.43,1.64-.66,2.46-1.05-.26-1.79-.72-1.55-2.01,.25-1.4,2.1-2.24,1.33-4.1-2.23,.71-3.34,2.86-5.17,4.03-.5-.59-1-1.17-1.49-1.75,1.27-2.59,2.53-5.18,3.79-7.75,.17,.1,.49,.16,.5,.26,.06,.57-.15,.63-.45,.13-.05-.09,.16-.33,.25-.5-.23,1.13-1.5,2.3-1.94,2.09-3.61-1.67-4.89,1.23-6.77,3.11-1.59,1.59-2.18,4.31-5.39,4.63,1.51-2.95,2.87-5.68,4.3-8.39,.84-1.59,1.98-3.05,2.63-4.71,.38-.97-.31-1.96-1.9-2.36-3.19,1.84-4.73,5.89-8.47,8.51,1.42-7.38,6.69-12.18,8.66-18.48-3.31-1.12-3.77,3.28-6.47,2.78-.14-.78-.23-1.29-.32-1.79,1.17-.71,1.56-1.62,.57-3.1-.58,.83-1.08,1.54-1.59,2.26-.42,.64-.84,1.28-1.26,1.92-2.51,3.87-3.3,8.85-7.47,11.65,.29,.35,.59,.7,.88,1.05Zm-21.78,103.53c-1.07-.01-2.15-.02-3.22-.03,.56,1.64-1.31,2.78-1.38,4.58,3.08-1.2,1.59-3.02,1.37-4.58,1.13-.05,2.25-.1,3.36-.14-.68,.02-.75-.13-.22-.44l.09,.61Zm40.57-121.4c.38-.54,1.2-1.18,.5-1.75-.74-.6-1.19,.15-1.41,.88-.73,.45-2.11,.85-1.09,1.9,1,1.03,1.32-.64,2-1.03Zm-26.36,102.69c-2.3-.68-3.32,1.27-4.75,2.3,.53-.23,.62-.15,.26,.23-.05-.17-.09-.34-.14-.5,1.55-.68,3.09-1.36,4.64-2.03-.07-.21-.25-.45-.19-.62,.24-.72,.09-.9-.45-.43-.06,.05,.41,.69,.63,1.06Zm-11.01-5.44c-4.43,3-4.53,2.95-6.81,7.38-1.56,3.03-3.85,5.79-4.68,10.83,4.5-5.91,7.57-10.85,9.69-16.36,.38-.99,.8-1.85,1.9-2.09-1.02,.17,.21,1.04-.53,.32-.12-.12-.24-.48-.21-.5,.51-.34,.73-.19,.65,.42Zm-12.38,18.81c-2.03,1.43-2.72,3.15-2.81,5.18,1.28-1.4,3.18-2.47,2.81-5.18Zm76.19-82.81l.26-.46-.45-.03,.2,.49Zm-81.01,91.58l.32-.46-.48-.08,.16,.54Z"/>
      <path class="cls-1" d="M85.75,399.32c.6,.22,1.32-.12,1.15-.57-3.45-9.04-4.24-18.47-3.77-27.99,1.34-27.04,9.59-51.85,24.68-74.32,13.87-20.66,31.65-36.96,54.22-47.7,15.18-7.22,31.17-11.27,48.07-10.9,21.63,.47,39.04,9.29,51.67,27.01,9.86,13.84,15.81,29.22,16.22,46.3,.44,18.07-4.27,34.56-18.05,47.15-14.19,12.97-30.65,16.62-49.03,10.26-5.21-1.8-9.82-4.65-13.87-8.39-11.69-10.78-12.44-26.2-8.33-37.21,4.7-12.6,17.26-21.25,30.64-21.39,15.25-.16,27.97,11.08,29.69,26.3,.26,2.31,.27,4.64,.39,6.85,1.69,.99,2.55-.11,3.37-1.04,3.54-4.03,5.42-8.81,6-14.08,.58-5.18,.4-10.36-.77-15.47-3.44-15.12-11-27.89-22.22-38.47-12.76-12.03-27.79-16.35-45.13-13.33-16.63,2.89-31.95,8.88-45.65,18.65-32.67,23.29-51.96,55.01-58.47,94.54-.67,4.08-.74,8.27-.88,12.41-.12,3.62,.05,7.26,.07,10.89,.02,3.51,0,7.03,0,10.51Z"/>
      <path class="cls-1" d="M113.57,328.62c-1.47-.84-2.81-.9-4.17,.36-.92,.85-2.06,1.46-3.1,2.18-.31-.32-.61-.63-.93-.94,1.73-2.49,3.45-4.98,5.11-7.38-1.28-1.59-2.63-.09-3.71-.74-1.25-1.05-.79-2.36-.38-3.51,1.05-2.95,2.65-5.63,4.69-8,7.77-9.07,17.35-15.41,28.77-18.97,3.03-.94,6.09-1.16,9.21-.96,12.09,.76,20.52,10.3,19.75,22.39-.08,1.28-.14,2.68-.68,3.79-2.14,4.4-4.29,8.81-6.76,13.03-2.68,4.58-6.72,7.86-11.37,10.32-2.51,1.33-5.15,2.43-7.78,3.49-4.08,1.64-8.22,3.13-12.31,4.74-20.25,7.97-30.73,23.57-34.52,44.36-.56,3.05-.97,6.12-1.43,9.11-1.94,.32-1.65-1.05-1.73-1.87-1.76-17.75,2.5-33.94,13.04-48.33,1.95-2.67,2.61-5.14,1.85-8.17-7.02,5.48-12.09,13.94-17.21,28.95-1.18-1.5-.8-2.95-.53-4.19,1.56-7.14,4.32-13.8,8.14-20.03,4.08-6.64,8.95-12.69,14.1-18.52,.47-.53,1.29-.75,1.94-1.12-.12-.18-.36-.37-.35-.55,.04-.77-.16-.9-.55-.29-.04,.07,.58,.56,.89,.86Zm13.18-4.47c-.47,1.07-.94,2.13-1.42,3.2-.52,.55-1.03,1.1-1.55,1.65-1.39-1.19-2.91-.27-4.37-.28-.05,1.06-.6,1.55-1.66,1.46,.13,.98-.54,1.54-1.13,2.14-.62,.4-1.24,.8-1.87,1.2-.38,.66-.77,1.31-1.15,1.97-.63,.38-1.26,.76-1.89,1.14-.42,.64-.83,1.28-1.25,1.92-.44,.57-.88,1.15-1.32,1.72-.56,.27-.74,.67-.46,1.15,.06,.1,.4,.17,.49,.09,.74-.6,.58-1.08-.21-1.42,1.93,.31,1.96,.26,1.32-1.7,2.02,.54,1.8-.57,1.4-1.8,1.92,.7,1.98,.66,1.72-1.26,1.82,.33,1.68-.69,1.33-1.84,1.25,.46,2.25,.58,1.73-1.28,1.96,.27,1.39-1.03,1.27-2.05,1.41,.48,1.94-.03,1.66-1.47,1.45,.77,2.96,.47,4.47,.26-.12-1.07,.57-1.5,1.37-1.89,.44-.9,.88-1.81,1.31-2.66,.45-.16,.47-.1,.07,.18,.04-.15,.08-.3,.13-.44Z"/>
      <path class="cls-1" d="M122.85,269.85c2.49-3.71,5.59-6.84,9.06-9.62,.62,.56,1.23,1.12,1.85,1.68-3.22,3.08-6.44,6.17-9.65,9.25-.42-.44-.84-.88-1.26-1.31Z"/>
      <path class="cls-1" d="M215.3,198.55c-1.16-.03-2.32-.06-3.48-.09l.19,.18c.81-1.09,1.33-2.9,3.2-1.24,0,0-.11-.23-.11-.23-.04,.54-.07,1.09-.11,1.63,0,0,.31-.26,.31-.26Z"/>
      <path class="cls-1" d="M105.42,90.43c.56-.48,1.12-.96,1.68-1.43,.35,.38,.7,.76,1.05,1.14-.26,.85-.83,1.32-1.72,1.41-.33-.38-.67-.75-1.01-1.12Z"/>
      <path class="cls-1" d="M106.43,91.54c-.22,.89-.8,1.34-1.7,1.41-.34-.34-.68-.67-1.03-1.01,.57-.51,1.15-1.01,1.72-1.52,.34,.37,.68,.74,1.01,1.12Z"/>
      <path class="cls-1" d="M104.73,92.95c-.52,.94-1.15,1.68-2.16,.64-.09-.09,.73-1.08,1.13-1.65,.35,.33,.69,.67,1.03,1.01Z"/>
      <path class="cls-1" d="M211.82,198.45c-.11,.31-.23,.63-.34,.94,0-.14-.08-.35-.01-.42,.15-.15,.37-.22,.55-.34,0,0-.19-.19-.19-.19Z"/>
      <path class="cls-1" d="M138.2,257.79c-.52,.48-1.03,.95-1.55,1.43-.54-.7-1.09-1.39-1.63-2.09,.56-.48,1.12-.96,1.68-1.44,.5,.7,1,1.4,1.5,2.11Z"/>
      <path class="cls-1" d="M133.46,258.68c.52-.52,1.04-1.04,1.56-1.56,.54,.7,1.09,1.39,1.63,2.09-.53,.49-1.05,.98-1.58,1.46-.54-.67-1.07-1.33-1.61-2Z"/>
      <path class="cls-1" d="M131.91,260.23c.52-.52,1.03-1.03,1.55-1.55,.54,.67,1.07,1.33,1.61,2-.44,.41-.87,.82-1.31,1.23-.62-.56-1.23-1.12-1.85-1.68Z"/>
      <path class="cls-1" d="M77.26,398.92c.36-.08,.71-.15,.58-.12,.14-.04-.2,.06-.54,.15,0,0-.03-.03-.03-.03Z"/>
      <path class="cls-1" d="M105.3,333.13c-.22,.03-.44,.09-.66,.08-.08,0-.16-.16-.24-.25,.37,.1,.74,.21,1.11,.31l-.21-.14Z"/>
      <path class="cls-1" d="M105.51,333.27c-1.19-.96-.92-1.99-.14-3.05,.31,.31,.62,.62,.93,.94-.35,.64-.7,1.28-1.03,1.95,.03,.02,.24,.16,.24,.16Z"/>
      <path class="cls-1" d="M119.29,275.9c-.52,.37-1.05,.75-1.57,1.12-.75-1.12-.09-1.66,.86-2.08,.23,.32,.47,.64,.71,.95Z"/>
      <path class="cls-1" d="M120.94,274.31c-.55,.53-1.1,1.06-1.65,1.59-.24-.32-.47-.63-.71-.95,.03-.93,.5-1.49,1.39-1.72,.32,.36,.65,.73,.97,1.09Z"/>
      <path class="cls-1" d="M122.53,272.73c-.53,.52-1.06,1.05-1.59,1.57-.32-.36-.65-.72-.97-1.09,.11-.87,.58-1.43,1.42-1.68,.38,.4,.76,.8,1.14,1.19Z"/>
      <path class="cls-1" d="M124.11,271.16c-.53,.52-1.05,1.05-1.58,1.57-.38-.4-.76-.8-1.14-1.19,.16-.84,.65-1.41,1.46-1.69,.42,.44,.84,.88,1.26,1.31Z"/>
      <path class="cls-1" d="M121.07,103.03c-1.63,1.51-3.15,3.2-5.83,3.75,.28-3.03,2.51-3.99,4.48-5.17,.45,.47,.9,.94,1.35,1.41Z"/>
      <path class="cls-1" d="M147.69,187.23c-.28,.39-.53,.8-.85,1.15-.46,.5-.99,1.11-1.69,.43-.63-.62-.17-1.31,.19-1.87,.24-.38,.67-.64,1.02-.95,.44,.41,.88,.83,1.32,1.24Z"/>
      <path class="cls-1" d="M146.37,185.99c.41-.64,.81-1.29,1.22-1.93,.5,.58,1,1.17,1.49,1.75-.47,.47-.93,.95-1.39,1.42-.44-.41-.88-.83-1.32-1.24Z"/>
      <path class="cls-1" d="M153.74,195.23c-.16,.19-.29,.45-.49,.56-.58,.3-1.36,.89-1.74,.7-.71-.35-.59-1.25-.21-1.92,.24-.42,.63-.77,.95-1.14l1.49,1.8Z"/>
    </g>
  </g>
</svg>